<svg width="534" height="534" viewBox="0 0 534 534" fill="none" xmlns="http://www.w3.org/2000/svg">
<g clip-path="url(#clip0)">
<path d="M0.651219 267.004C0.651219 119.903 119.899 0.651219 267.002 0.651219C414.096 0.651219 533.349 119.903 533.349 267.004C533.349 414.099 414.096 533.349 267.002 533.349C119.899 533.349 0.651219 414.099 0.651219 267.004Z" stroke="url(#paint0_linear)" stroke-width="1.30244"/>
<path d="M267.005 42.688C143.121 42.688 42.6941 143.119 42.6941 267.002C42.6941 390.882 143.121 491.311 267.005 491.311C390.882 491.311 491.313 390.882 491.313 267.002C491.313 143.119 390.882 42.688 267.005 42.688Z" fill="url(#paint1_linear)" fill-opacity="0.5"/>
<path d="M267.002 102.692C176.256 102.692 102.693 176.258 102.693 267.002C102.693 357.744 176.256 431.308 267.002 431.308C357.742 431.308 431.308 357.744 431.308 267.002C431.308 176.258 357.742 102.692 267.002 102.692Z" fill="url(#paint2_linear)" fill-opacity="0.5"/>
<path d="M267.002 143.769C198.942 143.769 143.77 198.943 143.77 267.002C143.77 335.058 198.942 390.231 267.002 390.231C335.057 390.231 390.231 335.058 390.231 267.002C390.231 198.943 335.057 143.769 267.002 143.769Z" fill="#854CD9"/>
<path d="M331.458 223.011L272.166 195.294C270.957 194.728 269.675 194.442 268.355 194.442C267.034 194.442 265.754 194.728 264.547 195.293L205.252 223.011C201.811 224.619 199.67 228.377 199.923 232.362C200.994 249.102 204.902 280.711 219.065 304.319C236.684 333.686 258.029 341.581 266.387 343.61C267.675 343.921 269.036 343.926 270.329 343.61C278.683 341.581 300.028 333.686 317.646 304.319C331.809 280.716 335.717 249.104 336.788 232.361C337.042 228.378 334.9 224.619 331.458 223.011Z" fill="#330D84"/>
<path d="M335.056 215.313L275.766 187.597C271.078 185.404 265.628 185.407 260.948 187.596L201.656 215.313C195.073 218.388 190.97 225.457 191.443 232.903C192.563 250.413 196.691 283.543 211.78 308.692C231.048 340.81 254.986 349.584 264.387 351.871C265.688 352.182 267.024 352.344 268.356 352.344C269.69 352.344 271.025 352.182 272.328 351.867C281.726 349.584 305.664 340.81 324.932 308.692C340.018 283.547 344.149 250.414 345.269 232.902C345.742 225.458 341.638 218.39 335.056 215.313ZM336.789 232.361C335.717 249.103 331.809 280.715 317.646 304.318C300.027 333.685 278.683 341.58 270.329 343.609C269.036 343.925 267.675 343.921 266.388 343.609C258.029 341.58 236.685 333.685 219.065 304.318C204.902 280.711 200.994 249.102 199.923 232.362C199.67 228.376 201.811 224.619 205.253 223.011L264.547 195.293C265.755 194.728 267.034 194.441 268.356 194.441C269.676 194.441 270.957 194.727 272.167 195.293L331.458 223.01C334.9 224.619 337.042 228.378 336.789 232.361Z" fill="#5D8EF9"/>
<path d="M322.445 189.438C318.709 188.504 315.799 185.59 314.856 181.858L314.699 181.222L314.541 181.858C313.604 185.59 310.689 188.504 306.952 189.438L306.32 189.6L306.952 189.761C310.689 190.695 313.604 193.61 314.541 197.343L314.699 197.979L314.856 197.343C315.798 193.61 318.709 190.695 322.445 189.761L323.078 189.6L322.445 189.438Z" fill="#330D84"/>
<path d="M206.012 323.873C201.672 322.786 198.282 319.396 197.197 315.056L197.008 314.318L196.821 315.056C195.736 319.396 192.346 322.785 188 323.873L187.262 324.059L188 324.247C192.347 325.333 195.736 328.723 196.821 333.063L197.008 333.806L197.197 333.063C198.282 328.723 201.672 325.334 206.012 324.247L206.757 324.059L206.012 323.873Z" fill="#FFBE1B"/>
<path d="M357.32 311.978C351.2 310.446 346.421 305.662 344.886 299.543L344.626 298.501L344.363 299.543C342.832 305.662 338.052 310.447 331.928 311.978L330.886 312.243L331.928 312.504C338.052 314.035 342.832 318.815 344.363 324.934L344.626 325.98L344.886 324.934C346.421 318.815 351.2 314.034 357.32 312.504L358.366 312.243L357.32 311.978Z" fill="#5D8EF9"/>
<path d="M339.877 334.333C335.987 333.358 332.95 330.316 331.973 326.428L331.809 325.764L331.641 326.428C330.668 330.316 327.632 333.358 323.739 334.333L323.077 334.499L323.739 334.665C327.632 335.64 330.668 338.677 331.641 342.565L331.809 343.233L331.973 342.565C332.95 338.677 335.987 335.64 339.877 334.665L340.541 334.499L339.877 334.333Z" fill="#5D8EF9"/>
<path d="M268.356 245.949C248.308 245.949 232.052 262.204 232.052 282.256C232.052 302.306 248.308 318.562 268.356 318.562C288.413 318.562 304.662 302.306 304.662 282.256C304.663 262.204 288.413 245.949 268.356 245.949Z" fill="#8AC9F9"/>
<path d="M268.12 257.127C254.171 257.127 242.862 268.434 242.862 282.384C242.862 296.334 254.171 307.642 268.12 307.642C282.07 307.642 293.379 296.334 293.379 282.384C293.379 268.434 282.07 257.127 268.12 257.127Z" fill="#FFBE1B"/>
<path d="M268.12 263.425C257.649 263.425 249.16 271.913 249.16 282.384C249.16 292.856 257.649 301.345 268.12 301.345C278.592 301.345 287.08 292.856 287.08 282.384C287.08 271.913 278.592 263.425 268.12 263.425Z" fill="#FFE37B"/>
<path d="M273.782 285.889L273.775 285.873C273.642 285.582 269.835 279.02 268.476 276.679C268.263 276.311 267.736 276.311 267.523 276.679C266.164 279.02 262.356 285.582 262.223 285.873L262.213 285.889H262.216C261.849 286.693 261.642 287.586 261.642 288.527C261.642 292.038 264.488 294.884 267.999 294.884C271.511 294.884 274.357 292.038 274.357 288.527C274.356 287.586 274.15 286.693 273.782 285.889ZM267.985 291.993C265.75 291.993 263.938 290.121 263.938 287.812C263.938 287.193 264.069 286.606 264.303 286.077L264.308 286.066C264.412 285.833 267.985 279.478 267.985 279.478C267.985 279.478 271.557 285.833 271.661 286.066L271.667 286.077C271.901 286.606 272.031 287.193 272.031 287.812C272.031 290.121 270.22 291.993 267.985 291.993Z" fill="#FEFFC5"/>
<path d="M272.688 278.004L272.682 277.991C272.577 277.761 269.647 272.71 268.477 270.694C268.263 270.326 267.737 270.326 267.523 270.694C266.352 272.71 263.422 277.761 263.317 277.991L263.31 278.004H263.311C263.014 278.655 262.846 279.379 262.846 280.142C262.846 282.988 265.154 285.295 268 285.295C270.846 285.295 273.154 282.988 273.154 280.142C273.153 279.379 272.986 278.655 272.688 278.004ZM267.988 282.952C266.177 282.952 264.707 281.434 264.707 279.563C264.707 279.061 264.814 278.585 265.003 278.156L265.007 278.147C265.085 277.972 267.569 273.553 267.941 272.89C267.963 272.853 268.013 272.853 268.035 272.89C268.407 273.553 270.891 277.972 270.969 278.147L270.973 278.156C271.163 278.585 271.269 279.061 271.269 279.563C271.269 281.434 269.8 282.952 267.988 282.952Z" fill="#FEFFC5"/>
<path d="M268.356 215.477C254.392 215.477 243.033 226.837 243.033 240.8V256.252C245.541 253.809 248.401 251.727 251.53 250.086V240.8C251.53 231.523 259.079 223.975 268.357 223.975C277.636 223.975 285.185 231.523 285.185 240.8V250.086C288.315 251.726 291.174 253.808 293.683 256.251V240.8C293.682 226.837 282.322 215.477 268.356 215.477Z" fill="#6857E5"/>
<path d="M351.808 99.4996C343.586 97.5253 337.168 91.3739 335.101 83.5005L334.751 82.154L334.402 83.5005C332.338 91.3739 325.916 97.5253 317.693 99.4996L316.292 99.8344L317.693 100.171C325.917 102.145 332.338 108.294 334.402 116.168L334.751 117.514L335.101 116.168C337.168 108.294 343.587 102.144 351.808 100.171L353.214 99.8344L351.808 99.4996Z" fill="#5D8EF9"/>
<path d="M404.349 130.264C390.371 126.907 379.459 116.448 375.945 103.063L375.348 100.776L374.756 103.063C371.248 116.447 360.329 126.907 346.347 130.264L343.967 130.833L346.347 131.405C360.329 134.759 371.248 145.216 374.756 158.603L375.348 160.889L375.945 158.603C379.459 145.216 390.371 134.759 404.349 131.405L406.74 130.833L404.349 130.264Z" fill="#5D8EF9"/>
</g>
<defs>
<linearGradient id="paint0_linear" x1="267" y1="0" x2="267" y2="534" gradientUnits="userSpaceOnUse">
<stop stop-color="#5D28AB"/>
<stop offset="1" stop-opacity="0"/>
</linearGradient>
<linearGradient id="paint1_linear" x1="267.003" y1="42.688" x2="267.003" y2="491.311" gradientUnits="userSpaceOnUse">
<stop stop-color="#5D28AB"/>
<stop offset="1" stop-color="#5D28AB" stop-opacity="0"/>
</linearGradient>
<linearGradient id="paint2_linear" x1="267.001" y1="102.692" x2="267.001" y2="431.308" gradientUnits="userSpaceOnUse">
<stop stop-color="#5D28AB"/>
<stop offset="1" stop-color="#5D28AB" stop-opacity="0"/>
</linearGradient>
<clipPath id="clip0">
<rect width="534" height="534" fill="white"/>
</clipPath>
</defs>
</svg>
