<svg width="14" height="16" viewBox="0 0 14 16" fill="none" xmlns="http://www.w3.org/2000/svg">
<path d="M9.28125 7.59375C9.28125 7.34375 9.1875 7.15625 9.03125 6.96875C8.875 6.8125 8.6875 6.71875 8.46875 6.71875C8.21875 6.71875 8.03125 6.8125 7.875 6.96875C7.71875 7.15625 7.65625 7.34375 7.65625 7.59375C7.65625 7.84375 7.71875 8.0625 7.875 8.25C8.03125 8.4375 8.21875 8.5 8.46875 8.5C8.6875 8.5 8.875 8.4375 9.03125 8.25C9.1875 8.0625 9.28125 7.84375 9.28125 7.59375ZM5.5625 6.71875C5.78125 6.71875 5.96875 6.8125 6.125 6.96875C6.28125 7.15625 6.375 7.34375 6.375 7.59375C6.375 7.84375 6.28125 8.0625 6.125 8.25C5.96875 8.4375 5.78125 8.5 5.5625 8.5C5.3125 8.5 5.125 8.4375 4.96875 8.25C4.8125 8.0625 4.75 7.84375 4.75 7.59375C4.75 7.34375 4.8125 7.15625 4.96875 6.96875C5.125 6.8125 5.3125 6.71875 5.5625 6.71875ZM14 1.65625C14 1.21875 13.8125 0.8125 13.5 0.5C13.1875 0.1875 12.8125 0 12.375 0H1.625C1.1875 0 0.78125 0.1875 0.46875 0.5C0.15625 0.8125 0 1.21875 0 1.65625V12.4688C0 12.9375 0.15625 13.3438 0.46875 13.6562C0.78125 13.9688 1.1875 14.125 1.625 14.125H10.7188L10.2812 12.625L10.875 13.1875C11.7812 14.0312 12.5625 14.75 13.2188 15.3125L14 16V1.65625ZM11.7188 9.21875L11.5938 9.40625C11.4688 9.5625 11.3125 9.6875 11.1562 9.8125C10.9062 10 10.6562 10.1562 10.4062 10.2188C10.0312 10.375 9.65625 10.4375 9.28125 10.4375L8.75 9.8125C9.0625 9.71875 9.34375 9.59375 9.59375 9.40625C9.75 9.3125 9.90625 9.1875 10.0625 9.03125L10.1875 8.84375C9.875 9.0625 9.59375 9.21875 9.28125 9.3125C8.4375 9.6875 7.5625 9.8125 6.625 9.75C5.75 9.6875 4.96875 9.4375 4.28125 9.03125L3.9375 8.84375L4.09375 9.03125C4.21875 9.15625 4.34375 9.28125 4.53125 9.40625C4.78125 9.59375 5.03125 9.71875 5.34375 9.78125L4.8125 10.4375C4.40625 10.4375 4.03125 10.375 3.6875 10.2188C3.40625 10.1562 3.15625 10 2.9375 9.8125C2.75 9.6875 2.625 9.5625 2.5 9.40625L2.375 9.21875C2.375 8.46875 2.46875 7.6875 2.6875 6.875C2.8125 6.3125 2.96875 5.75 3.21875 5.21875L3.53125 4.5625C3.84375 4.3125 4.21875 4.125 4.625 3.96875C4.875 3.875 5.15625 3.8125 5.4375 3.75L5.78125 3.71875L5.84375 3.8125C5.40625 3.9375 5.03125 4.09375 4.65625 4.28125C4.40625 4.40625 4.15625 4.5625 3.96875 4.6875L3.75 4.875L4.21875 4.625C5.15625 4.25 6.15625 4.0625 7.21875 4.0625C8.28125 4.09375 9.25 4.375 10.1875 4.875C10.0625 4.78125 9.90625 4.65625 9.71875 4.53125C9.28125 4.28125 8.78125 4.03125 8.21875 3.84375L8.3125 3.71875C8.5 3.71875 8.71875 3.75 9 3.8125C9.5625 3.96875 10.0625 4.21875 10.5625 4.5625C10.75 4.9375 10.9375 5.375 11.1562 5.9375C11.5312 7.0625 11.7188 8.15625 11.7188 9.21875Z" fill="#DDC7FD"/>
</svg>
