<svg width="130" height="130" viewBox="0 0 130 130" fill="none" xmlns="http://www.w3.org/2000/svg">
<path d="M65.0002 10.3921C34.8417 10.3921 10.3926 34.8415 10.3926 65.0007C10.3926 95.1579 34.8417 119.608 65.0002 119.608C95.1587 119.608 119.608 95.1579 119.608 65.0007C119.608 34.8415 95.1587 10.3921 65.0002 10.3921Z" fill="#EDF3FC"/>
<g clip-path="url(#clip0)">
<path d="M76.6982 95.0939C76.2653 95.2424 75.8226 95.3835 75.382 95.5135C74.7931 95.6875 74.1755 95.351 74.0018 94.7626C73.828 94.1741 74.164 93.5559 74.7526 93.3824C75.1626 93.2612 75.5746 93.1299 75.9773 92.9917C76.0969 92.9508 76.2184 92.9312 76.3378 92.9312C76.7993 92.9312 77.2309 93.2212 77.3886 93.6824C77.5878 94.2628 77.2784 94.8948 76.6982 95.0939Z" fill="#330D84"/>
<path d="M86.3541 89.7872C85.8747 90.1701 85.1754 90.0921 84.7925 89.6126C84.4094 89.1332 84.4876 88.4339 84.967 88.051C85.5845 87.5577 86.1896 87.0339 86.7659 86.4943C86.9803 86.2935 87.2528 86.1941 87.5252 86.1941C87.8216 86.1941 88.1176 86.3121 88.3363 86.5457C88.7559 86.9934 88.7328 87.6968 88.2848 88.1161C87.6665 88.6954 87.0168 89.2577 86.3541 89.7872ZM82.8623 92.2181C82.1359 92.6561 81.3828 93.0703 80.6239 93.4492C80.075 93.7232 79.4074 93.5003 79.1334 92.9512C78.8594 92.4021 79.0823 91.735 79.6312 91.4608C80.3379 91.1081 81.039 90.7226 81.7152 90.315C81.8947 90.2068 82.0923 90.1552 82.2876 90.1552C82.6643 90.1552 83.0319 90.3468 83.2403 90.6928C83.5572 91.2186 83.3879 91.9014 82.8623 92.2181ZM96.007 77.0168C95.6799 77.7979 95.3168 78.5766 94.9279 79.3308C94.6465 79.8763 93.9763 80.0903 93.431 79.809C92.8856 79.5277 92.6714 78.8577 92.9528 78.3121C93.315 77.6099 93.653 76.885 93.9576 76.1579C94.1359 75.7321 94.5483 75.4759 94.9828 75.4759C95.1256 75.4759 95.2714 75.5037 95.4116 75.5623C95.9774 75.7997 96.2443 76.4508 96.007 77.0168ZM92.7325 82.9748C92.2483 83.6703 91.7301 84.3554 91.1923 85.0112C90.8034 85.4854 90.103 85.555 89.6285 85.1657C89.1541 84.7766 89.085 84.0763 89.4741 83.6019C89.9752 82.991 90.4579 82.353 90.9088 81.7052C91.1248 81.395 91.4703 81.2288 91.8214 81.2288C92.0405 81.2288 92.2619 81.2935 92.4554 81.4281C92.959 81.7788 93.0832 82.4712 92.7325 82.9748Z" fill="#330D84"/>
<path d="M97.7202 71.643C97.6196 72.0923 97.5082 72.5436 97.3891 72.9845C97.2289 73.5767 96.6184 73.9272 96.0264 73.7672C95.434 73.607 95.0838 72.997 95.2438 72.4045C95.3547 71.9947 95.4582 71.575 95.552 71.157C95.6678 70.6399 96.1265 70.2885 96.6351 70.2885C96.7156 70.2885 96.7973 70.2974 96.8791 70.3156C97.4776 70.4499 97.8544 71.0441 97.7202 71.643Z" fill="#330D84"/>
<path d="M36.3924 73.6659C35.8004 73.8239 35.1908 73.4712 35.0328 72.8783C34.915 72.4368 34.8053 71.985 34.7062 71.5357C34.5742 70.9363 34.9528 70.3434 35.5522 70.2114C35.6328 70.1937 35.7133 70.1852 35.7924 70.1852C36.3026 70.1852 36.7619 70.5388 36.8764 71.0574C36.9686 71.4754 37.0706 71.8957 37.1799 72.3061C37.3379 72.8992 36.9855 73.5079 36.3924 73.6659Z" fill="#330D84"/>
<path d="M39.6379 80.8623C39.1035 81.1647 38.4257 80.9771 38.1234 80.4431C37.6203 79.5554 37.1548 78.6329 36.739 77.7018C36.4888 77.1416 36.7401 76.4845 37.3003 76.2343C37.4477 76.1685 37.6012 76.1374 37.7528 76.1374C38.1777 76.1374 38.5834 76.3827 38.7679 76.7958C39.155 77.6627 39.5886 78.5214 40.057 79.348C40.3595 79.8818 40.1717 80.5598 39.6379 80.8623ZM43.0152 86.9854C42.3061 86.2514 41.6241 85.4756 40.9886 84.6796C40.6057 84.2 40.6841 83.5009 41.1634 83.118C41.3683 82.9545 41.613 82.8751 41.8561 82.8751C42.1823 82.8751 42.5057 83.0183 42.725 83.2929C43.3172 84.0345 43.9523 84.7574 44.6132 85.4411C45.0397 85.8825 45.0275 86.5858 44.5863 87.0123C44.145 87.4389 43.4417 87.4265 43.0152 86.9854ZM50.9141 91.7305C50.5937 92.2536 49.9094 92.418 49.3863 92.0974C48.5168 91.5645 47.6626 90.9836 46.8477 90.3709C46.357 90.0023 46.2583 89.3056 46.627 88.8151C46.8455 88.5247 47.1786 88.3716 47.5161 88.3716C47.7486 88.3716 47.983 88.4443 48.183 88.5947C48.9421 89.1654 49.7374 89.7063 50.5475 90.2027C51.0706 90.5231 51.235 91.2074 50.9141 91.7305Z" fill="#330D84"/>
<path d="M56.6624 94.2481C56.4537 94.8252 55.8159 95.1232 55.2397 94.9147C54.8086 94.7587 54.3748 94.5912 53.9513 94.4167C53.3837 94.1832 53.1131 93.5338 53.3464 92.9663C53.5231 92.5372 53.9373 92.2778 54.3744 92.2778C54.5153 92.2778 54.6584 92.3047 54.7966 92.3618C55.1908 92.5241 55.5944 92.6801 55.9955 92.8252C56.5728 93.0338 56.8715 93.6709 56.6624 94.2481Z" fill="#330D84"/>
<path d="M36.3924 73.6659C35.8004 73.8239 35.1909 73.4712 35.0329 72.8783C34.9151 72.4368 34.8053 71.985 34.7062 71.5357C34.5742 70.9363 34.9529 70.3434 35.5522 70.2114C35.6329 70.1937 35.7133 70.1852 35.7924 70.1852C36.3026 70.1852 36.762 70.5388 36.8764 71.0574C36.9686 71.4754 37.0706 71.8957 37.18 72.3061C37.338 72.8992 36.9855 73.5079 36.3924 73.6659Z" fill="#330D84"/>
<path d="M39.6381 80.8623C39.1037 81.1647 38.4259 80.9771 38.1237 80.4431C37.6206 79.5554 37.155 78.6329 36.7392 77.7018C36.489 77.1416 36.7403 76.4845 37.3006 76.2343C37.4479 76.1685 37.6014 76.1374 37.753 76.1374C38.1779 76.1374 38.5837 76.3827 38.7681 76.7958C39.1552 77.6627 39.5888 78.5214 40.0572 79.348C40.3597 79.8818 40.1719 80.5598 39.6381 80.8623ZM43.0154 86.9854C42.3063 86.2514 41.6243 85.4756 40.9888 84.6796C40.6059 84.2 40.6843 83.5009 41.1637 83.118C41.3686 82.9545 41.6132 82.8751 41.8563 82.8751C42.1826 82.8751 42.5059 83.0183 42.7252 83.2929C43.3174 84.0345 43.9526 84.7574 44.6134 85.4411C45.0399 85.8825 45.0277 86.5858 44.5866 87.0123C44.1452 87.4389 43.4419 87.4265 43.0154 86.9854ZM50.9143 91.7305C50.5939 92.2536 49.9097 92.418 49.3866 92.0974C48.517 91.5645 47.6628 90.9836 46.8479 90.3709C46.3572 90.0023 46.2586 89.3056 46.6272 88.8151C46.8457 88.5247 47.1788 88.3716 47.5163 88.3716C47.7488 88.3716 47.9832 88.4443 48.1832 88.5947C48.9423 89.1654 49.7377 89.7063 50.5477 90.2027C51.0708 90.5231 51.2352 91.2074 50.9143 91.7305Z" fill="#330D84"/>
<path d="M56.6624 94.2481C56.4537 94.8252 55.8159 95.1232 55.2397 94.9147C54.8086 94.7587 54.3748 94.5912 53.9513 94.4167C53.3837 94.1832 53.1131 93.5338 53.3464 92.9663C53.5231 92.5372 53.9373 92.2778 54.3744 92.2778C54.5153 92.2778 54.6584 92.3047 54.7966 92.3618C55.1908 92.5241 55.5944 92.6801 55.9955 92.8252C56.5728 93.0338 56.8715 93.6709 56.6624 94.2481Z" fill="#330D84"/>
<path d="M57.0612 35.9255C56.6557 36.0551 56.2465 36.1957 55.8454 36.3433C55.2683 36.5551 54.6305 36.26 54.419 35.684C54.2072 35.1082 54.5023 34.4695 55.0781 34.2575C55.5094 34.0988 55.9488 33.948 56.3845 33.8086C56.4972 33.7726 56.6112 33.7555 56.723 33.7555C57.1934 33.7555 57.6303 34.0566 57.7812 34.5286C57.9681 35.1133 57.6457 35.7386 57.0612 35.9255Z" fill="#330D84"/>
<path d="M40.6445 48.7733C40.3218 49.2953 39.6373 49.457 39.1151 49.1346C38.5929 48.8122 38.4313 48.1273 38.7538 47.6053C39.2213 46.8488 39.7276 46.101 40.2585 45.3828C40.4765 45.0882 40.8125 44.9324 41.1527 44.9324C41.3822 44.9324 41.6138 45.0033 41.8125 45.1502C42.306 45.515 42.41 46.2108 42.0453 46.7042C41.5509 47.373 41.0793 48.0693 40.6445 48.7733ZM52.048 38.0497C51.3169 38.4415 50.5929 38.8693 49.8965 39.3208C49.3818 39.6546 48.6938 39.5079 48.3596 38.993C48.0258 38.4782 48.1725 37.7902 48.6873 37.4562C49.4356 36.9708 50.2131 36.5117 50.9985 36.0906C51.1653 36.001 51.3451 35.9586 51.5222 35.9586C51.9185 35.9586 52.3022 36.1713 52.5025 36.545C52.7922 37.0866 52.5889 37.7599 52.048 38.0497ZM44.7465 43.5348C44.3171 43.9735 43.6136 43.9806 43.1753 43.5517C42.7367 43.1224 42.7291 42.419 43.1585 41.9804C43.782 41.3433 44.4398 40.7248 45.1131 40.1419C45.3233 39.9602 45.582 39.871 45.8398 39.871C46.1509 39.871 46.4607 40.001 46.6802 40.255C47.082 40.719 47.0313 41.4208 46.5673 41.8224C45.94 42.3653 45.3276 42.9415 44.7465 43.5348Z" fill="#330D84"/>
<path d="M38.7049 52.4601C38.5325 52.8524 38.3665 53.2521 38.2125 53.6479C37.9896 54.2197 37.346 54.5026 36.7736 54.2799C36.202 54.0572 35.9189 53.413 36.1416 52.8412C36.3074 52.4161 36.4853 51.9868 36.6705 51.5657C36.8536 51.1495 37.2609 50.9017 37.6882 50.9017C37.8376 50.9017 37.9893 50.9321 38.1349 50.9959C38.6969 51.2426 38.9518 51.8984 38.7049 52.4601Z" fill="#330D84"/>
<path d="M95.529 53.8677C94.9597 54.0988 94.3123 53.8248 94.0814 53.2563C93.9203 52.8597 93.7492 52.4623 93.5723 52.0759C93.3174 51.5177 93.563 50.8586 94.121 50.6035C94.2708 50.535 94.4279 50.5026 94.5823 50.5026C95.0039 50.5026 95.4068 50.7437 95.5937 51.1521C95.7834 51.5675 95.9674 51.9941 96.1406 52.4203C96.3714 52.9886 96.0977 53.6368 95.529 53.8677Z" fill="#330D84"/>
<path d="M81.4469 38.6372C80.6956 38.195 79.9156 37.7808 79.1289 37.4061C78.5749 37.1421 78.3398 36.4792 78.6038 35.9252C78.794 35.5254 79.1923 35.2917 79.6078 35.2917C79.7678 35.2917 79.9305 35.3263 80.0847 35.3999C80.9296 35.8023 81.7669 36.2472 82.574 36.7221C83.1029 37.0332 83.2794 37.7143 82.968 38.2432C82.6567 38.7721 81.9765 38.9488 81.4469 38.6372ZM93.0054 48.5701C92.4902 48.9039 91.8025 48.7563 91.4687 48.2414C90.9954 47.5106 90.4834 46.7906 89.9469 46.1021C89.5698 45.6181 89.6565 44.9199 90.1405 44.5428C90.3434 44.3848 90.5838 44.3081 90.8225 44.3081C91.1534 44.3081 91.4809 44.4552 91.6998 44.7363C92.2758 45.4754 92.8254 46.2483 93.334 47.0334C93.6678 47.5488 93.5207 48.2366 93.0054 48.5701ZM87.0167 42.8557C86.3869 42.2521 85.7234 41.6692 85.0443 41.1232C84.566 40.7388 84.49 40.0392 84.8745 39.561C85.0938 39.2881 85.4163 39.1461 85.7411 39.1461C85.9856 39.1461 86.2316 39.2263 86.4367 39.3914C87.1658 39.9777 87.8783 40.6034 88.5545 41.2514C88.9974 41.6761 89.0125 42.3794 88.5876 42.8226C88.1631 43.2652 87.46 43.2803 87.0167 42.8557Z" fill="#330D84"/>
<path d="M76.44 35.0834C76.2598 35.6703 75.6378 35.9994 75.0518 35.8199C74.6449 35.695 74.2287 35.577 73.8152 35.4694C73.2212 35.315 72.8652 34.7081 73.0196 34.1143C73.1498 33.6141 73.6003 33.2828 74.0943 33.2828C74.1867 33.2828 74.2809 33.2946 74.3747 33.3188C74.8194 33.4346 75.2665 33.561 75.704 33.6954C76.2905 33.8752 76.62 34.4968 76.44 35.0834Z" fill="#330D84"/>
<path d="M78.3334 64.2224H75.2223C74.6086 64.2224 74.1111 63.7249 74.1111 63.1113C74.1111 62.4976 74.6086 62.0002 75.2223 62.0002H78.3334C78.947 62.0002 79.4445 62.4976 79.4445 63.1113C79.4445 63.7249 78.947 64.2224 78.3334 64.2224Z" fill="#330D84"/>
<path d="M82.1112 64.2224H81.4445C80.8309 64.2224 80.3334 63.725 80.3334 63.1113C80.3334 62.4977 80.8309 62.0002 81.4445 62.0002H82.1112C82.7249 62.0002 83.2223 62.4977 83.2223 63.1113C83.2223 63.725 82.7249 64.2224 82.1112 64.2224Z" fill="#330D84"/>
<path d="M87.889 64.2224H85.2223C84.6087 64.2224 84.1112 63.725 84.1112 63.1113C84.1112 62.4977 84.6087 62.0002 85.2223 62.0002H87.889C88.5026 62.0002 89.0001 62.4977 89.0001 63.1113C89.0001 63.725 88.5026 64.2224 87.889 64.2224Z" fill="#330D84"/>
<path d="M47.2222 64.2224H44.1111C43.4975 64.2224 43 63.7249 43 63.1113C43 62.4976 43.4975 62.0002 44.1111 62.0002H47.2223C47.8359 62.0002 48.3334 62.4976 48.3334 63.1113C48.3334 63.7249 47.8359 64.2224 47.2222 64.2224Z" fill="#330D84"/>
<path d="M51 64.2224H50.3334C49.7197 64.2224 49.2223 63.725 49.2223 63.1113C49.2223 62.4977 49.7197 62.0002 50.3334 62.0002H51C51.6137 62.0002 52.1111 62.4977 52.1111 63.1113C52.1111 63.725 51.6137 64.2224 51 64.2224Z" fill="#330D84"/>
<path d="M56.7778 64.2224H54.1111C53.4975 64.2224 53 63.725 53 63.1113C53 62.4977 53.4975 62.0002 54.1111 62.0002H56.7778C57.3915 62.0002 57.8889 62.4977 57.8889 63.1113C57.8889 63.725 57.3915 64.2224 56.7778 64.2224Z" fill="#330D84"/>
<path d="M66.8889 50.8891L66.8889 54.0002C66.8889 54.6139 66.3915 55.1113 65.7778 55.1113C65.1642 55.1113 64.6667 54.6139 64.6667 54.0002L64.6667 50.8891C64.6667 50.2755 65.1642 49.778 65.7778 49.778C66.3915 49.778 66.8889 50.2755 66.8889 50.8891Z" fill="#330D84"/>
<path d="M66.8889 47.1114L66.8889 47.778C66.8889 48.3917 66.3914 48.8892 65.7778 48.8892C65.1641 48.8892 64.6667 48.3917 64.6667 47.778L64.6667 47.1114C64.6667 46.4977 65.1641 46.0003 65.7778 46.0003C66.3914 46.0003 66.8889 46.4977 66.8889 47.1114Z" fill="#330D84"/>
<path d="M66.8889 41.3336L66.8889 44.0002C66.8889 44.6139 66.3914 45.1113 65.7778 45.1113C65.1641 45.1113 64.6667 44.6139 64.6667 44.0002L64.6667 41.3336C64.6667 40.7199 65.1641 40.2224 65.7778 40.2224C66.3914 40.2224 66.8889 40.7199 66.8889 41.3336Z" fill="#330D84"/>
<path d="M66.8889 83.3334L66.8889 86.4446C66.8889 87.0582 66.3915 87.5557 65.7778 87.5557C65.1642 87.5557 64.6667 87.0582 64.6667 86.4446L64.6667 83.3334C64.6667 82.7198 65.1642 82.2223 65.7778 82.2223C66.3915 82.2223 66.8889 82.7198 66.8889 83.3334Z" fill="#330D84"/>
<path d="M66.8889 79.5557L66.8889 80.2224C66.8889 80.836 66.3914 81.3335 65.7778 81.3335C65.1641 81.3335 64.6667 80.836 64.6667 80.2224L64.6667 79.5557C64.6667 78.9421 65.1641 78.4446 65.7778 78.4446C66.3914 78.4446 66.8889 78.9421 66.8889 79.5557Z" fill="#330D84"/>
<path d="M66.8889 73.7779L66.8889 76.4446C66.8889 77.0582 66.3914 77.5557 65.7778 77.5557C65.1641 77.5557 64.6667 77.0582 64.6667 76.4446L64.6667 73.7779C64.6667 73.1642 65.1641 72.6668 65.7778 72.6668C66.3914 72.6668 66.8889 73.1642 66.8889 73.7779Z" fill="#330D84"/>
<path d="M67.1123 70.5579H61.3495C60.6403 70.5579 60.0651 69.9829 60.0651 69.2738V57.9511C60.0651 57.2418 60.6403 56.6669 61.3495 56.6669H69.8942C70.6033 56.6669 71.1782 57.2418 71.1782 57.9511V66.4921L67.1123 70.5579Z" fill="#330D84"/>
<path d="M67.1123 70.5579V67.7762C67.1123 67.0669 67.6873 66.4921 68.3964 66.4921H71.1782L67.1123 70.5579Z" fill="#6857E5"/>
<path d="M65.0061 68.5237H61.808C61.5538 68.5237 61.3476 68.3176 61.3476 68.0632C61.3476 67.8089 61.5538 67.6028 61.808 67.6028H65.0061C65.2604 67.6028 65.4666 67.8089 65.4666 68.0632C65.4666 68.3176 65.2604 68.5237 65.0061 68.5237Z" fill="white"/>
<path d="M66.2363 66.6045H61.808C61.5538 66.6045 61.3476 66.3984 61.3476 66.144C61.3476 65.8897 61.5538 65.6836 61.808 65.6836H66.2363C66.4905 65.6836 66.6967 65.8897 66.6967 66.144C66.6967 66.3984 66.4906 66.6045 66.2363 66.6045Z" fill="white"/>
<path d="M69.0042 64.6855H61.808C61.5538 64.6855 61.3476 64.4794 61.3476 64.2251C61.3476 63.9707 61.5538 63.7646 61.808 63.7646H69.0042C69.2585 63.7646 69.4647 63.9707 69.4647 64.2251C69.4647 64.4794 69.2585 64.6855 69.0042 64.6855Z" fill="white"/>
<path d="M69.0042 62.7666H61.808C61.5538 62.7666 61.3476 62.5605 61.3476 62.3061C61.3476 62.0518 61.5538 61.8457 61.808 61.8457H69.0042C69.2585 61.8457 69.4647 62.0518 69.4647 62.3061C69.4647 62.5604 69.2585 62.7666 69.0042 62.7666Z" fill="white"/>
<path d="M69.0042 60.8477H61.808C61.5538 60.8477 61.3476 60.6416 61.3476 60.3872C61.3476 60.1329 61.5538 59.9268 61.808 59.9268H69.0042C69.2585 59.9268 69.4647 60.1329 69.4647 60.3872C69.4647 60.6416 69.2585 60.8477 69.0042 60.8477Z" fill="white"/>
<path d="M69.0042 58.9287H61.808C61.5538 58.9287 61.3476 58.7226 61.3476 58.4683C61.3476 58.2139 61.5538 58.0078 61.808 58.0078H69.0042C69.2585 58.0078 69.4647 58.2139 69.4647 58.4683C69.4647 58.7226 69.2585 58.9287 69.0042 58.9287Z" fill="white"/>
<path d="M66.5701 38.2222H62.5604C62.0669 38.2222 61.6667 37.8221 61.6667 37.3287V29.4504C61.6667 28.9569 62.0669 28.5568 62.5604 28.5568H68.5058C68.9991 28.5568 69.3992 28.9569 69.3992 29.4504V35.3931L66.5701 38.2222Z" fill="#5D8EF9"/>
<path d="M66.5699 38.2222V36.2867C66.5699 35.7932 66.97 35.3931 67.4634 35.3931H69.399L66.5699 38.2222Z" fill="#8AC9F9"/>
<path d="M65.105 36.8071H62.8797C62.7028 36.8071 62.5593 36.6637 62.5593 36.4867C62.5593 36.3098 62.7028 36.1664 62.8797 36.1664H65.105C65.2819 36.1664 65.4253 36.3098 65.4253 36.4867C65.4253 36.6637 65.2819 36.8071 65.105 36.8071Z" fill="white"/>
<path d="M65.9609 35.4717H62.8797C62.7028 35.4717 62.5593 35.3283 62.5593 35.1513C62.5593 34.9743 62.7028 34.8309 62.8797 34.8309H65.9609C66.1378 34.8309 66.2813 34.9743 66.2813 35.1513C66.2813 35.3282 66.1378 35.4717 65.9609 35.4717Z" fill="white"/>
<path d="M67.8868 34.1365H62.8797C62.7028 34.1365 62.5593 33.9931 62.5593 33.8162C62.5593 33.6391 62.7028 33.4958 62.8797 33.4958H67.8868C68.0637 33.4958 68.2072 33.6391 68.2072 33.8162C68.2072 33.9931 68.0638 34.1365 67.8868 34.1365Z" fill="white"/>
<path d="M67.8868 32.8013H62.8797C62.7028 32.8013 62.5593 32.6579 62.5593 32.4809C62.5593 32.3039 62.7028 32.1605 62.8797 32.1605H67.8868C68.0637 32.1605 68.2072 32.3039 68.2072 32.4809C68.2072 32.6579 68.0638 32.8013 67.8868 32.8013Z" fill="white"/>
<path d="M67.8868 31.4661H62.8797C62.7028 31.4661 62.5593 31.3227 62.5593 31.1457C62.5593 30.9688 62.7028 30.8253 62.8797 30.8253H67.8868C68.0637 30.8253 68.2072 30.9688 68.2072 31.1457C68.2072 31.3227 68.0638 31.4661 67.8868 31.4661Z" fill="white"/>
<path d="M67.8868 30.1306H62.8797C62.7028 30.1306 62.5593 29.9872 62.5593 29.8102C62.5593 29.6333 62.7028 29.4898 62.8797 29.4898H67.8868C68.0637 29.4898 68.2072 29.6333 68.2072 29.8102C68.2072 29.9872 68.0638 30.1306 67.8868 30.1306Z" fill="white"/>
<path d="M66.5701 100.222H62.5604C62.0669 100.222 61.6667 99.8216 61.6667 99.3282V91.4499C61.6667 90.9564 62.0669 90.5563 62.5604 90.5563H68.5058C68.9991 90.5563 69.3992 90.9564 69.3992 91.4499V97.3926L66.5701 100.222Z" fill="#5D8EF9"/>
<path d="M66.5699 100.222V98.2867C66.5699 97.7932 66.97 97.3931 67.4634 97.3931H69.399L66.5699 100.222Z" fill="#8AC9F9"/>
<path d="M65.105 98.8071H62.8797C62.7028 98.8071 62.5593 98.6637 62.5593 98.4867C62.5593 98.3098 62.7028 98.1664 62.8797 98.1664H65.105C65.2819 98.1664 65.4253 98.3098 65.4253 98.4867C65.4253 98.6637 65.2819 98.8071 65.105 98.8071Z" fill="white"/>
<path d="M65.9609 97.4717H62.8797C62.7028 97.4717 62.5593 97.3283 62.5593 97.1513C62.5593 96.9743 62.7028 96.8309 62.8797 96.8309H65.9609C66.1378 96.8309 66.2813 96.9743 66.2813 97.1513C66.2813 97.3282 66.1378 97.4717 65.9609 97.4717Z" fill="white"/>
<path d="M67.8868 96.1365H62.8797C62.7028 96.1365 62.5593 95.9931 62.5593 95.8162C62.5593 95.6391 62.7028 95.4958 62.8797 95.4958H67.8868C68.0637 95.4958 68.2072 95.6391 68.2072 95.8162C68.2072 95.9931 68.0638 96.1365 67.8868 96.1365Z" fill="white"/>
<path d="M67.8868 94.8013H62.8797C62.7028 94.8013 62.5593 94.6579 62.5593 94.4809C62.5593 94.3039 62.7028 94.1605 62.8797 94.1605H67.8868C68.0637 94.1605 68.2072 94.3039 68.2072 94.4809C68.2072 94.6579 68.0638 94.8013 67.8868 94.8013Z" fill="white"/>
<path d="M67.8868 93.4658H62.8797C62.7028 93.4658 62.5593 93.3225 62.5593 93.1454C62.5593 92.9685 62.7028 92.8251 62.8797 92.8251H67.8868C68.0637 92.8251 68.2072 92.9685 68.2072 93.1454C68.2072 93.3225 68.0638 93.4658 67.8868 93.4658Z" fill="white"/>
<path d="M67.8868 92.1306H62.8797C62.7028 92.1306 62.5593 91.9872 62.5593 91.8102C62.5593 91.6333 62.7028 91.4899 62.8797 91.4899H67.8868C68.0637 91.4899 68.2072 91.6333 68.2072 91.8102C68.2072 91.9872 68.0638 92.1306 67.8868 92.1306Z" fill="white"/>
<path d="M98.1257 67.1108H94.1159C93.6225 67.1108 93.2223 66.7108 93.2223 66.2174V58.339C93.2223 57.8455 93.6225 57.4455 94.1159 57.4455H100.061C100.555 57.4455 100.955 57.8455 100.955 58.339V64.2818L98.1257 67.1108Z" fill="#5D8EF9"/>
<path d="M98.1254 67.1111V65.1756C98.1254 64.6821 98.5255 64.282 99.0188 64.282H100.954L98.1254 67.1111Z" fill="#8AC9F9"/>
<path d="M96.6604 65.6958H94.4351C94.2582 65.6958 94.1147 65.5524 94.1147 65.3754C94.1147 65.1984 94.2582 65.055 94.4351 65.055H96.6604C96.8373 65.055 96.9807 65.1984 96.9807 65.3754C96.9807 65.5523 96.8373 65.6958 96.6604 65.6958Z" fill="white"/>
<path d="M97.5163 64.3608H94.4351C94.2582 64.3608 94.1147 64.2174 94.1147 64.0405C94.1147 63.8635 94.2582 63.7201 94.4351 63.7201H97.5163C97.6932 63.7201 97.8367 63.8635 97.8367 64.0405C97.8367 64.2174 97.6932 64.3608 97.5163 64.3608Z" fill="white"/>
<path d="M99.4422 63.0254H94.4351C94.2582 63.0254 94.1147 62.882 94.1147 62.7051C94.1147 62.528 94.2582 62.3847 94.4351 62.3847H99.4422C99.6191 62.3847 99.7626 62.528 99.7626 62.7051C99.7626 62.882 99.6192 63.0254 99.4422 63.0254Z" fill="white"/>
<path d="M99.4422 61.6899H94.4351C94.2582 61.6899 94.1147 61.5465 94.1147 61.3696C94.1147 61.1926 94.2582 61.0492 94.4351 61.0492H99.4422C99.6191 61.0492 99.7626 61.1926 99.7626 61.3696C99.7626 61.5465 99.6192 61.6899 99.4422 61.6899Z" fill="white"/>
<path d="M99.4422 60.3547H94.4351C94.2582 60.3547 94.1147 60.2114 94.1147 60.0344C94.1147 59.8574 94.2582 59.714 94.4351 59.714H99.4422C99.6191 59.714 99.7626 59.8574 99.7626 60.0344C99.7626 60.2114 99.6192 60.3547 99.4422 60.3547Z" fill="white"/>
<path d="M99.4422 59.0195H94.4351C94.2582 59.0195 94.1147 58.8761 94.1147 58.6991C94.1147 58.5222 94.2582 58.3788 94.4351 58.3788H99.4422C99.6191 58.3788 99.7626 58.5222 99.7626 58.6991C99.7626 58.8761 99.6192 59.0195 99.4422 59.0195Z" fill="white"/>
<path d="M35.9034 67.1108H31.8937C31.4002 67.1108 31 66.7108 31 66.2174V58.339C31 57.8455 31.4002 57.4455 31.8937 57.4455H37.8391C38.3325 57.4455 38.7325 57.8455 38.7325 58.339V64.2818L35.9034 67.1108Z" fill="#5D8EF9"/>
<path d="M35.9032 67.1111V65.1756C35.9032 64.6821 36.3033 64.282 36.7966 64.282H38.7323L35.9032 67.1111Z" fill="#8AC9F9"/>
<path d="M34.4382 65.6958H32.213C32.0361 65.6958 31.8926 65.5524 31.8926 65.3754C31.8926 65.1984 32.0361 65.055 32.213 65.055H34.4382C34.6152 65.055 34.7586 65.1984 34.7586 65.3754C34.7586 65.5523 34.6152 65.6958 34.4382 65.6958Z" fill="white"/>
<path d="M35.2942 64.3608H32.213C32.0361 64.3608 31.8926 64.2174 31.8926 64.0405C31.8926 63.8635 32.0361 63.7201 32.213 63.7201H35.2942C35.4711 63.7201 35.6145 63.8635 35.6145 64.0405C35.6145 64.2174 35.4711 64.3608 35.2942 64.3608Z" fill="white"/>
<path d="M37.2201 63.0254H32.213C32.0361 63.0254 31.8926 62.882 31.8926 62.7051C31.8926 62.528 32.0361 62.3847 32.213 62.3847H37.2201C37.397 62.3847 37.5405 62.528 37.5405 62.7051C37.5405 62.882 37.3971 63.0254 37.2201 63.0254Z" fill="white"/>
<path d="M37.2201 61.6899H32.213C32.0361 61.6899 31.8926 61.5465 31.8926 61.3696C31.8926 61.1926 32.0361 61.0492 32.213 61.0492H37.2201C37.397 61.0492 37.5405 61.1926 37.5405 61.3696C37.5405 61.5465 37.3971 61.6899 37.2201 61.6899Z" fill="white"/>
<path d="M37.2201 60.3547H32.213C32.0361 60.3547 31.8926 60.2114 31.8926 60.0344C31.8926 59.8574 32.0361 59.714 32.213 59.714H37.2201C37.397 59.714 37.5405 59.8574 37.5405 60.0344C37.5405 60.2114 37.3971 60.3547 37.2201 60.3547Z" fill="white"/>
<path d="M37.2201 59.0195H32.213C32.0361 59.0195 31.8926 58.8761 31.8926 58.6991C31.8926 58.5222 32.0361 58.3788 32.213 58.3788H37.2201C37.397 58.3788 37.5405 58.5222 37.5405 58.6991C37.5405 58.8761 37.3971 59.0195 37.2201 59.0195Z" fill="white"/>
<path d="M53.1122 30.5483C51.1547 31.0383 49.6265 32.5668 49.1369 34.5243L49.0516 34.8577L48.9676 34.5243C48.4787 32.5668 46.95 31.0383 44.9909 30.5483L44.6573 30.4637L44.9909 30.3799C46.9498 29.8908 48.4785 28.3615 48.9676 26.4041L49.0516 26.0699L49.1369 26.4041C49.6262 28.3617 51.1547 29.8908 53.1122 30.3799L53.4474 30.4637L53.1122 30.5483Z" fill="#FFBE1B"/>
<path d="M53.1999 76.867C51.7527 77.2292 50.6227 78.3599 50.2599 79.807L50.199 80.0532L50.1361 79.807C49.7741 78.3599 48.6443 77.2292 47.1963 76.867L46.9499 76.8052L47.1963 76.7426C48.6443 76.3803 49.7741 75.2506 50.1361 73.8032L50.199 73.5561L50.2599 73.8032C50.6227 75.2506 51.7527 76.3803 53.1999 76.7426L53.447 76.8052L53.1999 76.867Z" fill="#5D8EF9"/>
<path d="M58.7616 81.8033C57.8325 82.0361 57.1068 82.7621 56.8728 83.6924L56.8339 83.8506L56.793 83.6924C56.5603 82.7621 55.8345 82.0361 54.9043 81.8033L54.7461 81.7635L54.9043 81.7228C55.8345 81.4901 56.5603 80.7639 56.793 79.8348L56.8339 79.6757L56.8728 79.8348C57.1068 80.7641 57.8325 81.4901 58.7616 81.7228L58.921 81.7635L58.7616 81.8033Z" fill="#5D8EF9"/>
<path d="M92.9553 94.5384C90.8178 95.0742 89.1491 96.744 88.6131 98.8815L88.5209 99.2473L88.4305 98.8815C87.8947 96.744 86.2238 95.0742 84.0865 94.5384L83.7222 94.4471L84.0865 94.3558C86.2238 93.8209 87.8947 92.1502 88.4305 90.0124L88.5209 89.6478L88.6131 90.0124C89.1491 92.1502 90.8178 93.8209 92.9553 94.3558L93.3211 94.4471L92.9553 94.5384Z" fill="#330D84"/>
<path d="M100.12 87.692C98.7626 88.0323 97.7046 89.0909 97.3629 90.4476L97.3051 90.6787L97.2475 90.4476C96.9075 89.0909 95.8477 88.0323 94.4906 87.692L94.2604 87.6345L94.4906 87.5752C95.8477 87.2358 96.9075 86.1769 97.2475 84.8196L97.3051 84.5885L97.3629 84.8196C97.7046 86.1769 98.7626 87.2356 100.12 87.5752L100.35 87.6345L100.12 87.692Z" fill="#330D84"/>
</g>
<path d="M64.9997 0.253906C29.2987 0.253906 0.253906 29.299 0.253906 65.0008C0.253906 100.701 29.2987 129.746 64.9997 129.746C100.701 129.746 129.746 100.701 129.746 65.0008C129.746 29.299 100.701 0.253906 64.9997 0.253906ZM64.9997 127.671C30.4423 127.671 2.32807 99.5566 2.32807 65.0008C2.32807 30.4426 30.4423 2.32832 64.9997 2.32832C99.5571 2.32832 127.672 30.4429 127.672 65.0008C127.672 99.5569 99.5571 127.671 64.9997 127.671Z" fill="#6F3ABE"/>
<defs>
<clipPath id="clip0">
<rect width="70" height="74.2222" fill="white" transform="matrix(1 0 0 -1 31 100.222)"/>
</clipPath>
</defs>
</svg>
