<svg width="130" height="130" viewBox="0 0 130 130" fill="none" xmlns="http://www.w3.org/2000/svg">
<path d="M65.0002 10.3921C34.8417 10.3921 10.3926 34.8415 10.3926 65.0007C10.3926 95.1579 34.8417 119.608 65.0002 119.608C95.1587 119.608 119.608 95.1579 119.608 65.0007C119.608 34.8415 95.1587 10.3921 65.0002 10.3921Z" fill="#EDF3FC"/>
<path d="M64.9997 0.253906C29.2987 0.253906 0.253906 29.299 0.253906 65.0008C0.253906 100.701 29.2987 129.746 64.9997 129.746C100.701 129.746 129.746 100.701 129.746 65.0008C129.746 29.299 100.701 0.253906 64.9997 0.253906ZM64.9997 127.671C30.4423 127.671 2.32807 99.5566 2.32807 65.0008C2.32807 30.4426 30.4423 2.32832 64.9997 2.32832C99.5571 2.32832 127.672 30.4429 127.672 65.0008C127.672 99.5569 99.5571 127.671 64.9997 127.671Z" fill="#6F3ABE"/>
<path d="M34.3066 62.3792C32.2179 61.8562 30.5869 60.2249 30.0637 58.1362L29.9741 57.7803L29.8847 58.1362C29.3615 60.2249 27.7302 61.8564 25.6415 62.3792L25.2852 62.4692L25.6415 62.5584C27.7302 63.0814 29.3617 64.7126 29.8847 66.8013L29.9741 67.1581L30.0637 66.8013C30.5871 64.7126 32.2179 63.0814 34.3066 62.5584L34.6636 62.4692L34.3066 62.3792Z" fill="#FFBE1B"/>
<path d="M64.0615 79.966C62.3949 79.5484 61.0939 78.2469 60.6758 76.5805L60.6049 76.2961L60.5331 76.5805C60.1156 78.2469 58.814 79.5484 57.1474 79.966L56.8632 80.038L57.1474 80.1098C58.814 80.5264 60.1156 81.8282 60.5331 83.494L60.6049 83.7788L60.6758 83.494C61.0939 81.8282 62.3949 80.5264 64.0615 80.1098L64.3461 80.038L64.0615 79.966Z" fill="#5D8EF9"/>
<path d="M97.2275 63.701C95.841 63.3535 94.7582 62.2716 94.4106 60.8848L94.3515 60.6482L94.2916 60.8848C93.9444 62.2714 92.8616 63.3535 91.4746 63.701L91.2384 63.7609L91.4746 63.8209C92.8616 64.1678 93.9444 65.2508 94.2916 66.6377L94.3515 66.8743L94.4106 66.6377C94.7582 65.251 95.841 64.1678 97.2275 63.8209L97.4644 63.7609L97.2275 63.701Z" fill="#330D84"/>
<path d="M103.703 69.345C101.958 68.9079 100.596 67.5461 100.158 65.8014L100.084 65.5037L100.009 65.8014C99.572 67.5463 98.2093 68.9079 96.4641 69.345L96.1669 69.4202L96.4641 69.4959C98.2093 69.9323 99.572 71.295 100.009 73.0401L100.084 73.3378L100.158 73.0401C100.596 71.295 101.958 69.9323 103.703 69.4959L104.001 69.4202L103.703 69.345Z" fill="#330D84"/>
<path d="M53.2162 34.8767H40.5605C39.0031 34.8767 37.7399 36.1393 37.7399 37.6967V62.5624C37.7399 64.1201 39.0031 65.3827 40.5605 65.3827H59.3255C60.8827 65.3827 62.1453 64.1201 62.1453 62.5624V43.8056L53.2162 34.8767Z" fill="#330D84"/>
<path d="M53.2165 34.8767V40.9855C53.2165 42.5432 54.4792 43.8056 56.0363 43.8056H62.1455L53.2165 34.8767Z" fill="#6857E5"/>
<path d="M48.5909 39.3433H41.5675C41.0091 39.3433 40.5563 39.7959 40.5563 40.3545C40.5563 40.913 41.0091 41.3657 41.5675 41.3657H48.5909C49.1492 41.3657 49.6021 40.913 49.6021 40.3545C49.6021 39.7959 49.1492 39.3433 48.5909 39.3433Z" fill="white"/>
<path d="M51.2924 43.5579H41.5675C41.0091 43.5579 40.5563 44.0105 40.5563 44.5691C40.5563 45.1276 41.0091 45.5803 41.5675 45.5803H51.2924C51.8508 45.5803 52.3036 45.1276 52.3036 44.5691C52.3036 44.0105 51.851 43.5579 51.2924 43.5579Z" fill="white"/>
<path d="M57.3711 47.7722H41.5675C41.0091 47.7722 40.5563 48.2248 40.5563 48.7834C40.5563 49.342 41.0091 49.7946 41.5675 49.7946H57.3711C57.9295 49.7946 58.3823 49.342 58.3823 48.7834C58.3823 48.225 57.9295 47.7722 57.3711 47.7722Z" fill="white"/>
<path d="M57.3711 51.9863H41.5675C41.0091 51.9863 40.5563 52.4389 40.5563 52.9975C40.5563 53.5561 41.0091 54.0087 41.5675 54.0087H57.3711C57.9295 54.0087 58.3823 53.5561 58.3823 52.9975C58.3823 52.4391 57.9295 51.9863 57.3711 51.9863Z" fill="white"/>
<path d="M57.3711 56.2009H41.5675C41.0091 56.2009 40.5563 56.6535 40.5563 57.2121C40.5563 57.7707 41.0091 58.2233 41.5675 58.2233H57.3711C57.9295 58.2233 58.3823 57.7707 58.3823 57.2121C58.3823 56.6535 57.9295 56.2009 57.3711 56.2009Z" fill="white"/>
<path d="M57.3711 60.4153H41.5675C41.0091 60.4153 40.5563 60.8679 40.5563 61.4265C40.5563 61.9851 41.0091 62.4377 41.5675 62.4377H57.3711C57.9295 62.4377 58.3823 61.9851 58.3823 61.4265C58.3823 60.8679 57.9295 60.4153 57.3711 60.4153Z" fill="white"/>
<path d="M84.0811 64.7847H71.4254C69.8679 64.7847 68.6047 66.0472 68.6047 67.6047V92.4704C68.6047 94.028 69.8679 95.2906 71.4254 95.2906H90.1903C91.7476 95.2906 93.0101 94.028 93.0101 92.4704V73.7137L84.0811 64.7847Z" fill="#5D8EF9"/>
<path d="M84.0803 64.7847V70.8935C84.0803 72.4509 85.3431 73.7137 86.9001 73.7137H93.0094L84.0803 64.7847Z" fill="#8AC9F9"/>
<path d="M79.4567 69.2512H72.4333C71.8749 69.2512 71.4221 69.7038 71.4221 70.2624C71.4221 70.821 71.8749 71.2736 72.4333 71.2736H79.4567C80.0151 71.2736 80.4679 70.821 80.4679 70.2624C80.4679 69.704 80.0151 69.2512 79.4567 69.2512Z" fill="white"/>
<path d="M82.1582 73.4656H72.4333C71.8749 73.4656 71.4221 73.9182 71.4221 74.4768C71.4221 75.0354 71.8749 75.488 72.4333 75.488H82.1582C82.7166 75.488 83.1694 75.0354 83.1694 74.4768C83.1694 73.9184 82.7166 73.4656 82.1582 73.4656Z" fill="white"/>
<path d="M88.2369 77.6802H72.4333C71.8749 77.6802 71.4221 78.1328 71.4221 78.6912C71.4221 79.25 71.8749 79.7024 72.4333 79.7024H88.2369C88.7953 79.7024 89.2481 79.25 89.2481 78.6912C89.2481 78.1328 88.7955 77.6802 88.2369 77.6802Z" fill="white"/>
<path d="M88.2369 81.8943H72.4333C71.8749 81.8943 71.4221 82.3469 71.4221 82.9055C71.4221 83.4641 71.8749 83.9167 72.4333 83.9167H88.2369C88.7953 83.9167 89.2481 83.4641 89.2481 82.9055C89.2481 82.3469 88.7955 81.8943 88.2369 81.8943Z" fill="white"/>
<path d="M88.2369 86.1091H72.4333C71.8749 86.1091 71.4221 86.5615 71.4221 87.1203C71.4221 87.6787 71.8749 88.1315 72.4333 88.1315H88.2369C88.7953 88.1315 89.2481 87.6787 89.2481 87.1203C89.2481 86.5615 88.7955 86.1091 88.2369 86.1091Z" fill="white"/>
<path d="M88.2369 90.3232H72.4333C71.8749 90.3232 71.4221 90.7759 71.4221 91.3344C71.4221 91.893 71.8749 92.3456 72.4333 92.3456H88.2369C88.7953 92.3456 89.2481 91.893 89.2481 91.3344C89.2481 90.7759 88.7955 90.3232 88.2369 90.3232Z" fill="white"/>
<path d="M93.924 52.3622C93.4255 52.1111 92.8172 52.3117 92.566 52.8104L90.6663 56.5803C89.206 51.1696 86.0658 46.2819 81.7057 42.6839C76.8542 38.6802 70.712 36.4753 64.4106 36.4753C63.8523 36.4753 63.3994 36.928 63.3994 37.4865C63.3994 38.0451 63.8523 38.4977 64.4106 38.4977C75.8604 38.4977 85.889 46.3165 88.7578 57.2734L84.7173 55.3036C84.2149 55.0591 83.6098 55.2676 83.3651 55.7698C83.1204 56.2715 83.3289 56.877 83.8309 57.1219L90.0204 60.1393C90.1632 60.2089 90.314 60.2417 90.4629 60.2417C90.833 60.2417 91.1891 60.0378 91.3667 59.6853L94.3718 53.7209C94.6233 53.2218 94.4227 52.6136 93.924 52.3622Z" fill="#330D84"/>
<path d="M65.1555 89.97C53.7057 89.97 43.6771 82.1512 40.8084 71.1943L44.8489 73.1641C45.3513 73.4087 45.9564 73.2001 46.2011 72.698C46.4458 72.1964 46.2373 71.5907 45.7353 71.3458L39.5458 68.3284C39.403 68.2588 39.2521 68.2261 39.1033 68.2261C38.7332 68.2261 38.377 68.4299 38.1995 68.7824L35.1944 74.7469C34.943 75.2456 35.1436 75.8539 35.6424 76.1051C36.1409 76.3563 36.7492 76.1557 37.0004 75.6569L38.9 71.887C40.3604 77.2979 43.5006 82.1854 47.8606 85.7835C52.7122 89.7872 58.8544 91.992 65.1557 91.992C65.7143 91.992 66.1669 91.5394 66.1669 90.9808C66.1667 90.4226 65.7141 89.97 65.1555 89.97Z" fill="#5D8EF9"/>
</svg>
