<svg width="512" height="512" viewBox="0 0 512 512" fill="none" xmlns="http://www.w3.org/2000/svg">
<path d="M1.53902 256.004C1.53902 115.469 115.465 1.53902 256.002 1.53902C396.53 1.53902 510.461 115.469 510.461 256.004C510.461 396.533 396.53 510.461 256.002 510.461C115.465 510.461 1.53902 396.533 1.53902 256.004Z" stroke="url(#paint0_linear)" stroke-width="1.07805"/>
<path d="M256.002 23C127.317 23 23 127.321 23 256.003C23 384.681 127.317 489 256.002 489C384.678 489 489 384.681 489 256.003C489 127.321 384.678 23 256.002 23Z" fill="url(#paint1_linear)" fill-opacity="0.5"/>
<line x1="108.249" y1="205.567" x2="214.249" y2="266.567" stroke="#5D28AB"/>
<line x1="199.819" y1="409.534" x2="413.819" y2="326.534" stroke="#5D28AB"/>
<line x1="160.539" y1="397.193" x2="87.5389" y2="223.193" stroke="#5D28AB"/>
<line x1="253.215" y1="127.451" x2="121.215" y2="190.451" stroke="#5D28AB"/>
<line x1="336.583" y1="231.276" x2="267.583" y2="127.276" stroke="#5D28AB"/>
<line x1="406.878" y1="312.485" x2="255.878" y2="274.485" stroke="#5D28AB"/>
<line x1="406.549" y1="312.216" x2="372.549" y2="241.216" stroke="#5D28AB"/>
<circle cx="256" cy="106" r="30" fill="white"/>
<path d="M264.573 99.1293C264.164 98.7954 263.62 99.1516 263.382 99.3423C263.46 100.39 263.655 101.188 263.711 101.402C263.731 101.964 263.748 102.469 263.759 102.883C263.873 102.905 263.993 102.905 264.105 102.85C264.48 102.667 264.823 101.193 264.949 100.716C265.074 100.24 265.113 99.5682 264.573 99.1293Z" fill="#FFBE1B"/>
<path d="M247.479 99.1293C246.939 99.5682 246.978 100.24 247.103 100.716C247.228 101.192 247.572 102.667 247.947 102.85C248.322 103.033 248.791 102.643 248.791 102.643V99.4468C248.791 99.4468 248.018 98.6899 247.479 99.1293Z" fill="#FFBE1B"/>
<path d="M259.802 110.089C259.671 109.678 259.603 109.255 259.576 108.848C258.979 109.203 258.393 109.477 257.81 109.747C257.313 109.977 255.497 110.033 254.879 109.745C254.404 109.524 253.783 109.2 253.159 108.834C253.133 109.245 253.065 109.673 252.932 110.089C252.778 110.569 251.818 110.963 250.761 111.354C250.965 111.636 252.924 114.208 256.405 114.208C260.031 114.208 261.904 111.551 262.038 111.354C260.906 110.999 259.983 110.651 259.802 110.089Z" fill="#FFBE1B"/>
<path d="M263.711 101.402C263.636 101.119 263.319 99.8122 263.35 98.2578C263.366 97.4113 263.455 96.4352 263.358 95.8172C263.26 95.1987 262.935 94.1896 262.186 94.1249C262.186 94.1249 258.853 97.8604 251.705 97.391C251.012 97.3453 250.396 97.2358 249.846 97.0785C249.165 97.6096 248.92 98.2783 248.938 98.8264C249.002 100.67 248.764 102.322 248.733 102.525C248.731 102.825 248.73 103.113 248.73 103.381C248.73 105.28 249.9 106.508 251.635 107.831C252.603 108.57 253.995 109.334 254.879 109.745C255.497 110.033 257.313 109.977 257.81 109.747C258.744 109.315 259.686 108.871 260.669 108.101C262.279 106.842 263.777 105.416 263.777 103.814C263.777 103.41 263.751 102.518 263.711 101.402Z" fill="#FFE37B"/>
<path d="M256.266 105.861C256.013 105.861 255.801 105.946 255.627 106.115C255.454 106.285 255.367 106.494 255.367 106.742C255.367 107.022 255.457 107.239 255.636 107.395C255.816 107.551 256.025 107.628 256.266 107.628C256.498 107.628 256.703 107.549 256.88 107.392C257.057 107.235 257.146 107.018 257.146 106.742C257.146 106.494 257.062 106.285 256.892 106.115C256.723 105.946 256.514 105.861 256.266 105.861ZM258.934 99.8576C258.695 99.4953 258.357 99.2088 257.92 98.9979C257.483 98.7871 256.979 98.6818 256.407 98.6818C255.793 98.6818 255.255 98.8079 254.794 99.06C254.333 99.3122 253.983 99.6302 253.743 100.014C253.502 100.398 253.382 100.778 253.382 101.152C253.382 101.333 253.458 101.502 253.61 101.657C253.761 101.813 253.947 101.89 254.168 101.89C254.542 101.89 254.796 101.668 254.931 101.223C255.072 100.797 255.246 100.475 255.451 100.256C255.655 100.038 255.974 99.9286 256.408 99.9286C256.778 99.9286 257.08 100.037 257.315 100.253C257.549 100.47 257.666 100.736 257.666 101.051C257.666 101.213 257.628 101.362 257.551 101.5C257.474 101.638 257.38 101.763 257.267 101.876C257.155 101.988 256.973 102.154 256.721 102.375C256.433 102.627 256.205 102.845 256.035 103.028C255.866 103.211 255.73 103.423 255.628 103.666C255.525 103.908 255.474 104.195 255.474 104.526C255.474 104.79 255.544 104.988 255.684 105.122C255.824 105.256 255.996 105.323 256.201 105.323C256.595 105.323 256.829 105.118 256.904 104.709C256.947 104.516 256.98 104.381 257.001 104.304C257.023 104.227 257.054 104.15 257.093 104.074C257.132 103.997 257.193 103.912 257.273 103.82C257.354 103.727 257.461 103.619 257.595 103.497C258.08 103.064 258.416 102.756 258.603 102.572C258.79 102.389 258.952 102.172 259.088 101.92C259.223 101.667 259.291 101.374 259.291 101.039C259.291 100.614 259.172 100.22 258.934 99.8576Z" fill="white"/>
<path d="M263.7 90.8589C262.875 89.8545 261.845 89.3431 260.705 89.4828C259.837 88.354 257.643 87.9671 255.545 88.2479C253.231 88.5573 251.89 88.9431 250.226 90.0704C249.275 90.7152 247.603 92.2473 247.359 94.1247C247.021 96.7218 248.189 99.8621 248.223 100.113C248.356 101.081 248.73 102.546 248.73 102.546C248.73 102.546 249.006 100.796 248.939 98.8268C248.919 98.2786 249.165 97.6096 249.846 97.0788C250.396 97.2364 251.012 97.3459 251.705 97.3913C258.853 97.8604 262.187 94.1252 262.187 94.1252C262.935 94.1899 263.26 95.199 263.358 95.8175C263.455 96.4358 263.366 97.4116 263.35 98.2581C263.316 100.017 263.727 101.461 263.727 101.461C263.727 101.461 263.921 100.681 264.192 98.6429C264.347 97.477 265.886 93.5217 263.7 90.8589Z" fill="#5D8EF9"/>
<path d="M265.74 112.456L262.046 111.342C262.046 111.342 260.171 114.209 256.405 114.209C252.722 114.209 250.742 111.328 250.742 111.328L246.893 112.467C244.845 113.073 243.439 114.955 243.439 117.091V119.147C243.439 119.897 244.047 120.506 244.798 120.506H267.812C268.563 120.506 269.171 119.897 269.171 119.147V117.072C269.171 114.945 267.777 113.069 265.74 112.456Z" fill="#6857E5"/>
<circle cx="178" cy="415" r="30" fill="white"/>
<path d="M186.573 408.129C186.164 407.795 185.62 408.152 185.382 408.342C185.46 409.39 185.655 410.188 185.711 410.402C185.731 410.964 185.748 411.469 185.759 411.883C185.873 411.905 185.993 411.905 186.105 411.85C186.48 411.667 186.823 410.193 186.949 409.716C187.074 409.24 187.113 408.568 186.573 408.129Z" fill="#FFBE1B"/>
<path d="M169.479 408.129C168.939 408.568 168.978 409.24 169.103 409.716C169.228 410.192 169.572 411.667 169.947 411.85C170.322 412.033 170.791 411.643 170.791 411.643V408.447C170.791 408.447 170.018 407.69 169.479 408.129Z" fill="#FFBE1B"/>
<path d="M181.802 419.089C181.671 418.678 181.603 418.255 181.576 417.848C180.979 418.203 180.393 418.477 179.81 418.747C179.313 418.977 177.497 419.033 176.879 418.745C176.404 418.524 175.783 418.2 175.159 417.834C175.133 418.245 175.065 418.673 174.932 419.089C174.778 419.569 173.818 419.963 172.761 420.354C172.965 420.636 174.924 423.208 178.405 423.208C182.031 423.208 183.904 420.551 184.038 420.354C182.906 419.999 181.983 419.651 181.802 419.089Z" fill="#FFBE1B"/>
<path d="M185.711 410.402C185.636 410.119 185.319 408.812 185.35 407.258C185.366 406.411 185.455 405.435 185.358 404.817C185.26 404.199 184.935 403.19 184.186 403.125C184.186 403.125 180.853 406.86 173.705 406.391C173.012 406.345 172.396 406.236 171.846 406.078C171.165 406.61 170.92 407.278 170.938 407.826C171.002 409.67 170.764 411.322 170.733 411.525C170.731 411.825 170.73 412.113 170.73 412.381C170.73 414.28 171.9 415.508 173.635 416.831C174.603 417.57 175.995 418.334 176.879 418.745C177.497 419.033 179.313 418.977 179.81 418.747C180.744 418.315 181.686 417.871 182.669 417.101C184.279 415.842 185.777 414.416 185.777 412.814C185.777 412.41 185.751 411.518 185.711 410.402Z" fill="#FFE37B"/>
<path d="M178.266 414.861C178.013 414.861 177.801 414.946 177.627 415.115C177.454 415.285 177.367 415.494 177.367 415.742C177.367 416.022 177.457 416.239 177.636 416.395C177.816 416.551 178.025 416.628 178.266 416.628C178.498 416.628 178.703 416.549 178.88 416.392C179.057 416.235 179.146 416.018 179.146 415.742C179.146 415.494 179.062 415.285 178.892 415.115C178.723 414.946 178.514 414.861 178.266 414.861ZM180.934 408.858C180.695 408.495 180.357 408.209 179.92 407.998C179.483 407.787 178.979 407.682 178.407 407.682C177.793 407.682 177.255 407.808 176.794 408.06C176.333 408.312 175.983 408.63 175.743 409.014C175.502 409.398 175.382 409.778 175.382 410.152C175.382 410.333 175.458 410.502 175.61 410.657C175.761 410.813 175.947 410.89 176.168 410.89C176.542 410.89 176.796 410.668 176.931 410.223C177.072 409.797 177.246 409.475 177.451 409.256C177.655 409.038 177.974 408.929 178.408 408.929C178.778 408.929 179.08 409.037 179.315 409.253C179.549 409.47 179.666 409.736 179.666 410.051C179.666 410.213 179.628 410.362 179.551 410.5C179.474 410.638 179.38 410.763 179.267 410.876C179.155 410.988 178.973 411.154 178.721 411.375C178.433 411.627 178.205 411.845 178.035 412.028C177.866 412.211 177.73 412.423 177.628 412.666C177.525 412.908 177.474 413.195 177.474 413.526C177.474 413.79 177.544 413.988 177.684 414.122C177.824 414.256 177.996 414.323 178.201 414.323C178.595 414.323 178.829 414.118 178.904 413.709C178.947 413.516 178.98 413.381 179.001 413.304C179.023 413.227 179.054 413.15 179.093 413.074C179.132 412.997 179.193 412.912 179.273 412.82C179.354 412.727 179.461 412.619 179.595 412.497C180.08 412.064 180.416 411.756 180.603 411.572C180.79 411.389 180.952 411.172 181.088 410.92C181.223 410.667 181.291 410.374 181.291 410.039C181.291 409.614 181.172 409.22 180.934 408.858Z" fill="white"/>
<path d="M185.7 399.859C184.875 398.854 183.845 398.343 182.705 398.483C181.837 397.354 179.643 396.967 177.545 397.248C175.231 397.557 173.89 397.943 172.226 399.07C171.275 399.715 169.603 401.247 169.359 403.125C169.021 405.722 170.189 408.862 170.223 409.113C170.356 410.081 170.73 411.546 170.73 411.546C170.73 411.546 171.006 409.796 170.939 407.827C170.919 407.279 171.165 406.61 171.846 406.079C172.396 406.236 173.012 406.346 173.705 406.391C180.853 406.86 184.187 403.125 184.187 403.125C184.935 403.19 185.26 404.199 185.358 404.818C185.455 405.436 185.366 406.412 185.35 407.258C185.316 409.017 185.727 410.461 185.727 410.461C185.727 410.461 185.921 409.681 186.192 407.643C186.347 406.477 187.886 402.522 185.7 399.859Z" fill="#5D8EF9"/>
<path d="M187.74 421.456L184.046 420.342C184.046 420.342 182.171 423.209 178.405 423.209C174.722 423.209 172.742 420.328 172.742 420.328L168.893 421.467C166.845 422.073 165.439 423.955 165.439 426.091V428.147C165.439 428.897 166.047 429.506 166.798 429.506H189.812C190.563 429.506 191.171 428.897 191.171 428.147V426.072C191.171 423.945 189.777 422.069 187.74 421.456Z" fill="#6857E5"/>
<circle cx="238" cy="271" r="30" fill="white"/>
<path d="M246.573 264.129C246.164 263.795 245.62 264.152 245.382 264.342C245.46 265.39 245.655 266.188 245.711 266.402C245.731 266.964 245.748 267.469 245.759 267.883C245.873 267.905 245.993 267.905 246.105 267.85C246.48 267.667 246.823 266.193 246.949 265.716C247.074 265.24 247.113 264.568 246.573 264.129Z" fill="#FFBE1B"/>
<path d="M229.479 264.129C228.939 264.568 228.978 265.24 229.103 265.716C229.228 266.192 229.572 267.667 229.947 267.85C230.322 268.033 230.791 267.643 230.791 267.643V264.447C230.791 264.447 230.018 263.69 229.479 264.129Z" fill="#FFBE1B"/>
<path d="M241.802 275.089C241.671 274.678 241.603 274.255 241.576 273.848C240.979 274.203 240.393 274.477 239.81 274.747C239.313 274.977 237.497 275.033 236.879 274.745C236.404 274.524 235.783 274.2 235.159 273.834C235.133 274.245 235.065 274.673 234.932 275.089C234.778 275.569 233.818 275.963 232.761 276.354C232.965 276.636 234.924 279.208 238.405 279.208C242.031 279.208 243.904 276.551 244.038 276.354C242.906 275.999 241.983 275.651 241.802 275.089Z" fill="#FFBE1B"/>
<path d="M245.711 266.402C245.636 266.119 245.319 264.812 245.35 263.258C245.366 262.411 245.455 261.435 245.358 260.817C245.26 260.199 244.935 259.19 244.186 259.125C244.186 259.125 240.853 262.86 233.705 262.391C233.012 262.345 232.396 262.236 231.846 262.078C231.165 262.61 230.92 263.278 230.938 263.826C231.002 265.67 230.764 267.322 230.733 267.525C230.731 267.825 230.73 268.113 230.73 268.381C230.73 270.28 231.9 271.508 233.635 272.831C234.603 273.57 235.995 274.334 236.879 274.745C237.497 275.033 239.313 274.977 239.81 274.747C240.744 274.315 241.686 273.871 242.669 273.101C244.279 271.842 245.777 270.416 245.777 268.814C245.777 268.41 245.751 267.518 245.711 266.402Z" fill="#FFE37B"/>
<path d="M238.266 270.861C238.013 270.861 237.801 270.946 237.627 271.115C237.454 271.285 237.367 271.494 237.367 271.742C237.367 272.022 237.457 272.239 237.636 272.395C237.816 272.551 238.025 272.628 238.266 272.628C238.498 272.628 238.703 272.549 238.88 272.392C239.057 272.235 239.146 272.018 239.146 271.742C239.146 271.494 239.062 271.285 238.892 271.115C238.723 270.946 238.514 270.861 238.266 270.861ZM240.934 264.858C240.695 264.495 240.357 264.209 239.92 263.998C239.483 263.787 238.979 263.682 238.407 263.682C237.793 263.682 237.255 263.808 236.794 264.06C236.333 264.312 235.983 264.63 235.743 265.014C235.502 265.398 235.382 265.778 235.382 266.152C235.382 266.333 235.458 266.502 235.61 266.657C235.761 266.813 235.947 266.89 236.168 266.89C236.542 266.89 236.796 266.668 236.931 266.223C237.072 265.797 237.246 265.475 237.451 265.256C237.655 265.038 237.974 264.929 238.408 264.929C238.778 264.929 239.08 265.037 239.315 265.253C239.549 265.47 239.666 265.736 239.666 266.051C239.666 266.213 239.628 266.362 239.551 266.5C239.474 266.638 239.38 266.763 239.267 266.876C239.155 266.988 238.973 267.154 238.721 267.375C238.433 267.627 238.205 267.845 238.035 268.028C237.866 268.211 237.73 268.423 237.628 268.666C237.525 268.908 237.474 269.195 237.474 269.526C237.474 269.79 237.544 269.988 237.684 270.122C237.824 270.256 237.996 270.323 238.201 270.323C238.595 270.323 238.829 270.118 238.904 269.709C238.947 269.516 238.98 269.381 239.001 269.304C239.023 269.227 239.054 269.15 239.093 269.074C239.132 268.997 239.193 268.912 239.273 268.82C239.354 268.727 239.461 268.619 239.595 268.497C240.08 268.064 240.416 267.756 240.603 267.572C240.79 267.389 240.952 267.172 241.088 266.92C241.223 266.667 241.291 266.374 241.291 266.039C241.291 265.614 241.172 265.22 240.934 264.858Z" fill="white"/>
<path d="M245.7 255.859C244.875 254.854 243.845 254.343 242.705 254.483C241.837 253.354 239.643 252.967 237.545 253.248C235.231 253.557 233.89 253.943 232.226 255.07C231.275 255.715 229.603 257.247 229.359 259.125C229.021 261.722 230.189 264.862 230.223 265.113C230.356 266.081 230.73 267.546 230.73 267.546C230.73 267.546 231.006 265.796 230.939 263.827C230.919 263.279 231.165 262.61 231.846 262.079C232.396 262.236 233.012 262.346 233.705 262.391C240.853 262.86 244.187 259.125 244.187 259.125C244.935 259.19 245.26 260.199 245.358 260.818C245.455 261.436 245.366 262.412 245.35 263.258C245.316 265.017 245.727 266.461 245.727 266.461C245.727 266.461 245.921 265.681 246.192 263.643C246.347 262.477 247.886 258.522 245.7 255.859Z" fill="#5D8EF9"/>
<path d="M247.74 277.456L244.046 276.342C244.046 276.342 242.171 279.209 238.405 279.209C234.722 279.209 232.742 276.328 232.742 276.328L228.893 277.467C226.845 278.073 225.439 279.955 225.439 282.091V284.147C225.439 284.897 226.047 285.506 226.798 285.506H249.812C250.563 285.506 251.171 284.897 251.171 284.147V282.072C251.171 279.945 249.777 278.069 247.74 277.456Z" fill="#6857E5"/>
<circle cx="355" cy="223" r="30" fill="white"/>
<path d="M363.573 216.129C363.164 215.795 362.62 216.152 362.382 216.342C362.46 217.39 362.655 218.188 362.711 218.402C362.731 218.964 362.748 219.469 362.759 219.883C362.873 219.905 362.993 219.905 363.105 219.85C363.48 219.667 363.823 218.193 363.949 217.716C364.074 217.24 364.113 216.568 363.573 216.129Z" fill="#FFBE1B"/>
<path d="M346.479 216.129C345.939 216.568 345.978 217.24 346.103 217.716C346.228 218.192 346.572 219.667 346.947 219.85C347.322 220.033 347.791 219.643 347.791 219.643V216.447C347.791 216.447 347.018 215.69 346.479 216.129Z" fill="#FFBE1B"/>
<path d="M358.802 227.089C358.671 226.678 358.603 226.255 358.576 225.848C357.979 226.203 357.393 226.477 356.81 226.747C356.313 226.977 354.497 227.033 353.879 226.745C353.404 226.524 352.783 226.2 352.159 225.834C352.133 226.245 352.065 226.673 351.932 227.089C351.778 227.569 350.818 227.963 349.761 228.354C349.965 228.636 351.924 231.208 355.405 231.208C359.031 231.208 360.904 228.551 361.038 228.354C359.906 227.999 358.983 227.651 358.802 227.089Z" fill="#FFBE1B"/>
<path d="M362.711 218.402C362.636 218.119 362.319 216.812 362.35 215.258C362.366 214.411 362.455 213.435 362.358 212.817C362.26 212.199 361.935 211.19 361.186 211.125C361.186 211.125 357.853 214.86 350.705 214.391C350.012 214.345 349.396 214.236 348.846 214.078C348.165 214.61 347.92 215.278 347.938 215.826C348.002 217.67 347.764 219.322 347.733 219.525C347.731 219.825 347.73 220.113 347.73 220.381C347.73 222.28 348.9 223.508 350.635 224.831C351.603 225.57 352.995 226.334 353.879 226.745C354.497 227.033 356.313 226.977 356.81 226.747C357.744 226.315 358.686 225.871 359.669 225.101C361.279 223.842 362.777 222.416 362.777 220.814C362.777 220.41 362.751 219.518 362.711 218.402Z" fill="#FFE37B"/>
<path d="M355.266 222.861C355.013 222.861 354.801 222.946 354.627 223.115C354.454 223.285 354.367 223.494 354.367 223.742C354.367 224.022 354.457 224.239 354.636 224.395C354.816 224.551 355.025 224.628 355.266 224.628C355.498 224.628 355.703 224.549 355.88 224.392C356.057 224.235 356.146 224.018 356.146 223.742C356.146 223.494 356.062 223.285 355.892 223.115C355.723 222.946 355.514 222.861 355.266 222.861ZM357.934 216.858C357.695 216.495 357.357 216.209 356.92 215.998C356.483 215.787 355.979 215.682 355.407 215.682C354.793 215.682 354.255 215.808 353.794 216.06C353.333 216.312 352.983 216.63 352.743 217.014C352.502 217.398 352.382 217.778 352.382 218.152C352.382 218.333 352.458 218.502 352.61 218.657C352.761 218.813 352.947 218.89 353.168 218.89C353.542 218.89 353.796 218.668 353.931 218.223C354.072 217.797 354.246 217.475 354.451 217.256C354.655 217.038 354.974 216.929 355.408 216.929C355.778 216.929 356.08 217.037 356.315 217.253C356.549 217.47 356.666 217.736 356.666 218.051C356.666 218.213 356.628 218.362 356.551 218.5C356.474 218.638 356.38 218.763 356.267 218.876C356.155 218.988 355.973 219.154 355.721 219.375C355.433 219.627 355.205 219.845 355.035 220.028C354.866 220.211 354.73 220.423 354.628 220.666C354.525 220.908 354.474 221.195 354.474 221.526C354.474 221.79 354.544 221.988 354.684 222.122C354.824 222.256 354.996 222.323 355.201 222.323C355.595 222.323 355.829 222.118 355.904 221.709C355.947 221.516 355.98 221.381 356.001 221.304C356.023 221.227 356.054 221.15 356.093 221.074C356.132 220.997 356.193 220.912 356.273 220.82C356.354 220.727 356.461 220.619 356.595 220.497C357.08 220.064 357.416 219.756 357.603 219.572C357.79 219.389 357.952 219.172 358.088 218.92C358.223 218.667 358.291 218.374 358.291 218.039C358.291 217.614 358.172 217.22 357.934 216.858Z" fill="white"/>
<path d="M362.7 207.859C361.875 206.854 360.845 206.343 359.705 206.483C358.837 205.354 356.643 204.967 354.545 205.248C352.231 205.557 350.89 205.943 349.226 207.07C348.275 207.715 346.603 209.247 346.359 211.125C346.021 213.722 347.189 216.862 347.223 217.113C347.356 218.081 347.73 219.546 347.73 219.546C347.73 219.546 348.006 217.796 347.939 215.827C347.919 215.279 348.165 214.61 348.846 214.079C349.396 214.236 350.012 214.346 350.705 214.391C357.853 214.86 361.187 211.125 361.187 211.125C361.935 211.19 362.26 212.199 362.358 212.818C362.455 213.436 362.366 214.412 362.35 215.258C362.316 217.017 362.727 218.461 362.727 218.461C362.727 218.461 362.921 217.681 363.192 215.643C363.347 214.477 364.886 210.522 362.7 207.859Z" fill="#5D8EF9"/>
<path d="M364.74 229.456L361.046 228.342C361.046 228.342 359.171 231.209 355.405 231.209C351.722 231.209 349.742 228.328 349.742 228.328L345.893 229.467C343.845 230.073 342.439 231.955 342.439 234.091V236.147C342.439 236.897 343.047 237.506 343.798 237.506H366.812C367.563 237.506 368.171 236.897 368.171 236.147V234.072C368.171 231.945 366.777 230.069 364.74 229.456Z" fill="#6857E5"/>
<circle cx="433" cy="312" r="30" fill="white"/>
<path d="M441.573 305.129C441.164 304.795 440.62 305.152 440.382 305.342C440.46 306.39 440.655 307.188 440.711 307.402C440.731 307.964 440.748 308.469 440.759 308.883C440.873 308.905 440.993 308.905 441.105 308.85C441.48 308.667 441.823 307.193 441.949 306.716C442.074 306.24 442.113 305.568 441.573 305.129Z" fill="#FFBE1B"/>
<path d="M424.479 305.129C423.939 305.568 423.978 306.24 424.103 306.716C424.228 307.192 424.572 308.667 424.947 308.85C425.322 309.033 425.791 308.643 425.791 308.643V305.447C425.791 305.447 425.018 304.69 424.479 305.129Z" fill="#FFBE1B"/>
<path d="M436.802 316.089C436.671 315.678 436.603 315.255 436.576 314.848C435.979 315.203 435.393 315.477 434.81 315.747C434.313 315.977 432.497 316.033 431.879 315.745C431.404 315.524 430.783 315.2 430.159 314.834C430.133 315.245 430.065 315.673 429.932 316.089C429.778 316.569 428.818 316.963 427.761 317.354C427.965 317.636 429.924 320.208 433.405 320.208C437.031 320.208 438.904 317.551 439.038 317.354C437.906 316.999 436.983 316.651 436.802 316.089Z" fill="#FFBE1B"/>
<path d="M440.711 307.402C440.636 307.119 440.319 305.812 440.35 304.258C440.366 303.411 440.455 302.435 440.358 301.817C440.26 301.199 439.935 300.19 439.187 300.125C439.187 300.125 435.853 303.86 428.705 303.391C428.012 303.345 427.396 303.236 426.846 303.078C426.165 303.61 425.92 304.278 425.939 304.826C426.002 306.67 425.764 308.322 425.733 308.525C425.731 308.825 425.73 309.113 425.73 309.381C425.73 311.28 426.9 312.508 428.635 313.831C429.603 314.57 430.995 315.334 431.879 315.745C432.497 316.033 434.313 315.977 434.81 315.747C435.744 315.315 436.686 314.871 437.669 314.101C439.279 312.842 440.777 311.416 440.777 309.814C440.777 309.41 440.751 308.518 440.711 307.402Z" fill="#FFE37B"/>
<path d="M433.266 311.861C433.013 311.861 432.801 311.946 432.627 312.115C432.454 312.285 432.367 312.494 432.367 312.742C432.367 313.022 432.457 313.239 432.636 313.395C432.816 313.551 433.025 313.628 433.266 313.628C433.498 313.628 433.703 313.549 433.88 313.392C434.058 313.235 434.146 313.018 434.146 312.742C434.146 312.494 434.062 312.285 433.892 312.115C433.723 311.946 433.514 311.861 433.266 311.861ZM435.934 305.858C435.695 305.495 435.357 305.209 434.92 304.998C434.483 304.787 433.979 304.682 433.407 304.682C432.793 304.682 432.255 304.808 431.794 305.06C431.333 305.312 430.983 305.63 430.743 306.014C430.502 306.398 430.382 306.778 430.382 307.152C430.382 307.333 430.458 307.502 430.61 307.657C430.761 307.813 430.947 307.89 431.168 307.89C431.542 307.89 431.796 307.668 431.931 307.223C432.072 306.797 432.246 306.475 432.451 306.256C432.655 306.038 432.975 305.929 433.408 305.929C433.778 305.929 434.08 306.037 434.315 306.253C434.549 306.47 434.667 306.736 434.667 307.051C434.667 307.213 434.628 307.362 434.551 307.5C434.474 307.638 434.38 307.763 434.268 307.876C434.155 307.988 433.973 308.154 433.721 308.375C433.433 308.627 433.205 308.845 433.035 309.028C432.866 309.211 432.73 309.423 432.628 309.666C432.525 309.908 432.474 310.195 432.474 310.526C432.474 310.79 432.544 310.988 432.684 311.122C432.824 311.256 432.996 311.323 433.201 311.323C433.595 311.323 433.829 311.118 433.904 310.709C433.947 310.516 433.98 310.381 434.002 310.304C434.023 310.227 434.054 310.15 434.093 310.074C434.132 309.997 434.193 309.912 434.273 309.82C434.354 309.727 434.462 309.619 434.595 309.497C435.08 309.064 435.416 308.756 435.603 308.572C435.79 308.389 435.952 308.172 436.088 307.92C436.223 307.667 436.291 307.374 436.291 307.039C436.291 306.614 436.172 306.22 435.934 305.858Z" fill="white"/>
<path d="M440.7 296.859C439.875 295.854 438.845 295.343 437.705 295.483C436.837 294.354 434.643 293.967 432.545 294.248C430.231 294.557 428.89 294.943 427.226 296.07C426.275 296.715 424.603 298.247 424.359 300.125C424.021 302.722 425.189 305.862 425.223 306.113C425.356 307.081 425.73 308.546 425.73 308.546C425.73 308.546 426.006 306.796 425.939 304.827C425.919 304.279 426.165 303.61 426.846 303.079C427.396 303.236 428.012 303.346 428.705 303.391C435.853 303.86 439.187 300.125 439.187 300.125C439.935 300.19 440.26 301.199 440.358 301.818C440.455 302.436 440.366 303.412 440.35 304.258C440.316 306.017 440.727 307.461 440.727 307.461C440.727 307.461 440.921 306.681 441.192 304.643C441.347 303.477 442.886 299.522 440.7 296.859Z" fill="#5D8EF9"/>
<path d="M442.74 318.456L439.046 317.342C439.046 317.342 437.171 320.209 433.405 320.209C429.722 320.209 427.742 317.328 427.742 317.328L423.893 318.467C421.845 319.073 420.439 320.955 420.439 323.091V325.147C420.439 325.897 421.047 326.506 421.798 326.506H444.812C445.563 326.506 446.171 325.897 446.171 325.147V323.072C446.171 320.945 444.777 319.069 442.74 318.456Z" fill="#6857E5"/>
<circle cx="95" cy="197" r="30" fill="white"/>
<path d="M103.573 190.129C103.164 189.795 102.62 190.152 102.382 190.342C102.46 191.39 102.655 192.188 102.711 192.402C102.731 192.964 102.748 193.469 102.759 193.883C102.873 193.905 102.993 193.905 103.105 193.85C103.48 193.667 103.823 192.193 103.949 191.716C104.074 191.24 104.113 190.568 103.573 190.129Z" fill="#FFBE1B"/>
<path d="M86.4786 190.129C85.9394 190.568 85.9782 191.24 86.103 191.716C86.2283 192.192 86.5721 193.667 86.9474 193.85C87.3222 194.033 87.7913 193.643 87.7913 193.643V190.447C87.7913 190.447 87.0176 189.69 86.4786 190.129Z" fill="#FFBE1B"/>
<path d="M98.8025 201.089C98.6706 200.678 98.6034 200.255 98.5761 199.848C97.9788 200.203 97.3928 200.477 96.8102 200.747C96.3128 200.977 94.4968 201.033 93.879 200.745C93.4041 200.524 92.7832 200.2 92.1594 199.834C92.1326 200.245 92.0651 200.673 91.932 201.089C91.7781 201.569 90.8178 201.963 89.7611 202.354C89.965 202.636 91.9244 205.208 95.405 205.208C99.0312 205.208 100.904 202.551 101.038 202.354C99.9056 201.999 98.9829 201.651 98.8025 201.089Z" fill="#FFBE1B"/>
<path d="M102.711 192.402C102.636 192.119 102.319 190.812 102.35 189.258C102.366 188.411 102.455 187.435 102.358 186.817C102.26 186.199 101.935 185.19 101.186 185.125C101.186 185.125 97.8532 188.86 90.7053 188.391C90.0119 188.345 89.3962 188.236 88.846 188.078C88.1646 188.61 87.9196 189.278 87.9385 189.826C88.0021 191.67 87.7638 193.322 87.7334 193.525C87.7313 193.825 87.7299 194.113 87.7299 194.381C87.7299 196.28 88.8998 197.508 90.6354 198.831C91.6033 199.57 92.9951 200.334 93.8789 200.745C94.4967 201.033 96.3127 200.977 96.8102 200.747C97.7439 200.315 98.6863 199.871 99.6691 199.101C101.279 197.842 102.777 196.416 102.777 194.814C102.777 194.41 102.751 193.518 102.711 192.402Z" fill="#FFE37B"/>
<path d="M95.2656 196.861C95.0133 196.861 94.8007 196.946 94.6274 197.115C94.4542 197.285 94.3674 197.494 94.3674 197.742C94.3674 198.022 94.4571 198.239 94.6364 198.395C94.8157 198.551 95.0254 198.628 95.2657 198.628C95.4983 198.628 95.703 198.549 95.8803 198.392C96.0575 198.235 96.1462 198.018 96.1462 197.742C96.1462 197.494 96.0616 197.285 95.8921 197.115C95.7225 196.946 95.5139 196.861 95.2656 196.861ZM97.9336 190.858C97.6953 190.495 97.3574 190.209 96.9203 189.998C96.4829 189.787 95.9785 189.682 95.4074 189.682C94.793 189.682 94.2553 189.808 93.7943 190.06C93.3334 190.312 92.9829 190.63 92.7426 191.014C92.5022 191.398 92.3821 191.778 92.3821 192.152C92.3821 192.333 92.458 192.502 92.6096 192.657C92.7614 192.813 92.9472 192.89 93.1682 192.89C93.5421 192.89 93.7964 192.668 93.9306 192.223C94.0721 191.797 94.2456 191.475 94.4506 191.256C94.6553 191.038 94.9745 190.929 95.4076 190.929C95.7779 190.929 96.0803 191.037 96.3147 191.253C96.5493 191.47 96.6665 191.736 96.6665 192.051C96.6665 192.213 96.628 192.362 96.5511 192.5C96.4742 192.638 96.3797 192.763 96.2675 192.876C96.1553 192.988 95.9729 193.154 95.7211 193.375C95.4331 193.627 95.2049 193.845 95.0354 194.028C94.8659 194.211 94.7301 194.423 94.6276 194.666C94.5252 194.908 94.474 195.195 94.474 195.526C94.474 195.79 94.544 195.988 94.6837 196.122C94.8236 196.256 94.996 196.323 95.2009 196.323C95.595 196.323 95.8292 196.118 95.904 195.709C95.9473 195.516 95.9798 195.381 96.0015 195.304C96.0232 195.227 96.0536 195.15 96.0932 195.074C96.1324 194.997 96.1927 194.912 96.2732 194.82C96.354 194.727 96.4615 194.619 96.5954 194.497C97.08 194.064 97.4158 193.756 97.6031 193.572C97.7902 193.389 97.9516 193.172 98.0877 192.92C98.2234 192.667 98.2914 192.374 98.2914 192.039C98.2911 191.614 98.1719 191.22 97.9336 190.858Z" fill="white"/>
<path d="M102.7 181.859C101.875 180.854 100.845 180.343 99.705 180.483C98.8374 179.354 96.6432 178.967 94.5449 179.248C92.2306 179.557 90.8895 179.943 89.2261 181.07C88.2745 181.715 86.6033 183.247 86.3587 185.125C86.0207 187.722 87.1887 190.862 87.2234 191.113C87.3563 192.081 87.7301 193.546 87.7301 193.546C87.7301 193.546 88.0061 191.796 87.9386 189.827C87.9194 189.279 88.1647 188.61 88.8461 188.079C89.3961 188.236 90.012 188.346 90.7054 188.391C97.8532 188.86 101.187 185.125 101.187 185.125C101.935 185.19 102.26 186.199 102.358 186.818C102.455 187.436 102.366 188.412 102.35 189.258C102.316 191.017 102.727 192.461 102.727 192.461C102.727 192.461 102.921 191.681 103.192 189.643C103.347 188.477 104.886 184.522 102.7 181.859Z" fill="#5D8EF9"/>
<path d="M104.74 203.456L101.046 202.342C101.046 202.342 99.1706 205.209 95.405 205.209C91.7223 205.209 89.7422 202.328 89.7422 202.328L85.893 203.467C83.8448 204.073 82.4393 205.955 82.4393 208.091V210.147C82.4393 210.897 83.0474 211.506 83.7976 211.506H106.812C107.563 211.506 108.171 210.897 108.171 210.147V208.072C108.171 205.945 106.777 204.069 104.74 203.456Z" fill="#6857E5"/>
<defs>
<linearGradient id="paint0_linear" x1="256" y1="1" x2="256" y2="511" gradientUnits="userSpaceOnUse">
<stop stop-color="#5D28AB"/>
<stop offset="1" stop-opacity="0"/>
</linearGradient>
<linearGradient id="paint1_linear" x1="256" y1="23" x2="256" y2="489" gradientUnits="userSpaceOnUse">
<stop stop-color="#5D28AB"/>
<stop offset="1" stop-color="#5D28AB" stop-opacity="0"/>
</linearGradient>
</defs>
</svg>
