<svg width="400" height="402" viewBox="0 0 400 402" fill="none" xmlns="http://www.w3.org/2000/svg">
<rect width="400" height="188" rx="10" fill="url(#paint0_linear)" fill-opacity="0.1"/>
<rect opacity="0.3" x="0.5" y="0.5" width="399" height="187" rx="9.5" stroke="url(#paint1_linear)"/>
<path d="M47.4204 80.6363H51.4545L51.5114 77.2699C57.7898 76.7869 61.4829 73.6761 61.5114 68.4204C61.4829 63.9886 58.8409 60.8778 52.4204 59.5L51.7812 59.3579L51.8665 54.4005C52.9176 54.8835 53.4574 55.7784 53.5568 57H61.1136C61.0852 51.9432 57.6477 48.4062 51.9659 47.6534L52.0227 44.2727H47.9886L47.9318 47.5824C41.9375 48.1505 37.8324 51.7017 37.875 56.7727C37.8608 61.3182 41.0142 63.8466 46.1704 64.9545L47.6619 65.2812L47.5767 70.6079C45.7727 70.0824 44.7358 68.7898 44.6364 66.7727H37.1364C37.1648 73.3352 41.1562 76.6449 47.4773 77.2415L47.4204 80.6363ZM51.6108 70.5795L51.6818 66.3608C52.9318 66.9005 53.429 67.554 53.4432 68.4204C53.429 69.4006 52.804 70.1818 51.6108 70.5795ZM47.7756 58.3068C46.5966 57.7954 46.071 57.1278 46.1136 56.2045C46.1278 55.2954 46.6534 54.571 47.8324 54.2159L47.7756 58.3068Z" fill="#DDC7FD"/>
<path d="M65.8792 77H74.0042L85.4815 54.2159V47.9091H63.8906V54.2159H77.2997V54.3863L65.8792 77Z" fill="#DDC7FD"/>
<path d="M88.9865 77H111.316V70.6932H99.9524V70.5227L102.68 68.25C109.313 62.7244 111.004 59.8551 111.004 56.4886C111.004 51.0625 106.558 47.5113 99.5831 47.5113C92.8075 47.5113 88.4041 51.2755 88.4183 57.3977H95.9183C95.9041 54.9545 97.3956 53.5909 99.5831 53.5909C101.756 53.5909 103.305 54.9403 103.305 57.1704C103.305 59.2301 101.984 60.5653 99.8388 62.3409L88.9865 71.3182V77Z" fill="#DDC7FD"/>
<path d="M122.758 77H136.451C142.772 77 146.678 73.5483 146.678 68.7613C146.678 64.6562 143.653 61.9716 139.917 61.8295V61.5454C143.283 60.8778 145.542 58.392 145.542 55.1818C145.542 50.75 142.019 47.9091 135.371 47.9091H122.758V77ZM130.656 70.6932V64.5568H134.462C136.863 64.5568 138.326 65.6932 138.326 67.7386C138.326 69.6846 137.005 70.6932 134.349 70.6932H130.656ZM130.656 59.6704V54.1023H134.008C135.968 54.1023 137.417 55.0966 137.417 56.8863C137.417 58.6761 135.968 59.6704 133.894 59.6704H130.656Z" fill="#DDC7FD"/>
<path d="M157.374 47.9091H149.477V77H157.374V47.9091Z" fill="#DDC7FD"/>
<path d="M161.117 77H180.776V70.6363H169.015V47.9091H161.117V77Z" fill="#DDC7FD"/>
<path d="M183.969 77H203.628V70.6363H191.866V47.9091H183.969V77Z" fill="#DDC7FD"/>
<path d="M214.718 47.9091H206.82V77H214.718V47.9091Z" fill="#DDC7FD"/>
<path d="M246.643 62.4545C246.643 52.7386 240.393 47.5113 232.495 47.5113C224.54 47.5113 218.347 52.7386 218.347 62.4545C218.347 72.1136 224.54 77.3977 232.495 77.3977C240.393 77.3977 246.643 72.1704 246.643 62.4545ZM238.518 62.4545C238.518 67.6818 236.415 70.5227 232.495 70.5227C228.575 70.5227 226.472 67.6818 226.472 62.4545C226.472 57.2273 228.575 54.3863 232.495 54.3863C236.415 54.3863 238.518 57.2273 238.518 62.4545Z" fill="#DDC7FD"/>
<path d="M275.467 47.9091H267.57V63.1363H267.342L257.001 47.9091H250.297V77H258.195V61.7159H258.365L268.876 77H275.467V47.9091Z" fill="#DDC7FD"/>
<g opacity="0.9">
<path d="M37.6761 105.912H40.8779V115H42.1108V105.912H45.3125V104.818H37.6761V105.912Z" fill="#DDC7FD"/>
<path d="M48.2296 110.406C48.2296 109.074 49.0797 108.318 50.2381 108.318C51.3418 108.318 52.008 109.014 52.008 110.227V115H53.1813V110.148C53.1813 108.184 52.1373 107.264 50.5762 107.264C49.3731 107.264 48.687 107.766 48.329 108.557H48.2296V104.818H47.0563V115H48.2296V110.406Z" fill="#DDC7FD"/>
<path d="M58.5295 115.159C60.0806 115.159 61.2141 114.384 61.5721 113.23L60.4386 112.912C60.1403 113.707 59.4492 114.105 58.5295 114.105C57.1524 114.105 56.2028 113.215 56.1481 111.58H61.6914V111.082C61.6914 108.239 60.0011 107.264 58.4102 107.264C56.342 107.264 54.9698 108.895 54.9698 111.241C54.9698 113.588 56.3221 115.159 58.5295 115.159ZM56.1481 110.565C56.2276 109.377 57.0678 108.318 58.4102 108.318C59.6829 108.318 60.4982 109.273 60.4982 110.565H56.1481Z" fill="#DDC7FD"/>
<path d="M74.533 108H75.8058C75.4279 106.031 73.7774 104.679 71.6296 104.679C69.0195 104.679 67.1751 106.688 67.1751 109.909C67.1751 113.131 69.0046 115.139 71.7092 115.139C74.1353 115.139 75.8654 113.523 75.8654 111.003V109.909H71.9876V111.003H74.6722C74.6374 112.832 73.4343 113.986 71.7092 113.986C69.82 113.986 68.3683 112.554 68.3683 109.909C68.3683 107.264 69.82 105.832 71.6296 105.832C73.1012 105.832 74.1005 106.663 74.533 108Z" fill="#DDC7FD"/>
<path d="M78.9913 104.818H77.818V115H78.9913V104.818Z" fill="#DDC7FD"/>
<path d="M84.2426 115.159C86.3107 115.159 87.7028 113.588 87.7028 111.222C87.7028 108.835 86.3107 107.264 84.2426 107.264C82.1744 107.264 80.7823 108.835 80.7823 111.222C80.7823 113.588 82.1744 115.159 84.2426 115.159ZM84.2426 114.105C82.6715 114.105 81.9556 112.753 81.9556 111.222C81.9556 109.69 82.6715 108.318 84.2426 108.318C85.8136 108.318 86.5295 109.69 86.5295 111.222C86.5295 112.753 85.8136 114.105 84.2426 114.105Z" fill="#DDC7FD"/>
<path d="M89.6529 115H90.7864V113.827H90.9256C91.1841 114.244 91.6813 115.159 93.1529 115.159C95.062 115.159 96.3944 113.628 96.3944 111.202C96.3944 108.795 95.062 107.264 93.133 107.264C91.6415 107.264 91.1841 108.179 90.9256 108.577H90.8262V104.818H89.6529V115ZM90.8063 111.182C90.8063 109.472 91.562 108.318 92.9938 108.318C94.4853 108.318 95.2211 109.571 95.2211 111.182C95.2211 112.812 94.4654 114.105 92.9938 114.105C91.5819 114.105 90.8063 112.912 90.8063 111.182Z" fill="#DDC7FD"/>
<path d="M100.436 115.179C101.769 115.179 102.465 114.463 102.703 113.966H102.763V115H103.936V109.969C103.936 107.543 102.087 107.264 101.112 107.264C99.959 107.264 98.6465 107.662 98.0499 109.054L99.1635 109.452C99.4221 108.895 100.034 108.298 101.152 108.298C102.231 108.298 102.763 108.87 102.763 109.849V109.889C102.763 110.456 102.186 110.406 100.794 110.585C99.3773 110.769 97.8312 111.082 97.8312 112.832C97.8312 114.324 98.9846 115.179 100.436 115.179ZM100.615 114.125C99.6806 114.125 99.0045 113.707 99.0045 112.892C99.0045 111.997 99.8198 111.719 100.735 111.599C101.232 111.54 102.564 111.401 102.763 111.162V112.236C102.763 113.19 102.007 114.125 100.615 114.125Z" fill="#DDC7FD"/>
<path d="M107.251 104.818H106.078V115H107.251V104.818Z" fill="#DDC7FD"/>
<path d="M113.497 115H117.176C119.582 115 120.576 113.827 120.576 112.295C120.576 110.685 119.463 109.81 118.528 109.75V109.651C119.403 109.412 120.178 108.835 120.178 107.523C120.178 106.031 119.184 104.818 117.056 104.818H113.497V115ZM114.73 113.906V110.366H117.235C118.568 110.366 119.403 111.261 119.403 112.295C119.403 113.19 118.786 113.906 117.176 113.906H114.73ZM114.73 109.293V105.912H117.056C118.409 105.912 119.005 106.628 119.005 107.523C119.005 108.597 118.13 109.293 117.017 109.293H114.73Z" fill="#DDC7FD"/>
<path d="M123.616 104.818H122.443V115H123.616V104.818Z" fill="#DDC7FD"/>
<path d="M128.868 115.159C130.936 115.159 132.328 113.588 132.328 111.222C132.328 108.835 130.936 107.264 128.868 107.264C126.799 107.264 125.407 108.835 125.407 111.222C125.407 113.588 126.799 115.159 128.868 115.159ZM128.868 114.105C127.297 114.105 126.581 112.753 126.581 111.222C126.581 109.69 127.297 108.318 128.868 108.318C130.439 108.318 131.154 109.69 131.154 111.222C131.154 112.753 130.439 114.105 128.868 114.105Z" fill="#DDC7FD"/>
<path d="M137.221 115.159C138.911 115.159 140.025 114.125 140.224 112.773H139.051C138.832 113.608 138.136 114.105 137.221 114.105C135.829 114.105 134.934 112.952 134.934 111.182C134.934 109.452 135.849 108.318 137.221 108.318C138.255 108.318 138.872 108.955 139.051 109.651H140.224C140.025 108.219 138.812 107.264 137.201 107.264C135.133 107.264 133.761 108.895 133.761 111.222C133.761 113.509 135.073 115.159 137.221 115.159Z" fill="#DDC7FD"/>
<path d="M141.939 115H143.112V112.141L143.933 111.381L146.791 115H148.283L144.818 110.625L148.044 107.364H146.593L143.252 110.764H143.112V104.818H141.939V115Z" fill="#DDC7FD"/>
<path d="M152.342 115.159C154.033 115.159 155.146 114.125 155.345 112.773H154.172C153.953 113.608 153.257 114.105 152.342 114.105C150.95 114.105 150.055 112.952 150.055 111.182C150.055 109.452 150.97 108.318 152.342 108.318C153.376 108.318 153.993 108.955 154.172 109.651H155.345C155.146 108.219 153.933 107.264 152.322 107.264C150.254 107.264 148.882 108.895 148.882 111.222C148.882 113.509 150.194 115.159 152.342 115.159Z" fill="#DDC7FD"/>
<path d="M158.233 110.406C158.233 109.074 159.084 108.318 160.242 108.318C161.346 108.318 162.012 109.014 162.012 110.227V115H163.185V110.148C163.185 108.184 162.141 107.264 160.58 107.264C159.377 107.264 158.691 107.766 158.333 108.557H158.233V104.818H157.06V115H158.233V110.406Z" fill="#DDC7FD"/>
<path d="M167.579 115.179C168.911 115.179 169.607 114.463 169.846 113.966H169.906V115H171.079V109.969C171.079 107.543 169.229 107.264 168.255 107.264C167.102 107.264 165.789 107.662 165.192 109.054L166.306 109.452C166.565 108.895 167.176 108.298 168.295 108.298C169.374 108.298 169.906 108.87 169.906 109.849V109.889C169.906 110.456 169.329 110.406 167.937 110.585C166.52 110.769 164.974 111.082 164.974 112.832C164.974 114.324 166.127 115.179 167.579 115.179ZM167.758 114.125C166.823 114.125 166.147 113.707 166.147 112.892C166.147 111.997 166.962 111.719 167.877 111.599C168.374 111.54 169.707 111.401 169.906 111.162V112.236C169.906 113.19 169.15 114.125 167.758 114.125Z" fill="#DDC7FD"/>
<path d="M173.22 115H174.394V107.364H173.22V115ZM173.817 106.091C174.274 106.091 174.652 105.733 174.652 105.295C174.652 104.858 174.274 104.5 173.817 104.5C173.36 104.5 172.982 104.858 172.982 105.295C172.982 105.733 173.36 106.091 173.817 106.091Z" fill="#DDC7FD"/>
<path d="M177.716 110.406C177.716 109.074 178.541 108.318 179.665 108.318C180.754 108.318 181.415 109.029 181.415 110.227V115H182.588V110.148C182.588 108.199 181.549 107.264 180.003 107.264C178.849 107.264 178.134 107.781 177.776 108.557H177.676V107.364H176.543V115H177.716V110.406Z" fill="#DDC7FD"/>
<path d="M188.272 105.912H191.474V115H192.707V105.912H195.908V104.818H188.272V105.912Z" fill="#DDC7FD"/>
<path d="M199.746 115.159C201.297 115.159 202.431 114.384 202.789 113.23L201.655 112.912C201.357 113.707 200.666 114.105 199.746 114.105C198.369 114.105 197.42 113.215 197.365 111.58H202.908V111.082C202.908 108.239 201.218 107.264 199.627 107.264C197.559 107.264 196.187 108.895 196.187 111.241C196.187 113.588 197.539 115.159 199.746 115.159ZM197.365 110.565C197.444 109.377 198.285 108.318 199.627 108.318C200.9 108.318 201.715 109.273 201.715 110.565H197.365Z" fill="#DDC7FD"/>
<path d="M207.795 115.159C209.486 115.159 210.599 114.125 210.798 112.773H209.625C209.406 113.608 208.71 114.105 207.795 114.105C206.403 114.105 205.508 112.952 205.508 111.182C205.508 109.452 206.423 108.318 207.795 108.318C208.829 108.318 209.446 108.955 209.625 109.651H210.798C210.599 108.219 209.386 107.264 207.775 107.264C205.707 107.264 204.335 108.895 204.335 111.222C204.335 113.509 205.648 115.159 207.795 115.159Z" fill="#DDC7FD"/>
<path d="M213.687 110.406C213.687 109.074 214.537 108.318 215.695 108.318C216.799 108.318 217.465 109.014 217.465 110.227V115H218.638V110.148C218.638 108.184 217.594 107.264 216.033 107.264C214.83 107.264 214.144 107.766 213.786 108.557H213.687V104.818H212.513V115H213.687V110.406Z" fill="#DDC7FD"/>
<path d="M221.958 110.406C221.958 109.074 222.783 108.318 223.907 108.318C224.996 108.318 225.657 109.029 225.657 110.227V115H226.83V110.148C226.83 108.199 225.791 107.264 224.245 107.264C223.092 107.264 222.376 107.781 222.018 108.557H221.918V107.364H220.785V115H221.958V110.406Z" fill="#DDC7FD"/>
<path d="M232.077 115.159C234.145 115.159 235.537 113.588 235.537 111.222C235.537 108.835 234.145 107.264 232.077 107.264C230.008 107.264 228.616 108.835 228.616 111.222C228.616 113.588 230.008 115.159 232.077 115.159ZM232.077 114.105C230.506 114.105 229.79 112.753 229.79 111.222C229.79 109.69 230.506 108.318 232.077 108.318C233.648 108.318 234.363 109.69 234.363 111.222C234.363 112.753 233.648 114.105 232.077 114.105Z" fill="#DDC7FD"/>
<path d="M238.501 104.818H237.328V115H238.501V104.818Z" fill="#DDC7FD"/>
<path d="M243.752 115.159C245.821 115.159 247.213 113.588 247.213 111.222C247.213 108.835 245.821 107.264 243.752 107.264C241.684 107.264 240.292 108.835 240.292 111.222C240.292 113.588 241.684 115.159 243.752 115.159ZM243.752 114.105C242.181 114.105 241.465 112.753 241.465 111.222C241.465 109.69 242.181 108.318 243.752 108.318C245.323 108.318 246.039 109.69 246.039 111.222C246.039 112.753 245.323 114.105 243.752 114.105Z" fill="#DDC7FD"/>
<path d="M252.086 118.023C253.915 118.023 255.387 117.188 255.387 115.219V107.364H254.254V108.577H254.134C253.876 108.179 253.398 107.264 251.907 107.264C249.978 107.264 248.646 108.795 248.646 111.142C248.646 113.528 250.038 114.881 251.887 114.881C253.379 114.881 253.856 114.006 254.114 113.588H254.214V115.139C254.214 116.412 253.319 116.989 252.086 116.989C250.699 116.989 250.212 116.258 249.898 115.835L248.964 116.491C249.441 117.292 250.381 118.023 252.086 118.023ZM252.046 113.827C250.575 113.827 249.819 112.713 249.819 111.122C249.819 109.571 250.555 108.318 252.046 108.318C253.478 108.318 254.234 109.472 254.234 111.122C254.234 112.813 253.458 113.827 252.046 113.827Z" fill="#DDC7FD"/>
<path d="M258.29 117.864C259.349 117.864 260.095 117.302 260.538 116.114L263.789 107.384L262.506 107.364L260.398 113.449H260.319L258.211 107.364H256.938L259.762 115.04L259.543 115.636C259.116 116.8 258.589 116.909 257.734 116.69L257.435 117.724C257.555 117.784 257.893 117.864 258.29 117.864Z" fill="#DDC7FD"/>
<path d="M269.438 104.818V115H270.591V107.264H270.691L273.873 115H274.986L278.168 107.264H278.268V115H279.421V104.818H277.949L274.489 113.27H274.37L270.91 104.818H269.438Z" fill="#DDC7FD"/>
<path d="M283.981 115.179C285.314 115.179 286.01 114.463 286.248 113.966H286.308V115H287.481V109.969C287.481 107.543 285.632 107.264 284.657 107.264C283.504 107.264 282.191 107.662 281.595 109.054L282.708 109.452C282.967 108.895 283.578 108.298 284.697 108.298C285.776 108.298 286.308 108.87 286.308 109.849V109.889C286.308 110.456 285.731 110.406 284.339 110.585C282.922 110.769 281.376 111.082 281.376 112.832C281.376 114.324 282.529 115.179 283.981 115.179ZM284.16 114.125C283.226 114.125 282.549 113.707 282.549 112.892C282.549 111.997 283.365 111.719 284.279 111.599C284.777 111.54 286.109 111.401 286.308 111.162V112.236C286.308 113.19 285.552 114.125 284.16 114.125Z" fill="#DDC7FD"/>
<path d="M289.623 115H290.796V110.168C290.796 109.134 291.611 108.378 292.725 108.378C293.038 108.378 293.361 108.437 293.441 108.457V107.264C293.307 107.254 292.998 107.244 292.824 107.244C291.91 107.244 291.114 107.761 290.836 108.517H290.756V107.364H289.623V115Z" fill="#DDC7FD"/>
<path d="M294.832 115H296.005V112.141L296.825 111.381L299.684 115H301.175L297.71 110.625L300.937 107.364H299.485L296.144 110.764H296.005V104.818H294.832V115Z" fill="#DDC7FD"/>
<path d="M305.334 115.159C306.885 115.159 308.019 114.384 308.377 113.23L307.243 112.912C306.945 113.707 306.254 114.105 305.334 114.105C303.957 114.105 303.007 113.215 302.953 111.58H308.496V111.082C308.496 108.239 306.806 107.264 305.215 107.264C303.147 107.264 301.775 108.895 301.775 111.241C301.775 113.588 303.127 115.159 305.334 115.159ZM302.953 110.565C303.032 109.377 303.873 108.318 305.215 108.318C306.488 108.318 307.303 109.273 307.303 110.565H302.953Z" fill="#DDC7FD"/>
<path d="M313.602 107.364H311.971V105.534H310.798V107.364H309.645V108.358H310.798V113.131C310.798 114.463 311.872 115.099 312.866 115.099C313.304 115.099 313.582 115.02 313.741 114.96L313.502 113.906C313.403 113.926 313.244 113.966 312.985 113.966C312.468 113.966 311.971 113.807 311.971 112.812V108.358H313.602V107.364Z" fill="#DDC7FD"/>
<path d="M43.483 134.074C43.1151 132.99 42.2898 132.264 40.7784 132.264C39.1676 132.264 37.9744 133.179 37.9744 134.472C37.9744 135.526 38.6009 136.232 40.0029 136.56L41.2756 136.858C42.0462 137.037 42.4091 137.405 42.4091 137.932C42.4091 138.588 41.7131 139.125 40.6193 139.125C39.6598 139.125 39.0582 138.712 38.8494 137.892L37.7358 138.17C38.0092 139.468 39.0781 140.159 40.6392 140.159C42.4141 140.159 43.6222 139.19 43.6222 137.872C43.6222 136.808 42.956 136.137 41.5938 135.804L40.4602 135.526C39.5554 135.302 39.1477 134.999 39.1477 134.412C39.1477 133.756 39.8438 133.278 40.7784 133.278C41.8026 133.278 42.2252 133.845 42.429 134.372L43.483 134.074Z" fill="#DDC7FD"/>
<path d="M45.3883 140H46.5616V132.364H45.3883V140ZM45.9849 131.091C46.4423 131.091 46.8201 130.733 46.8201 130.295C46.8201 129.858 46.4423 129.5 45.9849 129.5C45.5275 129.5 45.1497 129.858 45.1497 130.295C45.1497 130.733 45.5275 131.091 45.9849 131.091Z" fill="#DDC7FD"/>
<path d="M48.4918 140H54.4776V138.906H50.1225V138.827L54.3384 133.298V132.364H48.631V133.457H52.8271V133.537L48.4918 139.105V140Z" fill="#DDC7FD"/>
<path d="M59.2678 140.159C60.8189 140.159 61.9524 139.384 62.3104 138.23L61.1769 137.912C60.8786 138.707 60.1875 139.105 59.2678 139.105C57.8906 139.105 56.9411 138.215 56.8864 136.58H62.4297V136.082C62.4297 133.239 60.7394 132.264 59.1484 132.264C57.0803 132.264 55.7081 133.895 55.7081 136.241C55.7081 138.588 57.0604 140.159 59.2678 140.159ZM56.8864 135.565C56.9659 134.377 57.8061 133.318 59.1484 133.318C60.4212 133.318 61.2365 134.273 61.2365 135.565H56.8864Z" fill="#DDC7FD"/>
<path d="M68.152 140H69.3253V132.364H68.152V140ZM68.7486 131.091C69.206 131.091 69.5838 130.733 69.5838 130.295C69.5838 129.858 69.206 129.5 68.7486 129.5C68.2912 129.5 67.9134 129.858 67.9134 130.295C67.9134 130.733 68.2912 131.091 68.7486 131.091Z" fill="#DDC7FD"/>
<path d="M76.8834 134.074C76.5155 132.99 75.6902 132.264 74.1788 132.264C72.568 132.264 71.3748 133.179 71.3748 134.472C71.3748 135.526 72.0013 136.232 73.4032 136.56L74.676 136.858C75.4466 137.037 75.8095 137.405 75.8095 137.932C75.8095 138.588 75.1135 139.125 74.0197 139.125C73.0602 139.125 72.4586 138.712 72.2498 137.892L71.1362 138.17C71.4096 139.468 72.4785 140.159 74.0396 140.159C75.8145 140.159 77.0226 139.19 77.0226 137.872C77.0226 136.808 76.3564 136.137 74.9942 135.804L73.8606 135.526C72.9558 135.302 72.5481 134.999 72.5481 134.412C72.5481 133.756 73.2442 133.278 74.1788 133.278C75.203 133.278 75.6255 133.845 75.8294 134.372L76.8834 134.074Z" fill="#DDC7FD"/>
<path d="M85.9279 140.159C87.4791 140.159 88.6126 139.384 88.9705 138.23L87.837 137.912C87.5387 138.707 86.8477 139.105 85.9279 139.105C84.5508 139.105 83.6012 138.215 83.5465 136.58H89.0899V136.082C89.0899 133.239 87.3995 132.264 85.8086 132.264C83.7404 132.264 82.3683 133.895 82.3683 136.241C82.3683 138.588 83.7205 140.159 85.9279 140.159ZM83.5465 135.565C83.6261 134.377 84.4663 133.318 85.8086 133.318C87.0813 133.318 87.8967 134.273 87.8967 135.565H83.5465Z" fill="#DDC7FD"/>
<path d="M91.5446 132.364H90.1923L92.6184 136.182L90.1923 140H91.5446L93.3741 137.037L95.2037 140H96.5559L94.09 136.182L96.5559 132.364H95.2037L93.3741 135.486L91.5446 132.364Z" fill="#DDC7FD"/>
<path d="M98.2301 142.864H99.4034V138.827H99.5029C99.7614 139.244 100.259 140.159 101.73 140.159C103.639 140.159 104.972 138.628 104.972 136.202C104.972 133.795 103.639 132.264 101.71 132.264C100.219 132.264 99.7614 133.179 99.5029 133.577H99.3636V132.364H98.2301V142.864ZM99.3835 136.182C99.3835 134.472 100.139 133.318 101.571 133.318C103.063 133.318 103.798 134.571 103.798 136.182C103.798 137.813 103.043 139.105 101.571 139.105C100.159 139.105 99.3835 137.912 99.3835 136.182Z" fill="#DDC7FD"/>
<path d="M109.963 140.159C111.514 140.159 112.648 139.384 113.006 138.23L111.872 137.912C111.574 138.707 110.883 139.105 109.963 139.105C108.586 139.105 107.636 138.215 107.582 136.58H113.125V136.082C113.125 133.239 111.435 132.264 109.844 132.264C107.776 132.264 106.403 133.895 106.403 136.241C106.403 138.588 107.756 140.159 109.963 140.159ZM107.582 135.565C107.661 134.377 108.501 133.318 109.844 133.318C111.116 133.318 111.932 134.273 111.932 135.565H107.582Z" fill="#DDC7FD"/>
<path d="M118.012 140.159C119.702 140.159 120.816 139.125 121.015 137.773H119.842C119.623 138.608 118.927 139.105 118.012 139.105C116.62 139.105 115.725 137.952 115.725 136.182C115.725 134.452 116.64 133.318 118.012 133.318C119.046 133.318 119.663 133.955 119.842 134.651H121.015C120.816 133.219 119.603 132.264 117.992 132.264C115.924 132.264 114.552 133.895 114.552 136.222C114.552 138.509 115.864 140.159 118.012 140.159Z" fill="#DDC7FD"/>
<path d="M126.051 132.364H124.42V130.534H123.247V132.364H122.094V133.358H123.247V138.131C123.247 139.463 124.321 140.099 125.315 140.099C125.753 140.099 126.031 140.02 126.19 139.96L125.952 138.906C125.852 138.926 125.693 138.966 125.435 138.966C124.918 138.966 124.42 138.807 124.42 137.812V133.358H126.051V132.364Z" fill="#DDC7FD"/>
<path d="M130.936 140.159C132.487 140.159 133.62 139.384 133.978 138.23L132.845 137.912C132.547 138.707 131.855 139.105 130.936 139.105C129.559 139.105 128.609 138.215 128.554 136.58H134.098V136.082C134.098 133.239 132.407 132.264 130.816 132.264C128.748 132.264 127.376 133.895 127.376 136.241C127.376 138.588 128.728 140.159 130.936 140.159ZM128.554 135.565C128.634 134.377 129.474 133.318 130.816 133.318C132.089 133.318 132.904 134.273 132.904 135.565H128.554Z" fill="#DDC7FD"/>
<path d="M138.766 140.159C140.238 140.159 140.735 139.244 140.993 138.827H141.132V140H142.266V129.818H141.093V133.577H140.993C140.735 133.179 140.277 132.264 138.786 132.264C136.857 132.264 135.525 133.795 135.525 136.202C135.525 138.628 136.857 140.159 138.766 140.159ZM138.925 139.105C137.453 139.105 136.698 137.813 136.698 136.182C136.698 134.571 137.434 133.318 138.925 133.318C140.357 133.318 141.113 134.472 141.113 136.182C141.113 137.912 140.337 139.105 138.925 139.105Z" fill="#DDC7FD"/>
<path d="M151.836 132.364H150.206V130.534H149.032V132.364H147.879V133.358H149.032V138.131C149.032 139.463 150.106 140.099 151.101 140.099C151.538 140.099 151.816 140.02 151.976 139.96L151.737 138.906C151.637 138.926 151.478 138.966 151.22 138.966C150.703 138.966 150.206 138.807 150.206 137.812V133.358H151.836V132.364Z" fill="#DDC7FD"/>
<path d="M156.621 140.159C158.69 140.159 160.082 138.588 160.082 136.222C160.082 133.835 158.69 132.264 156.621 132.264C154.553 132.264 153.161 133.835 153.161 136.222C153.161 138.588 154.553 140.159 156.621 140.159ZM156.621 139.105C155.05 139.105 154.335 137.753 154.335 136.222C154.335 134.69 155.05 133.318 156.621 133.318C158.192 133.318 158.908 134.69 158.908 136.222C158.908 137.753 158.192 139.105 156.621 139.105Z" fill="#DDC7FD"/>
<path d="M165.81 140H166.984V135.168C166.984 134.134 167.799 133.378 168.912 133.378C169.226 133.378 169.549 133.437 169.628 133.457V132.264C169.494 132.254 169.186 132.244 169.012 132.244C168.097 132.244 167.302 132.761 167.023 133.517H166.944V132.364H165.81V140Z" fill="#DDC7FD"/>
<path d="M173.988 140.159C175.54 140.159 176.673 139.384 177.031 138.23L175.898 137.912C175.599 138.707 174.908 139.105 173.988 139.105C172.611 139.105 171.662 138.215 171.607 136.58H177.15V136.082C177.15 133.239 175.46 132.264 173.869 132.264C171.801 132.264 170.429 133.895 170.429 136.241C170.429 138.588 171.781 140.159 173.988 140.159ZM171.607 135.565C171.687 134.377 172.527 133.318 173.869 133.318C175.142 133.318 175.957 134.273 175.957 135.565H171.607Z" fill="#DDC7FD"/>
<path d="M181.182 140.179C182.515 140.179 183.211 139.463 183.449 138.966H183.509V140H184.682V134.969C184.682 132.543 182.833 132.264 181.859 132.264C180.705 132.264 179.393 132.662 178.796 134.054L179.91 134.452C180.168 133.895 180.78 133.298 181.898 133.298C182.977 133.298 183.509 133.87 183.509 134.849V134.889C183.509 135.456 182.932 135.406 181.54 135.585C180.123 135.769 178.577 136.082 178.577 137.832C178.577 139.324 179.731 140.179 181.182 140.179ZM181.361 139.125C180.427 139.125 179.751 138.707 179.751 137.892C179.751 136.997 180.566 136.719 181.481 136.599C181.978 136.54 183.31 136.401 183.509 136.162V137.236C183.509 138.19 182.753 139.125 181.361 139.125Z" fill="#DDC7FD"/>
<path d="M189.926 140.159C191.616 140.159 192.73 139.125 192.929 137.773H191.756C191.537 138.608 190.841 139.105 189.926 139.105C188.534 139.105 187.639 137.952 187.639 136.182C187.639 134.452 188.554 133.318 189.926 133.318C190.96 133.318 191.577 133.955 191.756 134.651H192.929C192.73 133.219 191.517 132.264 189.906 132.264C187.838 132.264 186.466 133.895 186.466 136.222C186.466 138.509 187.778 140.159 189.926 140.159Z" fill="#DDC7FD"/>
<path d="M195.817 135.406C195.817 134.074 196.668 133.318 197.826 133.318C198.93 133.318 199.596 134.014 199.596 135.227V140H200.769V135.148C200.769 133.184 199.725 132.264 198.164 132.264C196.961 132.264 196.275 132.766 195.917 133.557H195.817V129.818H194.644V140H195.817V135.406Z" fill="#DDC7FD"/>
<path d="M207.012 140H208.146V138.827H208.285C208.544 139.244 209.041 140.159 210.512 140.159C212.421 140.159 213.754 138.628 213.754 136.202C213.754 133.795 212.421 132.264 210.492 132.264C209.001 132.264 208.544 133.179 208.285 133.577H208.186V129.818H207.012V140ZM208.166 136.182C208.166 134.472 208.921 133.318 210.353 133.318C211.845 133.318 212.58 134.571 212.58 136.182C212.58 137.813 211.825 139.105 210.353 139.105C208.941 139.105 208.166 137.912 208.166 136.182Z" fill="#DDC7FD"/>
<path d="M216.031 142.864C217.09 142.864 217.835 142.302 218.278 141.114L221.529 132.384L220.247 132.364L218.139 138.449H218.059L215.951 132.364H214.678L217.502 140.04L217.284 140.636C216.856 141.8 216.329 141.909 215.474 141.69L215.176 142.724C215.295 142.784 215.633 142.864 216.031 142.864Z" fill="#DDC7FD"/>
<path d="M226.999 140H233.423V138.906H228.69V138.827L230.977 136.381C232.727 134.506 233.244 133.631 233.244 132.503C233.244 130.932 231.971 129.679 230.181 129.679C228.396 129.679 227.039 130.892 227.039 132.682H228.212C228.212 131.523 228.963 130.753 230.141 130.753C231.245 130.753 232.09 131.429 232.09 132.503C232.09 133.442 231.538 134.138 230.36 135.426L226.999 139.105V140Z" fill="#DDC7FD"/>
<path d="M238.797 140.139C241.044 140.139 242.337 138.235 242.337 134.909C242.337 131.608 241.024 129.679 238.797 129.679C236.57 129.679 235.257 131.608 235.257 134.909C235.257 138.235 236.55 140.139 238.797 140.139ZM238.797 139.045C237.315 139.045 236.45 137.559 236.45 134.909C236.45 132.264 237.325 130.753 238.797 130.753C240.268 130.753 241.143 132.264 241.143 134.909C241.143 137.559 240.278 139.045 238.797 139.045Z" fill="#DDC7FD"/>
<path d="M244.226 140H250.649V138.906H245.916V138.827L248.203 136.381C249.953 134.506 250.47 133.631 250.47 132.503C250.47 130.932 249.197 129.679 247.408 129.679C245.623 129.679 244.266 130.892 244.266 132.682H245.439C245.439 131.523 246.19 130.753 247.368 130.753C248.472 130.753 249.317 131.429 249.317 132.503C249.317 133.442 248.765 134.138 247.587 135.426L244.226 139.105V140Z" fill="#DDC7FD"/>
<path d="M256.083 140.139C258.141 140.164 259.484 138.613 259.484 136.719C259.484 134.75 258.027 133.338 256.282 133.338C255.233 133.338 254.333 133.85 253.776 134.69H253.697C253.702 132.21 254.666 130.773 256.242 130.773C257.316 130.773 257.962 131.449 258.191 132.364H259.404C259.156 130.783 257.952 129.679 256.242 129.679C253.95 129.679 252.543 131.707 252.543 135.307C252.543 139.07 254.413 140.119 256.083 140.139ZM256.083 139.045C254.805 139.045 253.871 137.957 253.876 136.739C253.881 135.521 254.86 134.432 256.123 134.432C257.371 134.432 258.29 135.456 258.29 136.719C258.29 138.011 257.331 139.045 256.083 139.045Z" fill="#DDC7FD"/>
</g>
<rect y="214" width="400" height="188" rx="10" fill="url(#paint2_linear)" fill-opacity="0.1"/>
<rect opacity="0.3" x="0.5" y="214.5" width="399" height="187" rx="9.5" stroke="url(#paint3_linear)"/>
<path d="M49.5796 291.398C56.6676 291.398 61.2983 287.094 61.2841 281C61.2983 275.474 57.4347 271.568 52.25 271.568C49.2955 271.568 46.9091 272.875 46 274.636H45.8296L46.3977 268.216H59.4659V261.909H39.9205L38.7841 277.932L45.7159 279.295C46.3835 277.875 47.9034 277.023 49.5796 277.023C51.9943 277.023 53.6847 278.685 53.6705 281.227C53.6847 283.77 51.9943 285.432 49.5796 285.432C47.4915 285.432 45.7727 284.153 45.7159 282.136H38.0455C38.0881 287.563 42.875 291.398 49.5796 291.398Z" fill="#DDC7FD"/>
<path d="M78.951 261.909H71.6783L64.5192 266.284V272.989L70.8828 269.182H71.0533V291H78.951V261.909Z" fill="#DDC7FD"/>
<path d="M87.836 291.455C89.924 291.455 91.7848 289.693 91.8132 287.477C91.7848 285.318 89.924 283.557 87.836 283.557C85.6342 283.557 83.8303 285.318 83.8587 287.477C83.8303 289.693 85.6342 291.455 87.836 291.455Z" fill="#DDC7FD"/>
<path d="M113.596 291.398C120.641 291.398 125.812 287.818 125.812 283.102C125.812 279.509 122.786 276.625 119.05 276.057V275.83C122.303 275.261 124.732 272.662 124.732 269.409C124.732 264.864 120.016 261.511 113.596 261.511C107.175 261.511 102.46 264.849 102.46 269.409C102.46 272.648 104.832 275.261 108.141 275.83V276.057C104.349 276.625 101.38 279.509 101.38 283.102C101.38 287.818 106.55 291.398 113.596 291.398ZM113.596 285.943C111.366 285.943 109.732 284.438 109.732 282.42C109.732 280.403 111.366 278.955 113.596 278.955C115.826 278.955 117.46 280.418 117.46 282.42C117.46 284.452 115.826 285.943 113.596 285.943ZM113.596 273.5C111.621 273.5 110.187 272.136 110.187 270.318C110.187 268.5 111.621 267.193 113.596 267.193C115.57 267.193 117.005 268.514 117.005 270.318C117.005 272.151 115.57 273.5 113.596 273.5Z" fill="#DDC7FD"/>
<path d="M145.986 285.545C146.014 289.239 148.401 292.42 152.861 292.42C157.321 292.42 159.821 289.239 159.793 285.545V284.011C159.821 280.261 157.378 277.136 152.861 277.136C148.457 277.136 146.014 280.318 145.986 284.011V285.545ZM130.759 268.898C130.787 272.591 133.173 275.716 137.634 275.716C142.094 275.716 144.594 272.648 144.565 268.898V267.364C144.594 263.614 142.151 260.489 137.634 260.489C133.287 260.489 130.787 263.614 130.759 267.364V268.898ZM132.349 291H136.384L156.384 261.909H152.349L132.349 291ZM150.929 284.011C150.957 282.875 151.355 281.568 152.861 281.568C154.48 281.568 154.821 282.875 154.793 284.011V285.545C154.821 286.682 154.423 287.932 152.861 287.932C151.355 287.932 150.957 286.625 150.929 285.545V284.011ZM135.759 267.364C135.787 266.284 136.128 264.92 137.634 264.92C139.253 264.92 139.594 266.227 139.565 267.364V268.898C139.594 270.034 139.196 271.284 137.634 271.284C136.185 271.284 135.787 270.034 135.759 268.898V267.364Z" fill="#DDC7FD"/>
<path d="M200.034 272.818C199.409 265.602 194.125 261.511 186.795 261.511C178.955 261.511 172.761 266.739 172.761 276.455C172.761 286.128 178.784 291.398 186.795 291.398C195.318 291.398 199.636 285.489 200.034 280.545L192.023 280.489C191.625 282.974 189.864 284.523 186.966 284.523C183.116 284.523 180.886 281.795 180.886 276.455C180.886 271.398 183.045 268.386 187.023 268.386C190.063 268.386 191.795 270.176 192.023 272.818H200.034Z" fill="#DDC7FD"/>
<path d="M210.276 291L211.952 285.432H221.554L223.23 291H231.753L222.151 261.909H211.355L201.753 291H210.276ZM213.741 279.523L216.639 269.92H216.866L219.764 279.523H213.741Z" fill="#DDC7FD"/>
<path d="M252.08 271.511H260.063C259.452 265.673 254.153 261.511 247.278 261.511C239.438 261.511 233.074 266.909 233.074 276.511C233.074 285.716 238.841 291.398 247.335 291.398C254.949 291.398 260.403 286.739 260.403 278.784V274.75H247.506V280.375H252.79C252.719 282.903 250.929 284.523 247.392 284.523C243.301 284.523 241.199 281.511 241.199 276.398C241.199 271.355 243.472 268.386 247.449 268.386C249.92 268.386 251.597 269.523 252.08 271.511Z" fill="#DDC7FD"/>
<path d="M264.086 291H271.984V281.398H274.711L279.825 291H288.404L282.495 280.148C285.592 278.656 287.438 275.83 287.438 271.795C287.438 265.602 283.106 261.909 276.643 261.909H264.086V291ZM271.984 275.261V268.216H274.768C277.538 268.216 279.2 269.295 279.2 271.795C279.2 274.281 277.538 275.261 274.768 275.261H271.984Z" fill="#DDC7FD"/>
<g opacity="0.9">
<path d="M38.233 329H39.4659V325.023H41.6932C41.7827 325.023 41.8672 325.023 41.9517 325.018L44.0994 329H45.5313L43.2294 324.794C44.527 324.352 45.1335 323.293 45.1335 321.94C45.1335 320.141 44.0597 318.818 41.6733 318.818H38.233V329ZM39.4659 323.909V319.912H41.6335C43.2841 319.912 43.9205 320.717 43.9205 321.94C43.9205 323.163 43.2841 323.909 41.6534 323.909H39.4659Z" fill="#DDC7FD"/>
<path d="M47.029 329H48.2022V321.364H47.029V329ZM47.6255 320.091C48.0829 320.091 48.4608 319.733 48.4608 319.295C48.4608 318.858 48.0829 318.5 47.6255 318.5C47.1682 318.5 46.7903 318.858 46.7903 319.295C46.7903 319.733 47.1682 320.091 47.6255 320.091Z" fill="#DDC7FD"/>
<path d="M55.7603 323.074C55.3924 321.99 54.5671 321.264 53.0558 321.264C51.445 321.264 50.2518 322.179 50.2518 323.472C50.2518 324.526 50.8782 325.232 52.2802 325.56L53.5529 325.858C54.3235 326.037 54.6864 326.405 54.6864 326.932C54.6864 327.588 53.9904 328.125 52.8967 328.125C51.9372 328.125 51.3356 327.712 51.1268 326.892L50.0131 327.17C50.2866 328.468 51.3555 329.159 52.9166 329.159C54.6914 329.159 55.8995 328.19 55.8995 326.872C55.8995 325.808 55.2333 325.137 53.8711 324.804L52.7376 324.526C51.8327 324.302 51.4251 323.999 51.4251 323.412C51.4251 322.756 52.1211 322.278 53.0558 322.278C54.0799 322.278 54.5025 322.845 54.7063 323.372L55.7603 323.074Z" fill="#DDC7FD"/>
<path d="M57.6657 329H58.839V321.364H57.6657V329ZM58.2623 320.091C58.7196 320.091 59.0975 319.733 59.0975 319.295C59.0975 318.858 58.7196 318.5 58.2623 318.5C57.8049 318.5 57.427 318.858 57.427 319.295C57.427 319.733 57.8049 320.091 58.2623 320.091Z" fill="#DDC7FD"/>
<path d="M62.1612 324.406C62.1612 323.074 62.9865 322.318 64.1101 322.318C65.1989 322.318 65.8601 323.029 65.8601 324.227V329H67.0334V324.148C67.0334 322.199 65.9943 321.264 64.4482 321.264C63.2948 321.264 62.5788 321.781 62.2209 322.557H62.1215V321.364H60.9879V329H62.1612V324.406Z" fill="#DDC7FD"/>
<path d="M72.2598 332.023C74.0893 332.023 75.5609 331.188 75.5609 329.219V321.364H74.4274V322.577H74.3081C74.0495 322.179 73.5723 321.264 72.0808 321.264C70.1518 321.264 68.8194 322.795 68.8194 325.142C68.8194 327.528 70.2115 328.881 72.0609 328.881C73.5524 328.881 74.0297 328.006 74.2882 327.588H74.3876V329.139C74.3876 330.412 73.4927 330.989 72.2598 330.989C70.8727 330.989 70.3855 330.258 70.0723 329.835L69.1376 330.492C69.6149 331.292 70.5545 332.023 72.2598 332.023ZM72.22 327.827C70.7484 327.827 69.9927 326.713 69.9927 325.122C69.9927 323.571 70.7285 322.318 72.22 322.318C73.6518 322.318 74.4075 323.472 74.4075 325.122C74.4075 326.813 73.6319 327.827 72.22 327.827Z" fill="#DDC7FD"/>
<path d="M83.8933 329.179C85.2257 329.179 85.9217 328.463 86.1603 327.966H86.22V329H87.3933V323.969C87.3933 321.543 85.5439 321.264 84.5694 321.264C83.416 321.264 82.1035 321.662 81.5069 323.054L82.6206 323.452C82.8791 322.895 83.4906 322.298 84.6092 322.298C85.688 322.298 86.22 322.87 86.22 323.849V323.889C86.22 324.456 85.6433 324.406 84.2513 324.585C82.8343 324.769 81.2882 325.082 81.2882 326.832C81.2882 328.324 82.4416 329.179 83.8933 329.179ZM84.0723 328.125C83.1376 328.125 82.4615 327.707 82.4615 326.892C82.4615 325.997 83.2768 325.719 84.1916 325.599C84.6888 325.54 86.0211 325.401 86.22 325.162V326.236C86.22 327.19 85.4643 328.125 84.0723 328.125Z" fill="#DDC7FD"/>
<path d="M92.8558 321.364H91.2252V319.534H90.0519V321.364H88.8984V322.358H90.0519V327.131C90.0519 328.463 91.1257 329.099 92.12 329.099C92.5575 329.099 92.8359 329.02 92.995 328.96L92.7564 327.906C92.657 327.926 92.4979 327.966 92.2394 327.966C91.7223 327.966 91.2252 327.807 91.2252 326.813V322.358H92.8558V321.364Z" fill="#DDC7FD"/>
<path d="M100.805 329.179C102.138 329.179 102.834 328.463 103.072 327.966H103.132V329H104.305V323.969C104.305 321.543 102.456 321.264 101.482 321.264C100.328 321.264 99.0156 321.662 98.419 323.054L99.5327 323.452C99.7912 322.895 100.403 322.298 101.521 322.298C102.6 322.298 103.132 322.87 103.132 323.849V323.889C103.132 324.456 102.555 324.406 101.163 324.585C99.7465 324.769 98.2003 325.082 98.2003 326.832C98.2003 328.324 99.3537 329.179 100.805 329.179ZM100.984 328.125C100.05 328.125 99.3736 327.707 99.3736 326.892C99.3736 325.997 100.189 325.719 101.104 325.599C101.601 325.54 102.933 325.401 103.132 325.162V326.236C103.132 327.19 102.376 328.125 100.984 328.125Z" fill="#DDC7FD"/>
<path d="M110.384 329H111.558V324.227C111.558 323.109 112.373 322.318 113.288 322.318C114.178 322.318 114.799 322.9 114.799 323.77V329H115.992V324.028C115.992 323.044 116.609 322.318 117.683 322.318C118.518 322.318 119.234 322.761 119.234 323.889V329H120.407V323.889C120.407 322.094 119.443 321.264 118.08 321.264C116.987 321.264 116.186 321.766 115.794 322.557H115.714C115.336 321.742 114.67 321.264 113.666 321.264C112.671 321.264 111.936 321.742 111.617 322.557H111.518V321.364H110.384V329Z" fill="#DDC7FD"/>
<path d="M124.8 329.179C126.132 329.179 126.828 328.463 127.067 327.966H127.126V329H128.3V323.969C128.3 321.543 126.45 321.264 125.476 321.264C124.322 321.264 123.01 321.662 122.413 323.054L123.527 323.452C123.785 322.895 124.397 322.298 125.515 322.298C126.594 322.298 127.126 322.87 127.126 323.849V323.889C127.126 324.456 126.55 324.406 125.158 324.585C123.741 324.769 122.194 325.082 122.194 326.832C122.194 328.324 123.348 329.179 124.8 329.179ZM124.979 328.125C124.044 328.125 123.368 327.707 123.368 326.892C123.368 325.997 124.183 325.719 125.098 325.599C125.595 325.54 126.927 325.401 127.126 325.162V326.236C127.126 327.19 126.371 328.125 124.979 328.125Z" fill="#DDC7FD"/>
<path d="M130.441 329H131.614V324.168C131.614 323.134 132.43 322.378 133.543 322.378C133.857 322.378 134.18 322.438 134.259 322.457V321.264C134.125 321.254 133.817 321.244 133.643 321.244C132.728 321.244 131.933 321.761 131.654 322.517H131.575V321.364H130.441V329Z" fill="#DDC7FD"/>
<path d="M135.65 329H136.823V326.141L137.644 325.381L140.502 329H141.994L138.529 324.625L141.755 321.364H140.303L136.963 324.764H136.823V318.818H135.65V329Z" fill="#DDC7FD"/>
<path d="M146.153 329.159C147.704 329.159 148.837 328.384 149.195 327.23L148.062 326.912C147.763 327.707 147.072 328.105 146.153 328.105C144.775 328.105 143.826 327.215 143.771 325.58H149.314V325.082C149.314 322.239 147.624 321.264 146.033 321.264C143.965 321.264 142.593 322.895 142.593 325.242C142.593 327.588 143.945 329.159 146.153 329.159ZM143.771 324.565C143.851 323.377 144.691 322.318 146.033 322.318C147.306 322.318 148.121 323.273 148.121 324.565H143.771Z" fill="#DDC7FD"/>
<path d="M154.42 321.364H152.79V319.534H151.616V321.364H150.463V322.358H151.616V327.131C151.616 328.463 152.69 329.099 153.684 329.099C154.122 329.099 154.4 329.02 154.559 328.96L154.321 327.906C154.221 327.926 154.062 327.966 153.804 327.966C153.287 327.966 152.79 327.807 152.79 326.813V322.358H154.42V321.364Z" fill="#DDC7FD"/>
<path d="M163.205 332.023C165.035 332.023 166.506 331.188 166.506 329.219V321.364H165.373V322.577H165.253C164.995 322.179 164.518 321.264 163.026 321.264C161.097 321.264 159.765 322.795 159.765 325.142C159.765 327.528 161.157 328.881 163.006 328.881C164.498 328.881 164.975 328.006 165.233 327.588H165.333V329.139C165.333 330.412 164.438 330.989 163.205 330.989C161.818 330.989 161.331 330.258 161.018 329.835L160.083 330.492C160.56 331.292 161.5 332.023 163.205 332.023ZM163.165 327.827C161.694 327.827 160.938 326.713 160.938 325.122C160.938 323.571 161.674 322.318 163.165 322.318C164.597 322.318 165.353 323.472 165.353 325.122C165.353 326.813 164.577 327.827 163.165 327.827Z" fill="#DDC7FD"/>
<path d="M168.654 329H169.827V324.168C169.827 323.134 170.643 322.378 171.756 322.378C172.069 322.378 172.393 322.438 172.472 322.457V321.264C172.338 321.254 172.03 321.244 171.856 321.244C170.941 321.244 170.145 321.761 169.867 322.517H169.787V321.364H168.654V329Z" fill="#DDC7FD"/>
<path d="M176.733 329.159C178.801 329.159 180.193 327.588 180.193 325.222C180.193 322.835 178.801 321.264 176.733 321.264C174.665 321.264 173.273 322.835 173.273 325.222C173.273 327.588 174.665 329.159 176.733 329.159ZM176.733 328.105C175.162 328.105 174.446 326.753 174.446 325.222C174.446 323.69 175.162 322.318 176.733 322.318C178.304 322.318 179.02 323.69 179.02 325.222C179.02 326.753 178.304 328.105 176.733 328.105Z" fill="#DDC7FD"/>
<path d="M183.454 329H184.608L186.278 323.134H186.398L188.068 329H189.221L191.548 321.364H190.315L188.665 327.19H188.585L186.974 321.364H185.721L184.091 327.21H184.011L182.361 321.364H181.128L183.454 329Z" fill="#DDC7FD"/>
<path d="M196.42 321.364H194.79V319.534H193.616V321.364H192.463V322.358H193.616V327.131C193.616 328.463 194.69 329.099 195.684 329.099C196.122 329.099 196.4 329.02 196.559 328.96L196.321 327.906C196.221 327.926 196.062 327.966 195.804 327.966C195.287 327.966 194.79 327.807 194.79 326.813V322.358H196.42V321.364Z" fill="#DDC7FD"/>
<path d="M199.523 324.406C199.523 323.074 200.373 322.318 201.531 322.318C202.635 322.318 203.301 323.014 203.301 324.227V329H204.474V324.148C204.474 322.184 203.43 321.264 201.869 321.264C200.666 321.264 199.98 321.766 199.622 322.557H199.523V318.818H198.349V329H199.523V324.406Z" fill="#DDC7FD"/>
<path d="M213.661 329.159C215.729 329.159 217.121 327.588 217.121 325.222C217.121 322.835 215.729 321.264 213.661 321.264C211.592 321.264 210.2 322.835 210.2 325.222C210.2 327.588 211.592 329.159 213.661 329.159ZM213.661 328.105C212.089 328.105 211.374 326.753 211.374 325.222C211.374 323.69 212.089 322.318 213.661 322.318C215.232 322.318 215.947 323.69 215.947 325.222C215.947 326.753 215.232 328.105 213.661 328.105Z" fill="#DDC7FD"/>
<path d="M222.312 321.364H220.602V320.588C220.602 319.832 220.92 319.435 221.696 319.435C222.034 319.435 222.233 319.514 222.352 319.554L222.69 318.54C222.511 318.46 222.153 318.341 221.577 318.341C220.483 318.341 219.429 318.997 219.429 320.31V321.364H218.196V322.358H219.429V329H220.602V322.358H222.312V321.364Z" fill="#DDC7FD"/>
<path d="M228.053 329H229.187V327.827H229.326C229.585 328.244 230.082 329.159 231.553 329.159C233.462 329.159 234.795 327.628 234.795 325.202C234.795 322.795 233.462 321.264 231.533 321.264C230.042 321.264 229.585 322.179 229.326 322.577H229.227V318.818H228.053V329ZM229.207 325.182C229.207 323.472 229.962 322.318 231.394 322.318C232.886 322.318 233.621 323.571 233.621 325.182C233.621 326.813 232.866 328.105 231.394 328.105C229.982 328.105 229.207 326.912 229.207 325.182Z" fill="#DDC7FD"/>
<path d="M239.791 329.159C241.342 329.159 242.476 328.384 242.834 327.23L241.7 326.912C241.402 327.707 240.711 328.105 239.791 328.105C238.414 328.105 237.465 327.215 237.41 325.58H242.953V325.082C242.953 322.239 241.263 321.264 239.672 321.264C237.604 321.264 236.232 322.895 236.232 325.242C236.232 327.588 237.584 329.159 239.791 329.159ZM237.41 324.565C237.489 323.377 238.33 322.318 239.672 322.318C240.945 322.318 241.76 323.273 241.76 324.565H237.41Z" fill="#DDC7FD"/>
<path d="M248.059 321.364H246.428V319.534H245.255V321.364H244.102V322.358H245.255V327.131C245.255 328.463 246.329 329.099 247.323 329.099C247.761 329.099 248.039 329.02 248.198 328.96L247.96 327.906C247.86 327.926 247.701 327.966 247.442 327.966C246.925 327.966 246.428 327.807 246.428 326.813V322.358H248.059V321.364Z" fill="#DDC7FD"/>
<path d="M251.554 329H252.707L254.378 323.134H254.497L256.168 329H257.321L259.648 321.364H258.415L256.764 327.19H256.685L255.074 321.364H253.821L252.19 327.21H252.111L250.46 321.364H249.227L251.554 329Z" fill="#DDC7FD"/>
<path d="M264.141 329.159C265.692 329.159 266.825 328.384 267.183 327.23L266.05 326.912C265.752 327.707 265.061 328.105 264.141 328.105C262.764 328.105 261.814 327.215 261.759 325.58H267.303V325.082C267.303 322.239 265.612 321.264 264.021 321.264C261.953 321.264 260.581 322.895 260.581 325.242C260.581 327.588 261.933 329.159 264.141 329.159ZM261.759 324.565C261.839 323.377 262.679 322.318 264.021 322.318C265.294 322.318 266.11 323.273 266.11 324.565H261.759Z" fill="#DDC7FD"/>
<path d="M272.289 329.159C273.84 329.159 274.974 328.384 275.332 327.23L274.198 326.912C273.9 327.707 273.209 328.105 272.289 328.105C270.912 328.105 269.963 327.215 269.908 325.58H275.451V325.082C275.451 322.239 273.761 321.264 272.17 321.264C270.102 321.264 268.73 322.895 268.73 325.242C268.73 327.588 270.082 329.159 272.289 329.159ZM269.908 324.565C269.987 323.377 270.828 322.318 272.17 322.318C273.443 322.318 274.258 323.273 274.258 324.565H269.908Z" fill="#DDC7FD"/>
<path d="M278.409 324.406C278.409 323.074 279.235 322.318 280.358 322.318C281.447 322.318 282.108 323.029 282.108 324.227V329H283.281V324.148C283.281 322.199 282.242 321.264 280.696 321.264C279.543 321.264 278.827 321.781 278.469 322.557H278.37V321.364H277.236V329H278.409V324.406Z" fill="#DDC7FD"/>
<path d="M38.054 354H44.4773V352.906H39.7443V352.827L42.0313 350.381C43.7813 348.506 44.2983 347.631 44.2983 346.503C44.2983 344.932 43.0256 343.679 41.2358 343.679C39.451 343.679 38.0938 344.892 38.0938 346.682H39.2671C39.2671 345.523 40.0178 344.753 41.196 344.753C42.2997 344.753 43.1449 345.429 43.1449 346.503C43.1449 347.443 42.593 348.139 41.4148 349.426L38.054 353.105V354Z" fill="#DDC7FD"/>
<path d="M49.8516 354.139C52.0987 354.139 53.3913 352.235 53.3913 348.909C53.3913 345.608 52.0788 343.679 49.8516 343.679C47.6243 343.679 46.3118 345.608 46.3118 348.909C46.3118 352.235 47.6044 354.139 49.8516 354.139ZM49.8516 353.045C48.37 353.045 47.505 351.559 47.505 348.909C47.505 346.264 48.38 344.753 49.8516 344.753C51.3232 344.753 52.1982 346.264 52.1982 348.909C52.1982 351.559 51.3331 353.045 49.8516 353.045Z" fill="#DDC7FD"/>
<path d="M55.2805 354H61.7038V352.906H56.9709V352.827L59.2578 350.381C61.0078 348.506 61.5249 347.631 61.5249 346.503C61.5249 344.932 60.2521 343.679 58.4624 343.679C56.6776 343.679 55.3203 344.892 55.3203 346.682H56.4936C56.4936 345.523 57.2443 344.753 58.4226 344.753C59.5263 344.753 60.3715 345.429 60.3715 346.503C60.3715 347.443 59.8196 348.139 58.6413 349.426L55.2805 353.105V354Z" fill="#DDC7FD"/>
<path d="M67.3367 343.818H66.1037L63.5582 345.509V346.761L66.044 345.111H66.1037V354H67.3367V343.818Z" fill="#DDC7FD"/>
<path d="M74.6598 348.362H70.2053V349.456H74.6598V348.362Z" fill="#DDC7FD"/>
<path d="M76.2259 354H82.6492V352.906H77.9162V352.827L80.2031 350.381C81.9531 348.506 82.4702 347.631 82.4702 346.503C82.4702 344.932 81.1974 343.679 79.4077 343.679C77.6229 343.679 76.2656 344.892 76.2656 346.682H77.4389C77.4389 345.523 78.1896 344.753 79.3679 344.753C80.4716 344.753 81.3168 345.429 81.3168 346.503C81.3168 347.443 80.7649 348.139 79.5867 349.426L76.2259 353.105V354Z" fill="#DDC7FD"/>
<path d="M88.0234 354.139C90.2706 354.139 91.5632 352.235 91.5632 348.909C91.5632 345.608 90.2507 343.679 88.0234 343.679C85.7962 343.679 84.4837 345.608 84.4837 348.909C84.4837 352.235 85.7763 354.139 88.0234 354.139ZM88.0234 353.045C86.5419 353.045 85.6769 351.559 85.6769 348.909C85.6769 346.264 86.5519 344.753 88.0234 344.753C89.495 344.753 90.37 346.264 90.37 348.909C90.37 351.559 89.505 353.045 88.0234 353.045Z" fill="#DDC7FD"/>
<path d="M93.4524 354H99.8757V352.906H95.1428V352.827L97.4297 350.381C99.1797 348.506 99.6967 347.631 99.6967 346.503C99.6967 344.932 98.424 343.679 96.6342 343.679C94.8494 343.679 93.4922 344.892 93.4922 346.682H94.6655C94.6655 345.523 95.4162 344.753 96.5945 344.753C97.6982 344.753 98.5433 345.429 98.5433 346.503C98.5433 347.443 97.9915 348.139 96.8132 349.426L93.4524 353.105V354Z" fill="#DDC7FD"/>
<path d="M102.247 354H103.54L108.074 344.972V343.818H101.551V344.912H106.801V344.992L102.247 354Z" fill="#DDC7FD"/>
</g>
<defs>
<linearGradient id="paint0_linear" x1="-15" y1="170" x2="200" y2="170" gradientUnits="userSpaceOnUse">
<stop stop-color="#5D28AB"/>
<stop offset="1" stop-color="#5D28AB" stop-opacity="0"/>
</linearGradient>
<linearGradient id="paint1_linear" x1="6" y1="58" x2="319" y2="139" gradientUnits="userSpaceOnUse">
<stop stop-color="#5D28AB"/>
<stop offset="1" stop-color="#5D28AB" stop-opacity="0"/>
</linearGradient>
<linearGradient id="paint2_linear" x1="-15" y1="384" x2="200" y2="384" gradientUnits="userSpaceOnUse">
<stop stop-color="#5D28AB"/>
<stop offset="1" stop-color="#5D28AB" stop-opacity="0"/>
</linearGradient>
<linearGradient id="paint3_linear" x1="6" y1="272" x2="319" y2="353" gradientUnits="userSpaceOnUse">
<stop stop-color="#5D28AB"/>
<stop offset="1" stop-color="#5D28AB" stop-opacity="0"/>
</linearGradient>
</defs>
</svg>
