<svg width="130" height="130" viewBox="0 0 130 130" fill="none" xmlns="http://www.w3.org/2000/svg">
<path d="M65.0013 10.3921C34.8421 10.3921 10.3937 34.8415 10.3937 65.0005C10.3937 95.1584 34.8421 119.607 65.0013 119.607C95.1585 119.607 119.608 95.1584 119.608 65.0005C119.608 34.8415 95.1585 10.3921 65.0013 10.3921Z" fill="#F8F3FF"/>
<path d="M65.0005 25C42.9087 25 25.0002 42.9091 25.0002 65.0006C25.0002 87.0912 42.9087 105 65.0005 105C87.0908 105 105 87.0912 105 65.0006C105 42.9091 87.0908 25 65.0005 25Z" fill="#6857E5"/>
<path d="M65.0004 35C48.4316 35 35.0002 48.4319 35.0002 65.0004C35.0002 81.5684 48.4316 95 65.0004 95C81.5682 95 95.0001 81.5684 95.0001 65.0004C95.0001 48.4319 81.5682 35 65.0004 35Z" fill="#8C7BFD"/>
<path d="M65.001 0.253906C29.2995 0.253906 0.253906 29.299 0.253906 65.0005C0.253906 100.702 29.2995 129.746 65.001 129.746C100.702 129.746 129.746 100.702 129.746 65.0005C129.746 29.299 100.702 0.253906 65.001 0.253906ZM65.001 127.672C30.4434 127.672 2.32934 99.5577 2.32934 65.0005C2.32934 30.4429 30.4434 2.32807 65.001 2.32807C99.5582 2.32807 127.671 30.4429 127.671 65.0005C127.671 99.5577 99.5579 127.672 65.001 127.672Z" fill="#6F3ABE"/>
<path d="M74.0312 59.875H66.3281L69.1836 51.3086C69.4492 50.2461 68.6523 49.25 67.6562 49.25H58.0938C57.2969 49.25 56.5664 49.8477 56.5 50.6445L54.375 66.582C54.2422 67.5781 54.9727 68.375 55.9688 68.375H63.8047L60.75 81.3242C60.5508 82.3203 61.2812 83.25 62.2773 83.25C62.875 83.25 63.4062 82.9844 63.6719 82.4531L75.3594 62.2656C76.0234 61.2695 75.2266 59.875 74.0312 59.875Z" fill="#FFBE1B"/>
<path d="M85.646 24.2227C83.6445 23.7421 82.0822 22.2445 81.5789 20.3278L81.4936 20L81.4088 20.3278C80.9063 22.2445 79.3428 23.7421 77.341 24.2227L77 24.3042L77.341 24.3862C79.343 24.8666 80.9063 26.3637 81.4088 28.2806L81.4936 28.6082L81.5789 28.2806C82.0822 26.3637 83.6447 24.8664 85.646 24.3862L85.9885 24.3042L85.646 24.2227Z" fill="#5D8EF9"/>
<path d="M98.437 31.7121C95.0341 30.8951 92.3777 28.3489 91.5221 25.0903L91.3768 24.5334L91.2326 25.0903C90.3787 28.3486 87.7206 30.8951 84.3167 31.7121L83.7373 31.8508L84.3167 31.9899C87.7206 32.8065 90.3787 35.3521 91.2326 38.6113L91.3768 39.1678L91.5221 38.6113C92.3777 35.3521 95.0341 32.8065 98.437 31.9899L99.0192 31.8508L98.437 31.7121Z" fill="#5D8EF9"/>
</svg>
