<svg width="512" height="512" viewBox="0 0 512 512" fill="none" xmlns="http://www.w3.org/2000/svg">
<path d="M1.53902 256.004C1.53902 115.469 115.465 1.53902 256.002 1.53902C396.53 1.53902 510.461 115.469 510.461 256.004C510.461 396.533 396.53 510.461 256.002 510.461C115.465 510.461 1.53902 396.533 1.53902 256.004Z" stroke="url(#paint0_linear)" stroke-width="1.07805"/>
<path d="M256.002 23C127.317 23 23 127.321 23 256.003C23 384.681 127.317 489 256.002 489C384.678 489 489 384.681 489 256.003C489 127.321 384.678 23 256.002 23Z" fill="url(#paint1_linear)" fill-opacity="0.5"/>
<path d="M256.002 51C142.781 51 51 142.785 51 256.003C51 369.217 142.781 461 256.002 461C369.215 461 461 369.217 461 256.003C461 142.785 369.215 51 256.002 51Z" fill="url(#paint2_linear)"/>
<path d="M220.574 259.735L222.032 261.194L202.502 261.194L202.502 262.973L222.032 262.973L220.573 264.431C220.225 264.779 220.226 265.341 220.573 265.689C220.92 266.037 221.483 266.037 221.83 265.689L224.808 262.714C225.112 262.41 225.15 261.94 224.922 261.594C224.889 261.545 224.852 261.499 224.808 261.456L221.832 258.478C221.485 258.13 220.922 258.13 220.575 258.477C220.227 258.825 220.227 259.387 220.574 259.735Z" fill="#935CE4"/>
<path d="M195.137 261.194L200.818 261.194L200.818 262.973L195.137 262.973L195.137 261.194Z" fill="#935CE4"/>
<path d="M180.138 261.194L185.819 261.194L185.819 262.973L180.138 262.973L180.138 261.194Z" fill="#935CE4"/>
<path d="M165.138 261.194L178.502 261.194L178.502 262.973L165.138 262.973L165.138 261.194Z" fill="#935CE4"/>
<path d="M150.137 261.194L155.818 261.194L155.818 262.973L150.137 262.973L150.137 261.194Z" fill="#935CE4"/>
<path d="M187.819 261.194L193.5 261.194L193.5 262.973L187.819 262.973L187.819 261.194Z" fill="#935CE4"/>
<path d="M157.819 261.194L163.5 261.194L163.5 262.973L157.819 262.973L157.819 261.194Z" fill="#935CE4"/>
<path d="M142.819 261.194L148.5 261.194L148.5 262.973L142.819 262.973L142.819 261.194Z" fill="#935CE4"/>
<path d="M330.574 257.735L332.032 259.194L312.502 259.194L312.502 260.973L332.032 260.973L330.573 262.431C330.225 262.779 330.226 263.341 330.573 263.689C330.92 264.037 331.483 264.037 331.83 263.689L334.808 260.714C335.112 260.41 335.15 259.94 334.922 259.594C334.889 259.545 334.852 259.499 334.808 259.456L331.832 256.478C331.485 256.13 330.922 256.13 330.575 256.477C330.227 256.825 330.227 257.387 330.574 257.735Z" fill="#935CE4"/>
<path d="M305.137 259.194L310.818 259.194L310.818 260.973L305.137 260.973L305.137 259.194Z" fill="#935CE4"/>
<path d="M290.138 259.194L295.819 259.194L295.819 260.973L290.138 260.973L290.138 259.194Z" fill="#935CE4"/>
<path d="M275.138 259.194L288.502 259.194L288.502 260.973L275.138 260.973L275.138 259.194Z" fill="#935CE4"/>
<path d="M260.137 259.194L265.818 259.194L265.818 260.973L260.137 260.973L260.137 259.194Z" fill="#935CE4"/>
<path d="M297.819 259.194L303.5 259.194L303.5 260.973L297.819 260.973L297.819 259.194Z" fill="#935CE4"/>
<path d="M267.819 259.194L273.5 259.194L273.5 260.973L267.819 260.973L267.819 259.194Z" fill="#935CE4"/>
<path d="M252.819 259.194L258.5 259.194L258.5 260.973L252.819 260.973L252.819 259.194Z" fill="#935CE4"/>
<path d="M158.68 248.228C157.775 247.491 156.574 248.278 156.047 248.699C156.221 251.012 156.65 252.776 156.775 253.248C156.819 254.49 156.856 255.605 156.881 256.52C157.133 256.569 157.397 256.568 157.645 256.447C158.473 256.042 159.231 252.786 159.509 251.734C159.786 250.681 159.871 249.198 158.68 248.228Z" fill="#FFBE1B"/>
<path d="M120.922 248.228C119.731 249.198 119.817 250.681 120.092 251.733C120.369 252.785 121.128 256.042 121.957 256.447C122.785 256.85 123.821 255.99 123.821 255.99V248.93C123.821 248.93 122.112 247.258 120.922 248.228Z" fill="#FFBE1B"/>
<path d="M148.142 272.435C147.851 271.528 147.702 270.592 147.642 269.694C146.322 270.479 145.028 271.084 143.741 271.68C142.643 272.188 138.632 272.311 137.267 271.677C136.218 271.188 134.847 270.473 133.469 269.664C133.41 270.571 133.261 271.517 132.967 272.435C132.627 273.496 130.506 274.367 128.172 275.23C128.622 275.851 132.95 281.534 140.638 281.534C148.647 281.534 152.783 275.665 153.079 275.23C150.578 274.446 148.54 273.678 148.142 272.435Z" fill="#FFBE1B"/>
<path d="M156.775 253.248C156.61 252.623 155.91 249.737 155.977 246.303C156.013 244.434 156.21 242.278 155.994 240.913C155.778 239.547 155.06 237.318 153.407 237.175C153.407 237.175 146.045 245.426 130.257 244.389C128.726 244.288 127.366 244.046 126.151 243.699C124.646 244.872 124.104 246.349 124.146 247.559C124.287 251.632 123.76 255.28 123.693 255.728C123.688 256.392 123.686 257.027 123.686 257.618C123.686 261.813 126.269 264.525 130.103 267.449C132.241 269.081 135.315 270.768 137.267 271.677C138.631 272.311 142.643 272.188 143.741 271.68C145.804 270.726 147.885 269.744 150.056 268.045C153.613 265.264 156.92 262.113 156.92 258.575C156.92 257.683 156.862 255.713 156.775 253.248Z" fill="#FFE37B"/>
<path d="M140.33 263.097C139.773 263.097 139.303 263.284 138.92 263.659C138.538 264.033 138.346 264.495 138.346 265.043C138.346 265.661 138.544 266.142 138.94 266.484C139.336 266.829 139.799 267 140.33 267C140.844 267 141.296 266.825 141.687 266.478C142.079 266.131 142.275 265.652 142.275 265.043C142.275 264.494 142.088 264.033 141.714 263.659C141.339 263.284 140.878 263.097 140.33 263.097ZM146.223 249.837C145.696 249.037 144.95 248.404 143.984 247.938C143.019 247.473 141.904 247.24 140.643 247.24C139.286 247.24 138.098 247.519 137.08 248.075C136.062 248.632 135.288 249.335 134.757 250.183C134.226 251.032 133.961 251.869 133.961 252.695C133.961 253.096 134.128 253.468 134.463 253.812C134.799 254.155 135.209 254.326 135.697 254.326C136.523 254.326 137.085 253.835 137.381 252.852C137.694 251.912 138.077 251.201 138.53 250.718C138.982 250.235 139.687 249.994 140.644 249.994C141.461 249.994 142.129 250.233 142.647 250.711C143.165 251.19 143.424 251.777 143.424 252.473C143.424 252.83 143.339 253.161 143.169 253.465C142.999 253.77 142.791 254.046 142.543 254.294C142.295 254.542 141.892 254.909 141.336 255.396C140.7 255.954 140.196 256.434 139.821 256.839C139.447 257.243 139.147 257.713 138.921 258.248C138.695 258.784 138.581 259.416 138.581 260.148C138.581 260.731 138.736 261.169 139.045 261.465C139.354 261.762 139.734 261.909 140.187 261.909C141.057 261.909 141.575 261.457 141.74 260.551C141.835 260.126 141.907 259.828 141.955 259.658C142.003 259.488 142.07 259.318 142.158 259.149C142.244 258.979 142.377 258.793 142.555 258.588C142.734 258.383 142.971 258.146 143.267 257.876C144.337 256.919 145.079 256.238 145.493 255.833C145.906 255.429 146.263 254.948 146.563 254.392C146.863 253.834 147.013 253.186 147.013 252.447C147.012 251.508 146.749 250.638 146.223 249.837Z" fill="white"/>
<path d="M156.75 229.961C154.928 227.743 152.652 226.613 150.135 226.922C148.219 224.428 143.373 223.574 138.738 224.194C133.626 224.877 130.664 225.73 126.99 228.22C124.888 229.644 121.197 233.028 120.657 237.175C119.91 242.911 122.49 249.847 122.567 250.401C122.86 252.538 123.686 255.775 123.686 255.775C123.686 255.775 124.296 251.909 124.146 247.56C124.104 246.349 124.646 244.872 126.151 243.699C127.366 244.047 128.726 244.289 130.258 244.39C146.045 245.426 153.408 237.176 153.408 237.176C155.06 237.318 155.779 239.547 155.994 240.913C156.21 242.279 156.014 244.434 155.977 246.304C155.902 250.189 156.81 253.378 156.81 253.378C156.81 253.378 157.239 251.655 157.838 247.154C158.18 244.579 161.579 235.843 156.75 229.961Z" fill="#5D8EF9"/>
<path d="M161.257 277.662L153.098 275.203C153.098 275.203 148.955 281.535 140.638 281.535C132.504 281.535 128.13 275.172 128.13 275.172L119.628 277.687C115.104 279.027 112 283.182 112 287.902V292.443C112 294.1 113.343 295.443 115 295.443H165.834C167.491 295.443 168.834 294.1 168.834 292.443V287.859C168.834 283.161 165.756 279.017 161.257 277.662Z" fill="#6857E5"/>
<path d="M269.68 248.228C268.775 247.491 267.574 248.278 267.047 248.699C267.221 251.012 267.65 252.776 267.775 253.248C267.819 254.49 267.856 255.605 267.881 256.52C268.133 256.569 268.397 256.568 268.645 256.447C269.473 256.042 270.231 252.786 270.509 251.734C270.786 250.681 270.871 249.198 269.68 248.228Z" fill="#FFBE1B"/>
<path d="M231.922 248.228C230.731 249.198 230.817 250.681 231.092 251.733C231.369 252.785 232.128 256.042 232.957 256.447C233.785 256.85 234.821 255.99 234.821 255.99V248.93C234.821 248.93 233.112 247.258 231.922 248.228Z" fill="#FFBE1B"/>
<path d="M259.142 272.435C258.851 271.528 258.702 270.592 258.642 269.694C257.322 270.479 256.028 271.084 254.741 271.68C253.643 272.188 249.632 272.311 248.267 271.677C247.218 271.188 245.847 270.473 244.469 269.664C244.41 270.571 244.261 271.517 243.967 272.435C243.627 273.496 241.506 274.367 239.172 275.23C239.622 275.851 243.95 281.534 251.638 281.534C259.647 281.534 263.783 275.665 264.079 275.23C261.578 274.446 259.54 273.678 259.142 272.435Z" fill="#FFBE1B"/>
<path d="M267.775 253.248C267.61 252.623 266.91 249.737 266.977 246.303C267.013 244.434 267.21 242.278 266.994 240.913C266.778 239.547 266.06 237.318 264.407 237.175C264.407 237.175 257.045 245.426 241.257 244.389C239.726 244.288 238.366 244.046 237.151 243.699C235.646 244.872 235.104 246.349 235.146 247.559C235.287 251.632 234.76 255.28 234.693 255.728C234.688 256.392 234.686 257.027 234.686 257.618C234.686 261.813 237.269 264.525 241.103 267.449C243.241 269.081 246.315 270.768 248.267 271.677C249.631 272.311 253.643 272.188 254.741 271.68C256.804 270.726 258.885 269.744 261.056 268.045C264.613 265.264 267.92 262.113 267.92 258.575C267.92 257.683 267.862 255.713 267.775 253.248Z" fill="#FFE37B"/>
<path d="M251.33 263.097C250.773 263.097 250.303 263.284 249.92 263.659C249.538 264.033 249.346 264.495 249.346 265.043C249.346 265.661 249.544 266.142 249.94 266.484C250.336 266.829 250.799 267 251.33 267C251.844 267 252.296 266.825 252.687 266.478C253.079 266.131 253.275 265.652 253.275 265.043C253.275 264.494 253.088 264.033 252.714 263.659C252.339 263.284 251.878 263.097 251.33 263.097ZM257.223 249.837C256.696 249.037 255.95 248.404 254.984 247.938C254.019 247.473 252.904 247.24 251.643 247.24C250.286 247.24 249.098 247.519 248.08 248.075C247.062 248.632 246.288 249.335 245.757 250.183C245.226 251.032 244.961 251.869 244.961 252.695C244.961 253.096 245.128 253.468 245.463 253.812C245.799 254.155 246.209 254.326 246.697 254.326C247.523 254.326 248.085 253.835 248.381 252.852C248.694 251.912 249.077 251.201 249.53 250.718C249.982 250.235 250.687 249.994 251.644 249.994C252.461 249.994 253.129 250.233 253.647 250.711C254.165 251.19 254.424 251.777 254.424 252.473C254.424 252.83 254.339 253.161 254.169 253.465C253.999 253.77 253.791 254.046 253.543 254.294C253.295 254.542 252.892 254.909 252.336 255.396C251.7 255.954 251.196 256.434 250.821 256.839C250.447 257.243 250.147 257.713 249.921 258.248C249.695 258.784 249.581 259.416 249.581 260.148C249.581 260.731 249.736 261.169 250.045 261.465C250.354 261.762 250.734 261.909 251.187 261.909C252.057 261.909 252.575 261.457 252.74 260.551C252.835 260.126 252.907 259.828 252.955 259.658C253.003 259.488 253.07 259.318 253.158 259.149C253.244 258.979 253.377 258.793 253.555 258.588C253.734 258.383 253.971 258.146 254.267 257.876C255.337 256.919 256.079 256.238 256.493 255.833C256.906 255.429 257.263 254.948 257.563 254.392C257.863 253.834 258.013 253.186 258.013 252.447C258.012 251.508 257.749 250.638 257.223 249.837Z" fill="white"/>
<path d="M267.75 229.961C265.928 227.743 263.652 226.613 261.135 226.922C259.219 224.428 254.373 223.574 249.738 224.194C244.626 224.877 241.664 225.73 237.99 228.22C235.888 229.644 232.197 233.028 231.657 237.175C230.91 242.911 233.49 249.847 233.567 250.401C233.86 252.538 234.686 255.775 234.686 255.775C234.686 255.775 235.296 251.909 235.146 247.56C235.104 246.349 235.646 244.872 237.151 243.699C238.366 244.047 239.726 244.289 241.258 244.39C257.045 245.426 264.408 237.176 264.408 237.176C266.06 237.318 266.779 239.547 266.994 240.913C267.21 242.279 267.014 244.434 266.977 246.304C266.902 250.189 267.81 253.378 267.81 253.378C267.81 253.378 268.239 251.655 268.838 247.154C269.18 244.579 272.579 235.843 267.75 229.961Z" fill="#5D8EF9"/>
<path d="M272.257 277.662L264.098 275.203C264.098 275.203 259.955 281.535 251.638 281.535C243.504 281.535 239.13 275.172 239.13 275.172L230.628 277.687C226.104 279.027 223 283.182 223 287.902V292.443C223 294.1 224.343 295.443 226 295.443H276.834C278.491 295.443 279.834 294.1 279.834 292.443V287.859C279.834 283.161 276.756 279.017 272.257 277.662Z" fill="#6857E5"/>
<path d="M283.84 340.166L281.794 339.907L297.227 327.937L296.136 326.531L280.704 338.501L280.963 336.454C281.025 335.967 280.68 335.523 280.193 335.46C279.705 335.399 279.26 335.744 279.199 336.231L278.67 340.407C278.616 340.834 278.874 341.229 279.266 341.361C279.322 341.38 279.38 341.394 279.441 341.402L283.617 341.931C284.105 341.992 284.55 341.647 284.611 341.16C284.673 340.672 284.328 340.228 283.84 340.166Z" fill="#935CE4"/>
<path d="M303.046 323.423L298.557 326.905L297.466 325.499L301.955 322.017L303.046 323.423Z" fill="#935CE4"/>
<path d="M314.898 314.23L310.408 317.711L309.318 316.306L313.807 312.824L314.898 314.23Z" fill="#935CE4"/>
<path d="M326.75 305.036L316.19 313.227L315.1 311.821L325.66 303.63L326.75 305.036Z" fill="#935CE4"/>
<path d="M338.603 295.842L334.114 299.324L333.024 297.918L337.513 294.436L338.603 295.842Z" fill="#935CE4"/>
<path d="M308.829 318.937L304.339 322.419L303.249 321.013L307.738 317.532L308.829 318.937Z" fill="#935CE4"/>
<path d="M332.533 300.551L328.044 304.032L326.954 302.627L331.443 299.145L332.533 300.551Z" fill="#935CE4"/>
<path d="M344.386 291.357L339.896 294.838L338.806 293.433L343.295 289.951L344.386 291.357Z" fill="#935CE4"/>
<path d="M382.68 248.228C381.775 247.491 380.574 248.278 380.047 248.699C380.221 251.012 380.65 252.776 380.775 253.248C380.819 254.49 380.856 255.605 380.881 256.52C381.133 256.569 381.397 256.568 381.645 256.447C382.473 256.042 383.231 252.786 383.509 251.734C383.786 250.681 383.871 249.198 382.68 248.228Z" fill="#FFBE1B"/>
<path d="M344.922 248.228C343.731 249.198 343.817 250.681 344.092 251.733C344.369 252.785 345.128 256.042 345.957 256.447C346.785 256.85 347.821 255.99 347.821 255.99V248.93C347.821 248.93 346.112 247.258 344.922 248.228Z" fill="#FFBE1B"/>
<path d="M372.142 272.435C371.851 271.528 371.702 270.592 371.642 269.694C370.322 270.479 369.028 271.084 367.741 271.68C366.643 272.188 362.632 272.311 361.267 271.677C360.218 271.188 358.847 270.473 357.469 269.664C357.41 270.571 357.261 271.517 356.967 272.435C356.627 273.496 354.506 274.367 352.172 275.23C352.622 275.851 356.95 281.534 364.638 281.534C372.647 281.534 376.783 275.665 377.079 275.23C374.578 274.446 372.54 273.678 372.142 272.435Z" fill="#FFBE1B"/>
<path d="M380.775 253.248C380.61 252.623 379.91 249.737 379.977 246.303C380.013 244.434 380.21 242.278 379.994 240.913C379.778 239.547 379.06 237.318 377.407 237.175C377.407 237.175 370.045 245.426 354.257 244.389C352.726 244.288 351.366 244.046 350.151 243.699C348.646 244.872 348.104 246.349 348.146 247.559C348.287 251.632 347.76 255.28 347.693 255.728C347.688 256.392 347.686 257.027 347.686 257.618C347.686 261.813 350.269 264.525 354.103 267.449C356.241 269.081 359.315 270.768 361.267 271.677C362.631 272.311 366.643 272.188 367.741 271.68C369.804 270.726 371.885 269.744 374.056 268.045C377.613 265.264 380.92 262.113 380.92 258.575C380.92 257.683 380.862 255.713 380.775 253.248Z" fill="#FFE37B"/>
<path d="M364.33 263.097C363.773 263.097 363.303 263.284 362.92 263.659C362.538 264.033 362.346 264.495 362.346 265.043C362.346 265.661 362.544 266.142 362.94 266.484C363.336 266.829 363.799 267 364.33 267C364.844 267 365.296 266.825 365.687 266.478C366.079 266.131 366.275 265.652 366.275 265.043C366.275 264.494 366.088 264.033 365.714 263.659C365.339 263.284 364.878 263.097 364.33 263.097ZM370.223 249.837C369.696 249.037 368.95 248.404 367.984 247.938C367.019 247.473 365.904 247.24 364.643 247.24C363.286 247.24 362.098 247.519 361.08 248.075C360.062 248.632 359.288 249.335 358.757 250.183C358.226 251.032 357.961 251.869 357.961 252.695C357.961 253.096 358.128 253.468 358.463 253.812C358.799 254.155 359.209 254.326 359.697 254.326C360.523 254.326 361.085 253.835 361.381 252.852C361.694 251.912 362.077 251.201 362.53 250.718C362.982 250.235 363.687 249.994 364.644 249.994C365.461 249.994 366.129 250.233 366.647 250.711C367.165 251.19 367.424 251.777 367.424 252.473C367.424 252.83 367.339 253.161 367.169 253.465C366.999 253.77 366.791 254.046 366.543 254.294C366.295 254.542 365.892 254.909 365.336 255.396C364.7 255.954 364.196 256.434 363.821 256.839C363.447 257.243 363.147 257.713 362.921 258.248C362.695 258.784 362.581 259.416 362.581 260.148C362.581 260.731 362.736 261.169 363.045 261.465C363.354 261.762 363.734 261.909 364.187 261.909C365.057 261.909 365.575 261.457 365.74 260.551C365.835 260.126 365.907 259.828 365.955 259.658C366.003 259.488 366.07 259.318 366.158 259.149C366.244 258.979 366.377 258.793 366.555 258.588C366.734 258.383 366.971 258.146 367.267 257.876C368.337 256.919 369.079 256.238 369.493 255.833C369.906 255.429 370.263 254.948 370.563 254.392C370.863 253.834 371.013 253.186 371.013 252.447C371.012 251.508 370.749 250.638 370.223 249.837Z" fill="white"/>
<path d="M380.75 229.961C378.928 227.743 376.652 226.613 374.135 226.922C372.219 224.428 367.373 223.574 362.738 224.194C357.626 224.877 354.664 225.73 350.99 228.22C348.888 229.644 345.197 233.028 344.657 237.175C343.91 242.911 346.49 249.847 346.567 250.401C346.86 252.538 347.686 255.775 347.686 255.775C347.686 255.775 348.296 251.909 348.146 247.56C348.104 246.349 348.646 244.872 350.151 243.699C351.366 244.047 352.726 244.289 354.258 244.39C370.045 245.426 377.408 237.176 377.408 237.176C379.06 237.318 379.779 239.547 379.994 240.913C380.21 242.279 380.014 244.434 379.977 246.304C379.902 250.189 380.81 253.378 380.81 253.378C380.81 253.378 381.239 251.655 381.838 247.154C382.18 244.579 385.579 235.843 380.75 229.961Z" fill="#5D8EF9"/>
<path d="M385.257 277.662L377.098 275.203C377.098 275.203 372.955 281.535 364.638 281.535C356.504 281.535 352.13 275.172 352.13 275.172L343.628 277.687C339.104 279.027 336 283.182 336 287.902V292.443C336 294.1 337.343 295.443 339 295.443H389.834C391.491 295.443 392.834 294.1 392.834 292.443V287.859C392.834 283.161 389.756 279.017 385.257 277.662Z" fill="#6857E5"/>
<path d="M160.84 224.166L158.794 223.907L174.227 211.937L173.136 210.531L157.704 222.501L157.963 220.454C158.025 219.967 157.68 219.523 157.193 219.46C156.705 219.399 156.26 219.744 156.199 220.231L155.67 224.407C155.616 224.834 155.874 225.229 156.266 225.361C156.322 225.38 156.38 225.394 156.441 225.402L160.617 225.931C161.105 225.992 161.55 225.647 161.611 225.16C161.673 224.672 161.328 224.228 160.84 224.166Z" fill="#935CE4"/>
<path d="M180.046 207.423L175.557 210.905L174.466 209.499L178.955 206.017L180.046 207.423Z" fill="#935CE4"/>
<path d="M191.898 198.23L187.408 201.711L186.318 200.306L190.807 196.824L191.898 198.23Z" fill="#935CE4"/>
<path d="M203.75 189.036L193.19 197.227L192.1 195.821L202.66 187.63L203.75 189.036Z" fill="#935CE4"/>
<path d="M215.603 179.842L211.114 183.324L210.024 181.918L214.513 178.436L215.603 179.842Z" fill="#935CE4"/>
<path d="M185.829 202.937L181.339 206.419L180.249 205.013L184.738 201.532L185.829 202.937Z" fill="#935CE4"/>
<path d="M209.533 184.551L205.044 188.032L203.954 186.627L208.443 183.145L209.533 184.551Z" fill="#935CE4"/>
<path d="M221.386 175.357L216.896 178.838L215.806 177.433L220.295 173.951L221.386 175.357Z" fill="#935CE4"/>
<path d="M266.192 157.03C266.192 155.093 266.427 153.212 266.857 151.406L265.357 150.955C265.357 150.955 260.381 158.559 250.392 158.559C240.622 158.559 235.369 150.917 235.369 150.917L225.159 153.938C219.725 155.547 215.997 160.538 215.997 166.206V180.142H283.224C273.359 177.091 266.192 167.898 266.192 157.03Z" fill="#5D8EF9"/>
<path d="M272.061 118.556C270.63 117.391 268.578 119.399 268.578 119.399V127.879C268.578 127.879 269.822 128.912 270.817 128.426C271.812 127.94 272.723 124.029 273.057 122.765C273.389 121.503 273.491 119.72 272.061 118.556Z" fill="#FFBE1B"/>
<path d="M226.712 118.556C225.282 119.72 225.385 121.502 225.716 122.765C226.048 124.03 226.96 127.941 227.956 128.427C228.95 128.912 230.194 127.879 230.194 127.879V119.399C230.194 119.399 228.143 117.392 226.712 118.556Z" fill="#FFBE1B"/>
<path d="M259.405 147.631C259.056 146.54 258.877 145.417 258.804 144.339C257.22 145.28 255.665 146.009 254.12 146.724C252.801 147.333 247.983 147.48 246.344 146.718C245.084 146.132 243.437 145.273 241.782 144.301C241.711 145.391 241.533 146.528 241.179 147.63C240.77 148.904 238.223 149.95 235.42 150.986C235.961 151.734 241.159 158.559 250.392 158.559C260.012 158.559 264.979 151.51 265.334 150.986C262.332 150.044 259.884 149.123 259.405 147.631Z" fill="#FFBE1B"/>
<path d="M269.774 124.586C269.576 123.835 268.735 120.368 268.815 116.245C268.859 114 269.096 111.41 268.836 109.77C268.578 108.13 267.714 105.454 265.729 105.281C265.729 105.281 256.887 115.191 237.924 113.946C236.085 113.824 234.452 113.534 232.992 113.116C231.185 114.525 230.535 116.299 230.585 117.753C230.754 122.644 230.122 127.026 230.041 127.563C230.036 128.361 230.032 129.125 230.032 129.835C230.032 134.873 233.136 138.131 237.74 141.642C240.308 143.601 244 145.628 246.344 146.719C247.983 147.481 252.801 147.334 254.12 146.724C256.598 145.577 259.098 144.398 261.705 142.359C265.977 139.018 269.949 135.235 269.949 130.985C269.948 129.911 269.879 127.545 269.774 124.586Z" fill="#FFE37B"/>
<path d="M250.33 132.097C249.773 132.097 249.303 132.284 248.92 132.659C248.538 133.033 248.346 133.495 248.346 134.043C248.346 134.661 248.544 135.142 248.94 135.484C249.336 135.829 249.799 136 250.33 136C250.844 136 251.296 135.825 251.687 135.478C252.079 135.131 252.275 134.652 252.275 134.043C252.275 133.494 252.088 133.033 251.714 132.659C251.339 132.284 250.878 132.097 250.33 132.097ZM256.223 118.837C255.696 118.037 254.95 117.404 253.984 116.938C253.019 116.473 251.904 116.24 250.643 116.24C249.286 116.24 248.098 116.519 247.08 117.075C246.062 117.632 245.288 118.335 244.757 119.183C244.226 120.032 243.961 120.869 243.961 121.695C243.961 122.096 244.128 122.468 244.463 122.812C244.799 123.155 245.209 123.326 245.697 123.326C246.523 123.326 247.085 122.835 247.381 121.852C247.694 120.912 248.077 120.201 248.53 119.718C248.982 119.235 249.687 118.994 250.644 118.994C251.461 118.994 252.129 119.233 252.647 119.711C253.165 120.19 253.424 120.777 253.424 121.473C253.424 121.83 253.339 122.161 253.169 122.465C252.999 122.77 252.791 123.046 252.543 123.294C252.295 123.542 251.892 123.909 251.336 124.396C250.7 124.954 250.196 125.434 249.821 125.839C249.447 126.243 249.147 126.713 248.921 127.248C248.695 127.784 248.581 128.416 248.581 129.148C248.581 129.731 248.736 130.169 249.045 130.465C249.354 130.762 249.734 130.909 250.187 130.909C251.057 130.909 251.575 130.457 251.74 129.551C251.835 129.126 251.907 128.828 251.955 128.658C252.003 128.488 252.07 128.318 252.158 128.149C252.244 127.979 252.377 127.793 252.555 127.588C252.734 127.383 252.971 127.146 253.267 126.876C254.337 125.919 255.079 125.238 255.493 124.833C255.906 124.429 256.263 123.948 256.563 123.392C256.863 122.834 257.013 122.186 257.013 121.447C257.012 120.508 256.749 119.638 256.223 118.837Z" fill="white"/>
<path d="M269.744 96.6177C267.556 93.9532 264.823 92.5962 261.799 92.9664C259.498 89.9717 255.853 87.6999 250.064 88.0323C240.967 88.5562 240.864 93.3313 233.906 95.4191C226.947 97.5082 224.145 92.0115 221.352 93.9021C218.559 95.7899 220.206 102.97 225.859 108.926C225.39 113.825 228.531 120.018 228.688 121.165C229.041 123.732 230.032 127.619 230.032 127.619C230.032 127.619 230.765 122.976 230.586 117.752C230.535 116.299 231.185 114.525 232.992 113.115C234.452 113.533 236.085 113.824 237.925 113.945C256.887 115.19 265.729 105.281 265.729 105.281C267.713 105.453 268.578 108.129 268.836 109.77C269.096 111.409 268.86 113.999 268.816 116.244C268.725 120.91 269.816 124.741 269.816 124.741C269.816 124.741 270.333 122.671 271.051 117.264C271.462 114.173 275.544 103.681 269.744 96.6177Z" fill="#330D84"/>
<path d="M290.38 132.843C277.022 132.843 266.192 143.671 266.192 157.03C266.192 170.389 277.022 181.218 290.38 181.218C303.739 181.218 314.569 170.389 314.569 157.03C314.569 143.671 303.739 132.843 290.38 132.843Z" fill="#FFBE1B"/>
<path d="M290.38 138.874C280.353 138.874 272.224 147.003 272.224 157.03C272.224 167.058 280.353 175.188 290.38 175.188C300.408 175.188 308.536 167.058 308.536 157.03C308.537 147.003 300.408 138.874 290.38 138.874Z" fill="#FFE37B"/>
<path d="M295.802 160.387L295.795 160.371C295.668 160.093 292.022 153.809 290.721 151.567C290.516 151.215 290.013 151.215 289.808 151.567C288.506 153.808 284.86 160.093 284.733 160.371L284.724 160.387H284.726C284.374 161.156 284.176 162.011 284.176 162.913C284.176 166.275 286.902 169 290.265 169C293.627 169 296.353 166.275 296.353 162.913C296.352 162.011 296.155 161.156 295.802 160.387ZM290.25 166.232C288.111 166.232 286.375 164.439 286.375 162.228C286.375 161.635 286.501 161.073 286.724 160.566L286.729 160.556C286.829 160.333 290.25 154.248 290.25 154.248C290.25 154.248 293.672 160.333 293.771 160.556L293.776 160.566C294.001 161.073 294.126 161.635 294.126 162.228C294.126 164.439 292.391 166.232 290.25 166.232Z" fill="#FEFFC5"/>
<path d="M294.755 152.835L294.749 152.823C294.648 152.603 291.843 147.766 290.722 145.835C290.518 145.483 290.013 145.483 289.809 145.835C288.688 147.766 285.882 152.603 285.781 152.823L285.774 152.835H285.775C285.491 153.459 285.33 154.152 285.33 154.883C285.33 157.608 287.54 159.817 290.266 159.817C292.991 159.817 295.201 157.608 295.201 154.883C295.2 154.152 295.04 153.459 294.755 152.835ZM290.254 157.574C288.519 157.574 287.112 156.12 287.112 154.328C287.112 153.848 287.215 153.392 287.396 152.981L287.4 152.973C287.474 152.805 289.853 148.573 290.209 147.939C290.23 147.902 290.278 147.902 290.299 147.939C290.655 148.573 293.034 152.805 293.108 152.973L293.112 152.981C293.294 153.392 293.396 153.848 293.396 154.328C293.396 156.12 291.989 157.574 290.254 157.574Z" fill="#FEFFC5"/>
<path d="M329.923 175.651C326.388 174.765 323.626 172.002 322.74 168.467L322.588 167.864L322.437 168.467C321.551 172.002 318.788 174.764 315.254 175.651L314.649 175.803L315.254 175.955C318.789 176.84 321.551 179.602 322.437 183.139L322.588 183.742L322.74 183.139C323.626 179.602 326.388 176.84 329.923 175.955L330.528 175.803L329.923 175.651Z" fill="#FFBE1B"/>
<path d="M341.22 153.246C336.908 152.165 333.539 148.795 332.458 144.483L332.272 143.748L332.089 144.483C331.007 148.795 327.638 152.165 323.326 153.246L322.589 153.431L323.326 153.616C327.638 154.696 331.007 158.065 332.089 162.379L332.272 163.114L332.458 162.379C333.538 158.064 336.908 154.696 341.22 153.616L341.958 153.431L341.22 153.246Z" fill="#FFBE1B"/>
<path d="M266.192 398.03C266.192 396.093 266.427 394.212 266.857 392.406L265.357 391.955C265.357 391.955 260.381 399.559 250.392 399.559C240.622 399.559 235.369 391.917 235.369 391.917L225.159 394.938C219.725 396.547 215.997 401.538 215.997 407.206V421.142H283.224C273.359 418.091 266.192 408.898 266.192 398.03Z" fill="#5D8EF9"/>
<path d="M272.061 359.556C270.63 358.391 268.578 360.399 268.578 360.399V368.879C268.578 368.879 269.822 369.912 270.817 369.426C271.812 368.94 272.723 365.029 273.057 363.765C273.389 362.503 273.491 360.72 272.061 359.556Z" fill="#FFBE1B"/>
<path d="M226.712 359.556C225.282 360.72 225.385 362.502 225.716 363.765C226.048 365.03 226.96 368.941 227.956 369.427C228.95 369.912 230.194 368.879 230.194 368.879V360.399C230.194 360.399 228.143 358.392 226.712 359.556Z" fill="#FFBE1B"/>
<path d="M259.405 388.631C259.056 387.54 258.877 386.417 258.804 385.339C257.22 386.28 255.665 387.009 254.12 387.724C252.801 388.333 247.983 388.48 246.344 387.718C245.084 387.132 243.437 386.273 241.782 385.301C241.711 386.391 241.533 387.528 241.179 388.63C240.77 389.904 238.223 390.95 235.42 391.986C235.961 392.734 241.159 399.559 250.392 399.559C260.012 399.559 264.979 392.51 265.334 391.986C262.332 391.044 259.884 390.123 259.405 388.631Z" fill="#FFBE1B"/>
<path d="M269.774 365.586C269.576 364.835 268.735 361.368 268.815 357.245C268.859 355 269.096 352.41 268.836 350.77C268.578 349.13 267.714 346.454 265.729 346.281C265.729 346.281 256.887 356.191 237.924 354.946C236.085 354.824 234.452 354.534 232.992 354.116C231.185 355.525 230.535 357.299 230.585 358.753C230.754 363.644 230.122 368.026 230.041 368.563C230.036 369.361 230.032 370.125 230.032 370.835C230.032 375.873 233.136 379.131 237.74 382.642C240.308 384.601 244 386.628 246.344 387.719C247.983 388.481 252.801 388.334 254.12 387.724C256.598 386.577 259.098 385.398 261.705 383.359C265.977 380.018 269.949 376.235 269.949 371.985C269.948 370.911 269.879 368.545 269.774 365.586Z" fill="#FFE37B"/>
<path d="M250.33 373.097C249.773 373.097 249.303 373.284 248.92 373.659C248.538 374.033 248.346 374.495 248.346 375.043C248.346 375.661 248.544 376.142 248.94 376.484C249.336 376.829 249.799 377 250.33 377C250.844 377 251.296 376.825 251.687 376.478C252.079 376.131 252.275 375.652 252.275 375.043C252.275 374.494 252.088 374.033 251.714 373.659C251.339 373.284 250.878 373.097 250.33 373.097ZM256.223 359.837C255.696 359.037 254.95 358.404 253.984 357.938C253.019 357.473 251.904 357.24 250.643 357.24C249.286 357.24 248.098 357.519 247.08 358.075C246.062 358.632 245.288 359.335 244.757 360.183C244.226 361.032 243.961 361.869 243.961 362.695C243.961 363.096 244.128 363.468 244.463 363.812C244.799 364.155 245.209 364.326 245.697 364.326C246.523 364.326 247.085 363.835 247.381 362.852C247.694 361.912 248.077 361.201 248.53 360.718C248.982 360.235 249.687 359.994 250.644 359.994C251.461 359.994 252.129 360.233 252.647 360.711C253.165 361.19 253.424 361.777 253.424 362.473C253.424 362.83 253.339 363.161 253.169 363.465C252.999 363.77 252.791 364.046 252.543 364.294C252.295 364.542 251.892 364.909 251.336 365.396C250.7 365.954 250.196 366.434 249.821 366.839C249.447 367.243 249.147 367.713 248.921 368.248C248.695 368.784 248.581 369.416 248.581 370.148C248.581 370.731 248.736 371.169 249.045 371.465C249.354 371.762 249.734 371.909 250.187 371.909C251.057 371.909 251.575 371.457 251.74 370.551C251.835 370.126 251.907 369.828 251.955 369.658C252.003 369.488 252.07 369.318 252.158 369.149C252.244 368.979 252.377 368.793 252.555 368.588C252.734 368.383 252.971 368.146 253.267 367.876C254.337 366.919 255.079 366.238 255.493 365.833C255.906 365.429 256.263 364.948 256.563 364.392C256.863 363.834 257.013 363.186 257.013 362.447C257.012 361.508 256.749 360.638 256.223 359.837Z" fill="white"/>
<path d="M269.744 337.618C267.556 334.953 264.823 333.596 261.799 333.966C259.498 330.972 255.853 328.7 250.064 329.032C240.967 329.556 240.864 334.331 233.906 336.419C226.947 338.508 224.145 333.011 221.352 334.902C218.559 336.79 220.206 343.97 225.859 349.926C225.39 354.825 228.531 361.018 228.688 362.165C229.041 364.732 230.032 368.619 230.032 368.619C230.032 368.619 230.765 363.976 230.586 358.752C230.535 357.299 231.185 355.525 232.992 354.115C234.452 354.533 236.085 354.824 237.925 354.945C256.887 356.19 265.729 346.281 265.729 346.281C267.713 346.453 268.578 349.129 268.836 350.77C269.096 352.409 268.86 354.999 268.816 357.244C268.725 361.91 269.816 365.741 269.816 365.741C269.816 365.741 270.333 363.671 271.051 358.264C271.462 355.173 275.544 344.681 269.744 337.618Z" fill="#330D84"/>
<path d="M290.38 373.843C277.022 373.843 266.192 384.671 266.192 398.03C266.192 411.389 277.022 422.218 290.38 422.218C303.739 422.218 314.569 411.389 314.569 398.03C314.569 384.671 303.739 373.843 290.38 373.843Z" fill="#FFBE1B"/>
<path d="M290.38 379.874C280.353 379.874 272.224 388.003 272.224 398.03C272.224 408.058 280.353 416.188 290.38 416.188C300.408 416.188 308.536 408.058 308.536 398.03C308.537 388.003 300.408 379.874 290.38 379.874Z" fill="#FFE37B"/>
<path d="M295.803 401.387L295.796 401.371C295.668 401.093 292.023 394.809 290.721 392.567C290.517 392.215 290.013 392.215 289.809 392.567C288.507 394.808 284.861 401.093 284.733 401.371L284.724 401.387H284.726C284.375 402.156 284.177 403.011 284.177 403.913C284.177 407.275 286.902 410 290.265 410C293.627 410 296.353 407.275 296.353 403.913C296.352 403.011 296.155 402.156 295.803 401.387ZM290.251 407.232C288.111 407.232 286.375 405.439 286.375 403.228C286.375 402.635 286.501 402.073 286.725 401.566L286.73 401.556C286.829 401.333 290.251 395.247 290.251 395.247C290.251 395.247 293.672 401.333 293.772 401.556L293.777 401.566C294.001 402.073 294.126 402.635 294.126 403.228C294.126 405.439 292.391 407.232 290.251 407.232Z" fill="#FEFFC5"/>
<path d="M294.755 393.835L294.749 393.823C294.649 393.603 291.843 388.766 290.722 386.835C290.518 386.483 290.014 386.483 289.809 386.835C288.688 388.766 285.882 393.603 285.782 393.823L285.774 393.835H285.776C285.491 394.459 285.331 395.152 285.331 395.883C285.331 398.608 287.54 400.817 290.266 400.817C292.992 400.817 295.201 398.608 295.201 395.883C295.201 395.152 295.041 394.459 294.755 393.835ZM290.254 398.574C288.52 398.574 287.113 397.12 287.113 395.328C287.113 394.848 287.215 394.392 287.396 393.981L287.4 393.973C287.475 393.805 289.853 389.573 290.21 388.939C290.23 388.902 290.279 388.902 290.299 388.939C290.656 389.573 293.034 393.805 293.109 393.973L293.113 393.981C293.295 394.392 293.396 394.848 293.396 395.328C293.396 397.12 291.99 398.574 290.254 398.574Z" fill="#FEFFC5"/>
<path d="M201.274 383.903C197.738 383.017 194.976 380.255 194.091 376.719L193.939 376.116L193.788 376.719C192.901 380.255 190.139 383.017 186.604 383.903L186 384.055L186.604 384.207C190.139 385.092 192.902 387.854 193.788 391.391L193.939 391.994L194.091 391.391C194.976 387.854 197.738 385.092 201.274 384.207L201.878 384.055L201.274 383.903Z" fill="#FFBE1B"/>
<path d="M212.571 361.498C208.258 360.418 204.889 357.048 203.809 352.736L203.623 352L203.439 352.736C202.358 357.048 198.988 360.417 194.677 361.498L193.939 361.684L194.677 361.869C198.988 362.948 202.358 366.317 203.439 370.631L203.623 371.367L203.809 370.631C204.889 366.316 208.258 362.948 212.571 361.869L213.309 361.684L212.571 361.498Z" fill="#FFBE1B"/>
<path d="M218.042 118.723C213.11 117.487 209.258 113.635 208.021 108.704L207.812 107.862L207.599 108.704C206.364 113.635 202.514 117.487 197.582 118.723L196.741 118.934L197.582 119.144C202.514 120.379 206.364 124.23 207.599 129.163L207.812 130.004L208.021 129.163C209.259 124.229 213.11 120.378 218.042 119.144L218.883 118.934L218.042 118.723Z" fill="#E4D2FF"/>
<path d="M158.529 176.527C152.386 174.988 147.589 170.191 146.048 164.048L145.788 163L145.522 164.048C143.985 170.191 139.189 174.988 133.048 176.527L132 176.79L133.048 177.053C139.189 178.59 143.985 183.386 145.522 189.531L145.788 190.578L146.048 189.531C147.589 183.386 152.386 178.591 158.529 177.053L159.578 176.79L158.529 176.527Z" fill="#5D8EF9"/>
<defs>
<linearGradient id="paint0_linear" x1="256" y1="1" x2="256" y2="511" gradientUnits="userSpaceOnUse">
<stop stop-color="#5D28AB"/>
<stop offset="1" stop-opacity="0"/>
</linearGradient>
<linearGradient id="paint1_linear" x1="256" y1="23" x2="256" y2="489" gradientUnits="userSpaceOnUse">
<stop stop-color="#5D28AB"/>
<stop offset="1" stop-color="#5D28AB" stop-opacity="0"/>
</linearGradient>
<linearGradient id="paint2_linear" x1="256" y1="51" x2="256" y2="461" gradientUnits="userSpaceOnUse">
<stop stop-color="#5D28AB"/>
<stop offset="1" stop-color="#5D28AB" stop-opacity="0"/>
</linearGradient>
</defs>
</svg>
