<svg width="16" height="16" viewBox="0 0 16 16" fill="none" xmlns="http://www.w3.org/2000/svg">
<path d="M8 0.25C9.375 0.25 10.6875 0.625 11.875 1.3125C13.0625 2 14 2.9375 14.6875 4.125C15.375 5.3125 15.75 6.625 15.75 8C15.75 9.40625 15.375 10.6875 14.6875 11.875C14 13.0625 13.0625 14.0312 11.875 14.7188C10.6875 15.4062 9.375 15.75 8 15.75C6.59375 15.75 5.3125 15.4062 4.125 14.7188C2.9375 14.0312 1.96875 13.0625 1.28125 11.875C0.59375 10.6875 0.25 9.40625 0.25 8C0.25 6.625 0.59375 5.3125 1.28125 4.125C1.96875 2.9375 2.9375 2 4.125 1.3125C5.3125 0.625 6.59375 0.25 8 0.25ZM11.8125 5.5625C11.8438 5.3125 11.8125 5.15625 11.6875 5.03125C11.5625 4.90625 11.4375 4.875 11.2812 4.9375L3.8125 7.84375C3.53125 7.9375 3.375 8.03125 3.375 8.15625C3.375 8.28125 3.46875 8.375 3.71875 8.4375L5.625 9.03125L10.0625 6.25C10.1562 6.1875 10.25 6.1875 10.3125 6.1875C10.375 6.21875 10.375 6.25 10.3125 6.3125L6.71875 9.5625L6.5625 11.5312C6.6875 11.5312 6.84375 11.4688 6.96875 11.3438L7.90625 10.4375L9.84375 11.875C10.2188 12.0938 10.4375 12 10.5312 11.5625L11.8125 5.5625Z" fill="#DDC7FD"/>
</svg>
