<svg width="16" height="16" viewBox="0 0 16 16" fill="none" xmlns="http://www.w3.org/2000/svg">
<path d="M5.4375 12.4062C5.4375 12.4062 5.40625 12.375 5.375 12.3438C5.34375 12.3438 5.3125 12.3125 5.25 12.3125C5.125 12.3125 5.09375 12.375 5.09375 12.4375C5.09375 12.5312 5.125 12.5625 5.25 12.5625C5.375 12.5625 5.4375 12.5 5.4375 12.4062ZM4.46875 12.2812C4.46875 12.2188 4.53125 12.1875 4.65625 12.2188C4.75 12.25 4.78125 12.2812 4.78125 12.3438C4.78125 12.4062 4.75 12.4375 4.71875 12.4375C4.65625 12.4688 4.625 12.4688 4.59375 12.4375C4.53125 12.4375 4.5 12.4062 4.46875 12.375C4.4375 12.3438 4.4375 12.3125 4.46875 12.2812ZM5.84375 12.2188C5.9375 12.2188 6 12.25 6 12.3125C6 12.375 5.96875 12.4375 5.875 12.4688C5.8125 12.4688 5.78125 12.4688 5.75 12.4688C5.71875 12.4688 5.6875 12.4062 5.6875 12.3438C5.6875 12.2812 5.71875 12.25 5.84375 12.2188ZM7.90625 0.25C9.3125 0.25 10.625 0.59375 11.8438 1.25C13.0312 1.9375 14 2.84375 14.6875 3.96875C15.375 5.15625 15.75 6.46875 15.75 7.875C15.75 9.625 15.25 11.1562 14.2812 12.5312C13.3125 13.9062 12.0625 14.8438 10.5 15.3438C10.3125 15.4062 10.1875 15.375 10.0938 15.2812C10 15.2188 9.96875 15.0938 9.96875 14.9688V12.3438C9.96875 11.6875 9.78125 11.2188 9.4375 10.9062C10.1875 10.8438 10.7812 10.7188 11.1562 10.5938C11.7188 10.4062 12.1875 10.0938 12.5 9.65625C12.8438 9.125 13.0312 8.375 13.0312 7.4375C13.0312 7.0625 12.9375 6.71875 12.8125 6.40625C12.6875 6.21875 12.5 5.9375 12.2188 5.625C12.2812 5.4375 12.3438 5.1875 12.375 4.875C12.375 4.4375 12.3125 3.96875 12.1562 3.5C11.9375 3.4375 11.6562 3.5 11.2812 3.625C11.0312 3.75 10.7188 3.875 10.4062 4.0625L10 4.34375C9.34375 4.15625 8.6875 4.0625 8 4.0625C7.3125 4.0625 6.6875 4.15625 6.0625 4.34375L5.65625 4.0625C5.3125 3.875 5 3.75 4.75 3.625C4.375 3.5 4.09375 3.4375 3.90625 3.5C3.71875 3.96875 3.625 4.4375 3.6875 4.875C3.6875 5.1875 3.71875 5.40625 3.8125 5.59375C3.5625 5.90625 3.375 6.21875 3.25 6.46875C3.125 6.71875 3.09375 7.0625 3.09375 7.4375C3.09375 8.375 3.25 9.125 3.59375 9.625C3.875 10.0625 4.3125 10.4062 4.90625 10.5938C5.28125 10.7188 5.84375 10.8438 6.59375 10.9062C6.3125 11.1562 6.15625 11.5312 6.09375 11.9688C5.71875 12.1562 5.375 12.2188 5.0625 12.1562C4.5 12.125 4.09375 11.8438 3.8125 11.3125C3.6875 11.0938 3.5 10.9062 3.3125 10.75C3.15625 10.6875 3 10.5938 2.84375 10.5312L2.625 10.5C2.375 10.5 2.25 10.5625 2.25 10.625C2.25 10.6875 2.28125 10.7812 2.40625 10.8438L2.5625 10.9688C2.6875 11.0625 2.84375 11.1875 3 11.375C3.125 11.5312 3.21875 11.6875 3.3125 11.875L3.4375 12.125C3.53125 12.4375 3.71875 12.6875 4.03125 12.8438C4.28125 13 4.5625 13.0938 4.9375 13.125C5.1875 13.1562 5.4375 13.1562 5.71875 13.0938L6.0625 13.0625L6.09375 14.9688C6.09375 15.0938 6.03125 15.2188 5.9375 15.2812C5.84375 15.375 5.71875 15.4062 5.5625 15.3438C3.96875 14.8438 2.6875 13.9062 1.71875 12.5312C0.71875 11.1562 0.25 9.625 0.25 7.875C0.25 6.46875 0.5625 5.1875 1.25 4C1.90625 2.84375 2.8125 1.9375 4 1.25C5.15625 0.59375 6.46875 0.25 7.90625 0.25ZM3.28125 11.0312C3.3125 11 3.375 11 3.4375 11.0625C3.5 11.125 3.5 11.1875 3.46875 11.2188C3.40625 11.2812 3.375 11.25 3.3125 11.1875C3.25 11.125 3.21875 11.0938 3.28125 11.0312ZM2.9375 10.7812C2.96875 10.75 3.03125 10.75 3.09375 10.7812C3.15625 10.8125 3.15625 10.8438 3.15625 10.9062C3.125 10.9688 3.0625 10.9688 3 10.9062C2.9375 10.875 2.90625 10.8438 2.9375 10.7812ZM3.96875 11.875C3.96875 11.875 4 11.875 4.0625 11.875C4.09375 11.875 4.125 11.9062 4.15625 11.9375C4.1875 11.9688 4.21875 12 4.21875 12.0312C4.21875 12.0938 4.21875 12.125 4.21875 12.125C4.15625 12.1875 4.0625 12.1875 4 12.0938C3.9375 12.0625 3.9375 12.0312 3.9375 11.9688C3.9375 11.9375 3.9375 11.9062 3.96875 11.875ZM3.59375 11.4375C3.625 11.4375 3.65625 11.4375 3.6875 11.4375C3.71875 11.4375 3.75 11.4688 3.78125 11.5C3.84375 11.5938 3.84375 11.6562 3.78125 11.6875C3.75 11.7188 3.71875 11.7188 3.6875 11.6875C3.65625 11.6875 3.625 11.6562 3.59375 11.625C3.53125 11.5312 3.53125 11.4688 3.59375 11.4375Z" fill="#DDC7FD"/>
</svg>
