<svg width="442" height="442" viewBox="0 0 442 442" fill="none" xmlns="http://www.w3.org/2000/svg">
<g clip-path="url(#clip0)">
<path d="M0.539024 221.003C0.539024 99.2457 99.2425 0.539024 221.002 0.539024C342.753 0.539024 441.461 99.2457 441.461 221.003C441.461 342.756 342.753 441.461 221.002 441.461C99.2425 441.461 0.539024 342.756 0.539024 221.003Z" stroke="url(#paint0_linear)" stroke-width="1.07805"/>
<path d="M221.004 35.3335C118.463 35.3335 35.3386 118.461 35.3386 221.002C35.3386 323.539 118.463 406.665 221.004 406.665C323.539 406.665 406.667 323.539 406.667 221.002C406.667 118.461 323.539 35.3335 221.004 35.3335Z" fill="url(#paint1_linear)" fill-opacity="0.5"/>
<path d="M221.002 85C145.89 85 85.0004 145.891 85.0004 221.002C85.0004 296.11 145.89 357 221.002 357C296.109 357 357 296.11 357 221.002C357 145.891 296.109 85 221.002 85Z" fill="url(#paint2_linear)" fill-opacity="0.5"/>
<path d="M221.001 119C164.667 119 119 164.668 119 221.001C119 277.333 164.667 323 221.001 323C277.332 323 323 277.333 323 221.001C323 164.668 277.332 119 221.001 119Z" fill="#854CD9"/>
<path d="M251.706 204.175H225.516L235.224 175.049C236.127 171.437 233.418 168.05 230.031 168.05H197.519C194.809 168.05 192.326 170.082 192.1 172.791L184.875 226.979C184.423 230.366 186.907 233.075 190.294 233.075H216.936L206.55 277.102C205.873 280.489 208.356 283.65 211.743 283.65C213.775 283.65 215.581 282.747 216.484 280.941L256.222 212.303C258.48 208.916 255.77 204.175 251.706 204.175Z" fill="#FFE7AC"/>
<path d="M291.196 82.3574C284.391 80.7232 279.079 75.6315 277.368 69.1146L277.078 68.0001L276.79 69.1146C275.082 75.6315 269.766 80.7232 262.959 82.3574L261.8 82.6345L262.959 82.9133C269.766 84.5467 275.082 89.6365 276.79 96.1543L277.078 97.268L277.368 96.1543C279.079 89.6365 284.392 84.5458 291.196 82.9133L292.361 82.6345L291.196 82.3574Z" fill="#5D8EF9"/>
<path d="M334.686 107.821C323.116 105.043 314.084 96.3861 311.175 85.3067L310.681 83.4136L310.191 85.3067C307.288 96.3852 298.25 105.043 286.677 107.821L284.707 108.292L286.677 108.766C298.25 111.542 307.288 120.197 310.191 131.278L310.681 133.171L311.175 131.278C314.084 120.197 323.116 111.542 334.686 108.766L336.665 108.292L334.686 107.821Z" fill="#5D8EF9"/>
</g>
<defs>
<linearGradient id="paint0_linear" x1="221" y1="0" x2="221" y2="442" gradientUnits="userSpaceOnUse">
<stop stop-color="#5D28AB"/>
<stop offset="1" stop-opacity="0"/>
</linearGradient>
<linearGradient id="paint1_linear" x1="221.003" y1="35.3335" x2="221.003" y2="406.665" gradientUnits="userSpaceOnUse">
<stop stop-color="#5D28AB"/>
<stop offset="1" stop-color="#5D28AB" stop-opacity="0"/>
</linearGradient>
<linearGradient id="paint2_linear" x1="221" y1="85" x2="221" y2="357" gradientUnits="userSpaceOnUse">
<stop stop-color="#5D28AB"/>
<stop offset="1" stop-color="#5D28AB" stop-opacity="0"/>
</linearGradient>
<clipPath id="clip0">
<rect width="442" height="442" fill="white"/>
</clipPath>
</defs>
</svg>
