<svg width="130" height="130" viewBox="0 0 130 130" fill="none" xmlns="http://www.w3.org/2000/svg">
<path d="M65.0012 10.3921C34.8419 10.3921 10.3936 34.8415 10.3936 65.0005C10.3936 95.1584 34.8419 119.607 65.0012 119.607C95.1584 119.607 119.608 95.1584 119.608 65.0005C119.608 34.8415 95.1584 10.3921 65.0012 10.3921Z" fill="#F8F3FF"/>
<path d="M65.001 0.253906C29.2995 0.253906 0.253906 29.299 0.253906 65.0005C0.253906 100.702 29.2995 129.746 65.001 129.746C100.702 129.746 129.746 100.702 129.746 65.0005C129.746 29.299 100.702 0.253906 65.001 0.253906ZM65.001 127.672C30.4434 127.672 2.32934 99.5577 2.32934 65.0005C2.32934 30.4429 30.4434 2.32807 65.001 2.32807C99.5582 2.32807 127.671 30.4429 127.671 65.0005C127.671 99.5577 99.5579 127.672 65.001 127.672Z" fill="#6F3ABE"/>
<path d="M39.931 39.5804C37.8956 39.0917 36.307 37.569 35.7958 35.6202L35.7087 35.2874L35.6223 35.6202C35.1116 37.569 33.5221 39.0917 31.4859 39.5804L31.1396 39.6633L31.4859 39.7464C33.5223 40.2348 35.1116 41.7572 35.6223 43.7066L35.7087 44.0395L35.7958 43.7066C36.3072 41.7574 37.8958 40.2351 39.931 39.7464L40.2792 39.6633L39.931 39.5804Z" fill="#330D84"/>
<path d="M105.706 84.3257C103.986 83.9126 102.644 82.6257 102.212 80.9789L102.138 80.6975L102.065 80.9789C101.633 82.6257 100.29 83.9126 98.5693 84.3257L98.2766 84.3958L98.5693 84.466C100.29 84.8787 101.633 86.1654 102.065 87.8126L102.138 88.094L102.212 87.8126C102.644 86.1654 103.986 84.8787 105.706 84.466L106 84.3958L105.706 84.3257Z" fill="#FFBE1B"/>
<path d="M54.961 89.3706C53.236 88.9564 51.8896 87.6658 51.4559 86.0139L51.3824 85.7314L51.3093 86.0139C50.8763 87.6658 49.5288 88.9564 47.8036 89.3706L47.5097 89.4409L47.8036 89.5115C49.529 89.9256 50.8763 91.2157 51.3093 92.8678L51.3824 93.1501L51.4559 92.8678C51.8896 91.2157 53.2362 89.9253 54.961 89.5115L55.2561 89.4409L54.961 89.3706Z" fill="#5D8EF9"/>
<path d="M65.9843 95.8251C63.0517 95.1209 60.7624 92.9266 60.025 90.1183L59.8998 89.6384L59.7755 90.1183C59.0397 92.9264 56.7488 95.1209 53.8154 95.8251L53.316 95.9446L53.8154 96.0645C56.7488 96.7682 59.0397 98.9621 59.7755 101.771L59.8998 102.25L60.025 101.771C60.7624 98.9621 63.0517 96.7682 65.9843 96.0645L66.4861 95.9446L65.9843 95.8251Z" fill="#5D8EF9"/>
<path d="M31.7259 46.167C30.6587 45.9107 29.8261 45.1125 29.5578 44.0906L29.5121 43.9158L29.467 44.0906C29.1989 45.1123 28.3659 45.9105 27.2983 46.167L27.1167 46.2105L27.2983 46.2541C28.3659 46.5101 29.1992 47.3083 29.467 48.3302L29.5121 48.5048L29.5578 48.3302C29.8263 47.3083 30.6587 46.5101 31.7259 46.2541L31.9084 46.2105L31.7259 46.167Z" fill="#330D84"/>
<path d="M44.6454 48.665H34.3649C32.331 48.665 30.6817 50.3141 30.6817 52.3475V77.187C31.1581 77.0301 31.6664 76.9441 32.1951 76.9441C34.8655 76.9441 37.0303 79.1089 37.0303 81.7791C37.0303 81.8321 37.0279 81.8846 37.0262 81.9371H44.6454C46.6789 81.9371 48.3277 80.2881 48.3277 78.2539V52.3475C48.3277 50.3141 46.6789 48.665 44.6454 48.665Z" fill="#5D8EF9"/>
<path d="M44.4153 55.0166H34.5927V57.6424H44.4153V55.0166Z" fill="white"/>
<path d="M44.4153 61.0342H34.5927V63.66H44.4153V61.0342Z" fill="white"/>
<path d="M44.4153 66.9421H34.5927V69.568H44.4153V66.9421Z" fill="white"/>
<path d="M44.4153 72.96H34.5927V75.5858H44.4153V72.96Z" fill="white"/>
<path d="M39.5043 52.8284C40.169 52.8284 40.7078 52.2896 40.7078 51.6249C40.7078 50.9602 40.169 50.4214 39.5043 50.4214C38.8397 50.4214 38.3008 50.9602 38.3008 51.6249C38.3008 52.2896 38.8397 52.8284 39.5043 52.8284Z" fill="white"/>
<path d="M73.0779 53.8915C70.4076 53.8915 68.2429 51.7268 68.2429 49.0565C68.2429 48.9246 68.2496 48.7944 68.2599 48.665H60.0761C58.0422 48.665 56.3929 50.3141 56.3929 52.3475V78.2539C56.3929 80.2881 58.0422 81.9371 60.0761 81.9371H70.3567C72.3901 81.9371 74.0389 80.2881 74.0389 78.2539V53.7957C73.7282 53.8585 73.407 53.8915 73.0779 53.8915Z" fill="#5D8EF9"/>
<path d="M70.1265 55.0166H60.3039V57.6424H70.1265V55.0166Z" fill="white"/>
<path d="M70.1265 61.0342H60.3039V63.66H70.1265V61.0342Z" fill="white"/>
<path d="M70.1265 66.9421H60.3039V69.568H70.1265V66.9421Z" fill="white"/>
<path d="M70.1265 72.96H60.3039V75.5858H70.1265V72.96Z" fill="white"/>
<path d="M65.2156 52.8284C65.8802 52.8284 66.4191 52.2896 66.4191 51.6249C66.4191 50.9602 65.8802 50.4214 65.2156 50.4214C64.5509 50.4214 64.0121 50.9602 64.0121 51.6249C64.0121 52.2896 64.5509 52.8284 65.2156 52.8284Z" fill="white"/>
<path d="M65.2156 80.1809C65.8802 80.1809 66.4191 79.6421 66.4191 78.9774C66.4191 78.3128 65.8802 77.7739 65.2156 77.7739C64.5509 77.7739 64.0121 78.3128 64.0121 78.9774C64.0121 79.6421 64.5509 80.1809 65.2156 80.1809Z" fill="white"/>
<path d="M99.0079 53.8915C96.3377 53.8915 94.1729 51.7268 94.1729 49.0565C94.1729 48.9246 94.1797 48.7944 94.19 48.665H85.7873C83.7534 48.665 82.1042 50.3141 82.1042 52.3475V78.2539C82.1042 80.2881 83.7534 81.9371 85.7873 81.9371H96.0679C98.1014 81.9371 99.7502 80.2881 99.7502 78.2539V53.8346C99.5081 53.8721 99.2602 53.8915 99.0079 53.8915Z" fill="#5D8EF9"/>
<path d="M95.8377 55.0166H86.0151V57.6424H95.8377V55.0166Z" fill="white"/>
<path d="M95.8377 61.0342H86.0151V63.66H95.8377V61.0342Z" fill="white"/>
<path d="M95.8377 66.9421H86.0151V69.568H95.8377V66.9421Z" fill="white"/>
<path d="M95.8377 72.96H86.0151V75.5858H95.8377V72.96Z" fill="white"/>
<path d="M90.9268 80.1809C91.5914 80.1809 92.1303 79.6421 92.1303 78.9774C92.1303 78.3128 91.5914 77.7739 90.9268 77.7739C90.2621 77.7739 89.7233 78.3128 89.7233 78.9774C89.7233 79.6421 90.2621 80.1809 90.9268 80.1809Z" fill="white"/>
<path d="M66.3119 46.5146C66.1487 46.0733 65.961 45.6339 65.7537 45.2083C65.4892 44.6652 64.8351 44.4389 64.2911 44.7033C63.7478 44.9678 63.5216 45.6225 63.7859 46.1658C63.9618 46.5269 64.1209 46.8998 64.2594 47.2739C64.4229 47.7155 64.8408 47.9886 65.2857 47.9886C65.4117 47.9886 65.5399 47.9665 65.6651 47.9203C66.2321 47.7107 66.5216 47.0814 66.3119 46.5146Z" fill="#330D84"/>
<path d="M41.1162 44.7033C40.5736 44.439 39.918 44.665 39.6536 45.2083C39.4466 45.6337 39.2587 46.0733 39.0954 46.5147C38.8858 47.0814 39.1751 47.7107 39.7418 47.9206C39.867 47.967 39.9952 47.9889 40.1213 47.9889C40.5661 47.9889 40.9841 47.7156 41.1475 47.2742C41.286 46.9 41.4451 46.5272 41.621 46.1661C41.8858 45.6226 41.6598 44.9678 41.1162 44.7033Z" fill="#330D84"/>
<path d="M63.2729 41.6127C62.6733 40.9753 62.0125 40.3889 61.3088 39.8696C60.8223 39.5108 60.1376 39.614 59.7788 40.1005C59.4199 40.5867 59.5234 41.2718 60.0096 41.6305C60.6077 42.0718 61.1694 42.5701 61.6788 43.1119C61.8941 43.3408 62.1849 43.4565 62.4762 43.4565C62.7449 43.4565 63.0142 43.358 63.2256 43.1594C63.6657 42.7453 63.6869 42.0528 63.2729 41.6127Z" fill="#330D84"/>
<path d="M45.6359 40.0965C45.277 39.61 44.5921 39.5063 44.1059 39.8647C43.4022 40.3836 42.7411 40.9696 42.1409 41.6068C41.7265 42.0466 41.7472 42.7391 42.1873 43.1534C42.3987 43.3523 42.668 43.451 42.9372 43.451C43.2282 43.451 43.5186 43.3356 43.7339 43.107C44.2442 42.5652 44.8059 42.0669 45.4044 41.6262C45.8904 41.2678 45.9941 40.5829 45.6359 40.0965Z" fill="#330D84"/>
<path d="M57.4425 37.8352C56.6161 37.5496 55.7576 37.3383 54.8913 37.2072C54.2939 37.1172 53.7364 37.5278 53.6458 38.1251C53.5552 38.7225 53.9664 39.2803 54.5635 39.3706C55.2985 39.4818 56.027 39.6612 56.7281 39.9035C56.8465 39.9444 56.967 39.9636 57.0854 39.9636C57.539 39.9636 57.9631 39.6792 58.1196 39.2264C58.3169 38.6553 58.0137 38.0324 57.4425 37.8352Z" fill="#330D84"/>
<path d="M52.6272 37.5765C52.5479 37.2973 52.3606 37.0612 52.1072 36.9201L49.4116 35.4192C48.8832 35.1251 48.2173 35.315 47.9234 35.843C47.6293 36.371 47.8191 37.0371 48.3471 37.3312L48.7945 37.5805C48.5184 37.6575 48.2438 37.7398 47.9738 37.833C47.4026 38.0299 47.0994 38.6529 47.2963 39.224C47.4525 39.6772 47.8766 39.9616 48.3307 39.9616C48.4488 39.9616 48.5694 39.9424 48.6875 39.9015C48.8902 39.8317 49.0952 39.7686 49.302 39.7093L49.1182 40.0393C48.8241 40.5671 49.0138 41.2334 49.5418 41.5275C49.7103 41.6214 49.8928 41.666 50.0731 41.666C50.4574 41.666 50.83 41.4634 51.03 41.1041L52.5311 38.4087C52.672 38.1549 52.7066 37.8555 52.6272 37.5765Z" fill="#330D84"/>
<path d="M90.7597 82.9021C90.1927 82.6927 89.5636 82.982 89.3538 83.5485C89.2152 83.9227 89.0562 84.2956 88.8802 84.6566C88.6159 85.2 88.8419 85.8549 89.3855 86.1194C89.5395 86.1945 89.7026 86.2299 89.8634 86.2299C90.2689 86.2299 90.6588 86.0035 90.8481 85.6142C91.0551 85.1888 91.243 84.7492 91.4063 84.3078C91.6157 83.7413 91.3264 83.1118 90.7597 82.9021Z" fill="#330D84"/>
<path d="M66.7156 84.6567C66.5396 84.2957 66.3805 83.9228 66.242 83.5486C66.0322 82.9821 65.4035 82.6926 64.8361 82.9022C64.2694 83.1119 63.9801 83.7414 64.1897 84.3081C64.353 84.7495 64.5407 85.1889 64.7479 85.6145C64.9374 86.0035 65.3272 86.2303 65.7326 86.2303C65.893 86.2303 66.0563 86.1948 66.2105 86.1197C66.7539 85.855 66.9799 85.2 66.7156 84.6567Z" fill="#330D84"/>
<path d="M70.4984 89.1963C69.9001 88.7554 69.3382 88.2571 68.8279 87.7155C68.4137 87.2757 67.7216 87.2549 67.2815 87.6692C66.8415 88.0834 66.8209 88.7759 67.2351 89.2158C67.8351 89.8532 68.4964 90.4392 69.1999 90.9578C69.3953 91.1018 69.6229 91.1713 69.8483 91.1713C70.184 91.1713 70.5155 91.0173 70.7299 90.7263C71.0883 90.2396 70.9846 89.5547 70.4984 89.1963Z" fill="#330D84"/>
<path d="M83.2137 91.5963C83.0165 91.0251 82.3944 90.7223 81.8224 90.9192C81.1213 91.1615 80.3931 91.3407 79.6579 91.4518C79.0607 91.5424 78.6495 92.1 78.7401 92.6974C78.8222 93.2394 79.2887 93.6278 79.8207 93.6278C79.8752 93.6278 79.9303 93.6236 79.9859 93.6153C80.8522 93.484 81.7106 93.2729 82.5371 92.9873C83.108 92.7901 83.411 92.1672 83.2137 91.5963Z" fill="#330D84"/>
<path d="M88.3196 87.6632C87.8791 87.249 87.187 87.2704 86.773 87.7107C86.2636 88.2525 85.7019 88.7507 85.1039 89.1921C84.6176 89.5509 84.5144 90.2358 84.873 90.722C85.0875 91.0129 85.4187 91.1667 85.7542 91.1667C85.9798 91.1667 86.2074 91.0971 86.403 90.9529C87.1067 90.4336 87.7673 89.8472 88.3671 89.2098C88.7809 88.7695 88.7599 88.0772 88.3196 87.6632Z" fill="#330D84"/>
<path d="M77.6252 92.4143L76.1241 89.7188C75.83 89.1908 75.1637 89.0011 74.6359 89.2952C74.1079 89.5893 73.9184 90.2556 74.2123 90.7834L74.3961 91.1134C74.1897 91.0541 73.9843 90.9911 73.7816 90.9213C73.2107 90.7241 72.5876 91.0274 72.3906 91.5987C72.1937 92.1698 72.4967 92.7928 73.0681 92.9897C73.3383 93.083 73.6127 93.1652 73.8889 93.2423L73.4414 93.4915C72.9136 93.7856 72.7239 94.4517 73.0178 94.9797C73.2178 95.3392 73.5904 95.5418 73.9746 95.5418C74.1545 95.5418 74.3372 95.4972 74.5059 95.4035L77.2016 93.9027C77.455 93.7613 77.6423 93.5254 77.7215 93.2462C77.8011 92.967 77.7663 92.6679 77.6252 92.4143Z" fill="#330D84"/>
<path d="M99.0079 44.2214C96.3377 44.2214 94.1729 46.3862 94.1729 49.0565C94.1729 51.7267 96.3377 53.8915 99.0079 53.8915C101.678 53.8915 103.843 51.7267 103.843 49.0565C103.843 46.3862 101.678 44.2214 99.0079 44.2214Z" fill="#FFBE1B"/>
<path d="M101.851 46.5382C101.509 46.2509 100.998 46.2944 100.71 46.6369L98.153 49.6776L97.1084 48.6671C96.7874 48.3562 96.2745 48.3647 95.9633 48.6859C95.6526 49.0074 95.6611 49.5201 95.9824 49.831L97.6513 51.445C97.8027 51.5914 98.0045 51.6728 98.2143 51.6728C98.2281 51.6728 98.2421 51.6726 98.2559 51.6717C98.48 51.6601 98.6891 51.5562 98.8338 51.3842L101.949 47.6791C102.237 47.3371 102.193 46.8262 101.851 46.5382Z" fill="#330D84"/>
<path d="M73.0778 44.2214C70.4076 44.2214 68.2428 46.3862 68.2428 49.0565C68.2428 51.7267 70.4076 53.8915 73.0778 53.8915C75.7483 53.8915 77.9131 51.7267 77.9131 49.0565C77.9129 46.3862 75.7483 44.2214 73.0778 44.2214Z" fill="#FFBE1B"/>
<path d="M75.9208 46.5382C75.5786 46.2509 75.0679 46.2944 74.7799 46.6369L72.223 49.6776L71.1783 48.6671C70.8573 48.3562 70.3444 48.3647 70.0333 48.6859C69.7225 49.0074 69.7311 49.5201 70.0523 49.831L71.7212 51.445C71.8727 51.5914 72.0744 51.6728 72.2843 51.6728C72.298 51.6728 72.312 51.6726 72.3258 51.6717C72.5499 51.6601 72.7591 51.5562 72.9037 51.3842L76.0193 47.6791C76.3068 47.3371 76.263 46.8262 75.9208 46.5382Z" fill="#330D84"/>
<path d="M32.1949 76.9441C29.5247 76.9441 27.3599 79.1089 27.3599 81.7791C27.3599 84.4494 29.5247 86.6141 32.1949 86.6141C34.8654 86.6141 37.0302 84.4494 37.0302 81.7791C37.0299 79.1089 34.8654 76.9441 32.1949 76.9441Z" fill="#FFBE1B"/>
<path d="M35.0373 79.2609C34.695 78.9736 34.1843 79.0171 33.8963 79.3596L31.3392 82.4003L30.2946 81.3898C29.9736 81.079 29.4607 81.0873 29.1495 81.4088C28.8388 81.7302 28.8473 82.2429 29.1685 82.5539L30.8375 84.1679C30.9889 84.3143 31.1907 84.3957 31.4005 84.3957C31.4143 84.3957 31.4283 84.3955 31.4421 84.3946C31.6661 84.383 31.8753 84.279 32.02 84.1071L35.1355 80.402C35.4235 80.0598 35.3795 79.5488 35.0373 79.2609Z" fill="#330D84"/>
</svg>
