<svg width="254" height="514" viewBox="0 0 254 514" fill="none" xmlns="http://www.w3.org/2000/svg">
<path d="M11.0968 502.912C12.4746 504.289 13.9525 505.565 15.5306 506.716C18.2609 508.719 21.2919 510.371 24.5233 511.572C28.6815 513.149 33.1903 514 37.8996 514C96.4649 514 155.005 514 213.57 514C214.397 514 215.224 514 216.05 514C223.765 514 230.955 511.697 236.941 507.743C239.071 506.341 241.075 504.714 242.878 502.912C244.932 500.86 246.761 498.557 248.289 496.079C250.243 492.95 251.746 489.521 252.697 485.867C253.524 482.763 253.975 479.485 253.975 476.106C253.975 390.005 253.975 303.88 253.975 217.779C253.975 157.809 253.975 97.8642 253.975 37.8942C253.975 35.5165 253.749 33.1887 253.324 30.9361C251.896 23.2772 248.163 16.4192 242.853 11.113C241.049 9.31087 239.071 7.68397 236.916 6.28233C230.955 2.30269 223.791 0 216.075 0C215.249 0 214.422 0 213.595 0C155.03 0 96.4899 0 37.9247 0C33.2154 0 28.7065 0.850993 24.5483 2.42783C21.317 3.65427 18.286 5.28116 15.5556 7.2835C13.9775 8.43485 12.4996 9.71134 11.0968 11.0879C5.78639 16.3941 2.05404 23.2521 0.626233 30.9111C0.225444 33.1887 0 35.5165 0 37.8942C0 97.8642 0 157.809 0 217.779C0 303.88 0 390.005 0 476.106C0 479.485 0.450888 482.763 1.27751 485.867C2.25444 489.521 3.7574 492.95 5.68619 496.079C7.23925 498.557 9.0428 500.86 11.0968 502.912Z" fill="#E2E2E2"/>
<path d="M239.896 40.8227V472.151C239.896 486.743 228.048 498.582 213.444 498.582H40.9045C26.3007 498.582 14.4524 486.743 14.4524 472.151V40.8227C14.4524 26.2307 26.3007 14.3918 40.9045 14.3918H61.3948C64.1001 14.3918 66.3045 16.5944 66.3045 19.2976C66.3045 26.1806 71.8905 31.7621 78.779 31.7621H175.57C182.458 31.7621 188.044 26.1806 188.044 19.2976C188.044 16.5944 190.248 14.3918 192.954 14.3918H213.444C228.048 14.3918 239.896 26.2056 239.896 40.8227Z" fill="#4F1C9A"/>
<path d="M239.896 40.8227V472.151C239.896 486.743 228.048 498.582 213.444 498.582H40.9045C26.3007 498.582 14.4524 486.743 14.4524 472.151V40.8227C14.4524 26.2307 26.3007 14.3918 40.9045 14.3918H61.3948C64.1001 14.3918 66.3045 16.5944 66.3045 19.2976C66.3045 26.1806 71.8905 31.7621 78.779 31.7621H175.57C182.458 31.7621 188.044 26.1806 188.044 19.2976C188.044 16.5944 190.248 14.3918 192.954 14.3918H213.444C228.048 14.3918 239.896 26.2056 239.896 40.8227Z" fill="url(#paint0_linear)"/>
<path d="M213.446 499.283H40.906C25.9265 499.283 13.7526 487.119 13.7526 472.151V40.8226C13.7526 25.8551 25.9265 13.6909 40.906 13.6909H61.3963C64.5025 13.6909 67.0324 16.2189 67.0324 19.3225C67.0324 25.8051 72.3178 31.0862 78.7806 31.0862H175.571C182.059 31.0862 187.319 25.8051 187.319 19.3225C187.319 16.2189 189.849 13.6909 192.955 13.6909H213.446C228.425 13.6909 240.599 25.8551 240.599 40.8226V472.151C240.599 487.094 228.425 499.283 213.446 499.283ZM40.906 15.0926C26.7031 15.0926 15.1553 26.631 15.1553 40.8226V472.151C15.1553 486.343 26.7031 497.881 40.906 497.881H213.446C227.649 497.881 239.196 486.343 239.196 472.151V40.8226C239.196 26.631 227.649 15.0926 213.446 15.0926H192.955C190.626 15.0926 188.747 16.9697 188.747 19.2975C188.747 26.5559 182.835 32.4628 175.571 32.4628H78.7806C71.5163 32.4628 65.6046 26.5559 65.6046 19.2975C65.6046 16.9697 63.7259 15.0926 61.3963 15.0926H40.906Z" fill="#D5D5D5"/>
<path d="M213.446 499.283H40.906C25.9265 499.283 13.7526 487.119 13.7526 472.151V40.8226C13.7526 25.8551 25.9265 13.6909 40.906 13.6909H61.3963C64.5025 13.6909 67.0324 16.2189 67.0324 19.3225C67.0324 25.8051 72.3178 31.0862 78.7806 31.0862H175.571C182.059 31.0862 187.319 25.8051 187.319 19.3225C187.319 16.2189 189.849 13.6909 192.955 13.6909H213.446C228.425 13.6909 240.599 25.8551 240.599 40.8226V472.151C240.599 487.094 228.425 499.283 213.446 499.283ZM40.906 15.0926C26.7031 15.0926 15.1553 26.631 15.1553 40.8226V472.151C15.1553 486.343 26.7031 497.881 40.906 497.881H213.446C227.649 497.881 239.196 486.343 239.196 472.151V40.8226C239.196 26.631 227.649 15.0926 213.446 15.0926H192.955C190.626 15.0926 188.747 16.9697 188.747 19.2975C188.747 26.5559 182.835 32.4628 175.571 32.4628H78.7806C71.5163 32.4628 65.6046 26.5559 65.6046 19.2975C65.6046 16.9697 63.7259 15.0926 61.3963 15.0926H40.906Z" fill="#D5D5D5"/>
<mask id="mask0" mask-type="alpha" maskUnits="userSpaceOnUse" x="14" y="14" width="226" height="485">
<path d="M239.896 40.8227V472.151C239.896 486.743 228.048 498.582 213.444 498.582H40.9045C26.3007 498.582 14.4524 486.743 14.4524 472.151V40.8227C14.4524 26.2307 26.3007 14.3918 40.9045 14.3918H61.3948C64.1001 14.3918 66.3045 16.5944 66.3045 19.2976C66.3045 26.1806 71.8905 31.7621 78.779 31.7621H175.57C182.458 31.7621 188.044 26.1806 188.044 19.2976C188.044 16.5944 190.248 14.3918 192.954 14.3918H213.444C228.048 14.3918 239.896 26.2056 239.896 40.8227Z" fill="#4F1C9A"/>
</mask>
<g mask="url(#mask0)">
<rect x="15" width="226" height="514" fill="#4F1C9A"/>
<rect x="15" width="226" height="514" fill="url(#paint1_linear)"/>
</g>
<path d="M170.448 211.979L170.402 211.881C169.484 209.878 140.335 159.675 135.412 151.2C135.091 150.647 134.328 150.647 134.007 151.2C129.083 159.675 99.9288 209.878 99.0108 211.881L98.9519 211.979H98.965C96.6973 216.946 95.4193 222.464 95.4193 228.283C95.4193 249.979 113.01 267.567 134.71 267.567C156.409 267.567 174 249.979 174 228.283C173.993 222.464 172.722 216.946 170.448 211.979ZM134.618 249.704C120.809 249.704 109.608 238.132 109.608 223.866C109.608 220.039 110.421 216.409 111.863 213.139L111.896 213.074C112.538 211.632 134.618 172.361 134.618 172.361C134.618 172.361 156.698 211.632 157.34 213.074L157.373 213.139C158.821 216.409 159.627 220.039 159.627 223.866C159.627 238.132 148.433 249.704 134.618 249.704Z" fill="#5A1EB4"/>
<path d="M170.448 211.979L170.402 211.881C169.484 209.878 140.335 159.675 135.412 151.2C135.091 150.647 134.328 150.647 134.007 151.2C129.083 159.675 99.9288 209.878 99.0108 211.881L98.9519 211.979H98.965C96.6973 216.946 95.4193 222.464 95.4193 228.283C95.4193 249.979 113.01 267.567 134.71 267.567C156.409 267.567 174 249.979 174 228.283C173.993 222.464 172.722 216.946 170.448 211.979ZM134.618 249.704C120.809 249.704 109.608 238.132 109.608 223.866C109.608 220.039 110.421 216.409 111.863 213.139L111.896 213.074C112.538 211.632 134.618 172.361 134.618 172.361C134.618 172.361 156.698 211.632 157.34 213.074L157.373 213.139C158.821 216.409 159.627 220.039 159.627 223.866C159.627 238.132 148.433 249.704 134.618 249.704Z" fill="url(#paint2_linear)"/>
<mask id="mask1" mask-type="alpha" maskUnits="userSpaceOnUse" x="95" y="150" width="79" height="118">
<path d="M170.448 211.979L170.402 211.881C169.484 209.878 140.335 159.675 135.412 151.2C135.091 150.647 134.328 150.647 134.007 151.2C129.083 159.675 99.9288 209.878 99.0108 211.881L98.9519 211.979H98.965C96.6973 216.946 95.4193 222.464 95.4193 228.283C95.4193 249.979 113.01 267.567 134.71 267.567C156.409 267.567 174 249.979 174 228.283C173.993 222.464 172.722 216.946 170.448 211.979ZM134.618 249.704C120.809 249.704 109.608 238.132 109.608 223.866C109.608 220.039 110.421 216.409 111.863 213.139L111.896 213.074C112.538 211.632 134.618 172.361 134.618 172.361C134.618 172.361 156.698 211.632 157.34 213.074L157.373 213.139C158.821 216.409 159.627 220.039 159.627 223.866C159.627 238.132 148.433 249.704 134.618 249.704Z" fill="white"/>
</mask>
<g mask="url(#mask1)">
<path d="M169.789 196.976L169.743 196.878C168.825 194.874 139.677 144.672 134.754 136.196C134.433 135.643 133.67 135.643 133.348 136.196C128.425 144.672 99.2704 194.874 98.3524 196.878L98.2934 196.976H98.3065C96.0389 201.943 94.7609 207.46 94.7609 213.279C94.7609 234.976 112.351 252.563 134.051 252.563C155.751 252.563 173.341 234.976 173.341 213.279C173.335 207.46 172.063 201.943 169.789 196.976ZM133.959 234.7C120.15 234.7 108.95 223.128 108.95 208.863C108.95 205.036 109.763 201.406 111.204 198.136L111.237 198.07C111.88 196.629 133.959 157.358 133.959 157.358C133.959 157.358 156.039 196.629 156.681 198.07L156.714 198.136C158.163 201.406 158.969 205.036 158.969 208.863C158.969 223.128 147.775 234.7 133.959 234.7Z" fill="#7730E1"/>
</g>
<mask id="mask2" mask-type="alpha" maskUnits="userSpaceOnUse" x="95" y="150" width="79" height="118">
<path d="M170.448 211.979L170.402 211.881C169.484 209.878 140.335 159.675 135.412 151.2C135.091 150.647 134.328 150.647 134.007 151.2C129.083 159.675 99.9288 209.878 99.0108 211.881L98.9519 211.979H98.965C96.6973 216.946 95.4193 222.464 95.4193 228.283C95.4193 249.979 113.01 267.567 134.71 267.567C156.409 267.567 174 249.979 174 228.283C173.993 222.464 172.722 216.946 170.448 211.979ZM134.618 249.704C120.809 249.704 109.608 238.132 109.608 223.866C109.608 220.039 110.421 216.409 111.863 213.139L111.896 213.074C112.538 211.632 134.618 172.361 134.618 172.361C134.618 172.361 156.698 211.632 157.34 213.074L157.373 213.139C158.821 216.409 159.627 220.039 159.627 223.866C159.627 238.132 148.433 249.704 134.618 249.704Z" fill="#914AFB"/>
</mask>
<g mask="url(#mask2)">
<path d="M123.833 165.461L134.708 171.106L124.151 191.443L115.197 183.649L123.833 165.461Z" fill="url(#paint3_linear)"/>
<rect width="12.2529" height="18.053" transform="matrix(0.866025 0.5 0.5 -0.866025 100.219 208.782)" fill="url(#paint4_linear)"/>
</g>
<path d="M163.686 163.247L163.649 163.168C162.914 161.563 139.824 121.796 135.432 114.235C135.111 113.682 134.319 113.682 133.997 114.235C129.605 121.796 106.511 161.563 105.775 163.168L105.728 163.247H105.738C103.9 167.274 102.864 171.746 102.864 176.463C102.864 194.049 117.124 208.305 134.715 208.305C152.306 208.305 166.566 194.049 166.566 176.463C166.56 171.746 165.53 167.274 163.686 163.247ZM134.64 193.826C123.446 193.826 114.366 184.446 114.366 172.883C114.366 169.781 115.025 166.838 116.194 164.188L116.221 164.134C116.723 163.008 133.385 133.367 134.574 131.252C134.606 131.196 134.675 131.196 134.707 131.252C135.896 133.367 152.558 163.008 153.06 164.134L153.087 164.188C154.261 166.838 154.915 169.781 154.915 172.883C154.915 184.446 145.84 193.826 134.64 193.826Z" fill="#7B64F7"/>
<mask id="mask3" mask-type="alpha" maskUnits="userSpaceOnUse" x="102" y="113" width="65" height="96">
<path d="M163.686 163.247L163.649 163.168C162.914 161.563 139.824 121.796 135.432 114.235C135.111 113.682 134.319 113.682 133.997 114.235C129.605 121.796 106.511 161.563 105.775 163.168L105.728 163.247H105.738C103.9 167.274 102.864 171.746 102.864 176.463C102.864 194.049 117.124 208.305 134.715 208.305C152.306 208.305 166.566 194.049 166.566 176.463C166.56 171.746 165.53 167.274 163.686 163.247ZM134.64 193.826C123.446 193.826 114.366 184.446 114.366 172.883C114.366 169.781 115.025 166.838 116.194 164.188L116.221 164.134C116.723 163.008 133.385 133.367 134.574 131.252C134.606 131.196 134.675 131.196 134.707 131.252C135.896 133.367 152.558 163.008 153.06 164.134L153.087 164.188C154.261 166.838 154.915 169.781 154.915 172.883C154.915 184.446 145.84 193.826 134.64 193.826Z" fill="#927EFC"/>
</mask>
<g mask="url(#mask3)">
<path d="M163.686 153.402L163.649 153.323C162.913 151.717 139.824 111.951 135.432 104.39C135.111 103.837 134.318 103.837 133.997 104.39C129.605 111.951 106.511 151.717 105.775 153.323L105.727 153.402H105.738C103.9 157.428 102.864 161.901 102.864 166.617C102.864 184.204 117.124 198.46 134.715 198.46C152.306 198.46 166.566 184.204 166.566 166.617C166.56 161.901 165.53 157.428 163.686 153.402ZM134.64 183.981C123.446 183.981 114.366 174.601 114.366 163.037C114.366 159.935 115.025 156.993 116.194 154.342L116.22 154.289C116.723 153.162 133.385 123.522 134.574 121.407C134.605 121.351 134.675 121.351 134.707 121.407C135.896 123.522 152.558 153.162 153.06 154.289L153.087 154.342C154.261 156.993 154.914 159.935 154.914 163.037C154.914 174.601 145.84 183.981 134.64 183.981Z" fill="#927EFC"/>
</g>
<path d="M163.686 163.247L163.649 163.168C162.914 161.563 139.824 121.796 135.432 114.235C135.111 113.682 134.319 113.682 133.997 114.235C129.605 121.796 106.511 161.563 105.775 163.168L105.728 163.247H105.738C103.9 167.274 102.864 171.746 102.864 176.463C102.864 194.049 117.124 208.305 134.715 208.305C152.306 208.305 166.566 194.049 166.566 176.463C166.56 171.746 165.53 167.274 163.686 163.247ZM134.64 193.826C123.446 193.826 114.366 184.446 114.366 172.883C114.366 169.781 115.025 166.838 116.194 164.188L116.221 164.134C116.723 163.008 133.385 133.367 134.574 131.252C134.606 131.196 134.675 131.196 134.707 131.252C135.896 133.367 152.558 163.008 153.06 164.134L153.087 164.188C154.261 166.838 154.915 169.781 154.915 172.883C154.915 184.446 145.84 193.826 134.64 193.826Z" fill="url(#paint5_linear)"/>
<mask id="mask4" mask-type="alpha" maskUnits="userSpaceOnUse" x="102" y="113" width="65" height="96">
<path d="M163.686 163.247L163.649 163.168C162.914 161.563 139.824 121.796 135.432 114.235C135.111 113.682 134.319 113.682 133.997 114.235C129.605 121.796 106.511 161.563 105.775 163.168L105.728 163.247H105.738C103.9 167.274 102.864 171.746 102.864 176.463C102.864 194.049 117.124 208.305 134.715 208.305C152.306 208.305 166.566 194.049 166.566 176.463C166.56 171.746 165.53 167.274 163.686 163.247ZM134.64 193.826C123.446 193.826 114.366 184.446 114.366 172.883C114.366 169.781 115.025 166.838 116.194 164.188L116.221 164.134C116.723 163.008 133.385 133.367 134.574 131.252C134.606 131.196 134.675 131.196 134.707 131.252C135.896 133.367 152.558 163.008 153.06 164.134L153.087 164.188C154.261 166.838 154.915 169.781 154.915 172.883C154.915 184.446 145.84 193.826 134.64 193.826Z" fill="#914AFB"/>
</mask>
<g mask="url(#mask4)">
<path d="M155.497 164.995L176.778 186.025L160.687 194.909L153.062 181.617L155.497 164.995Z" fill="url(#paint6_linear)"/>
<path d="M126.653 189.007L135.928 212.372L152.617 204.473L145.016 190.883L126.653 189.007Z" fill="url(#paint7_linear)"/>
</g>
<mask id="mask5" mask-type="alpha" maskUnits="userSpaceOnUse" x="138" y="179" width="28" height="30">
<rect x="138.904" y="179.125" width="26.5814" height="29.2067" fill="#C4C4C4"/>
</mask>
<g mask="url(#mask5)">
<path fill-rule="evenodd" clip-rule="evenodd" d="M160.719 194.872C158.339 190.746 155.714 186.204 153.074 181.642C151.353 185.498 148.53 188.721 145.023 190.882C147.415 195.15 149.864 199.528 151.944 203.257C155.377 201.048 158.359 198.196 160.719 194.872ZM117.364 203.162C119.436 199.446 121.87 195.097 124.245 190.858C120.794 188.72 118.009 185.552 116.289 181.766C113.677 186.28 111.08 190.771 108.724 194.856C111.052 198.139 113.987 200.962 117.364 203.162Z" fill="#7D35E8"/>
</g>
<mask id="mask6" mask-type="alpha" maskUnits="userSpaceOnUse" x="108" y="181" width="53" height="23">
<path fill-rule="evenodd" clip-rule="evenodd" d="M160.719 194.872C158.339 190.746 155.714 186.204 153.074 181.642C151.353 185.498 148.531 188.721 145.024 190.882C147.415 195.15 149.864 199.528 151.944 203.257C155.378 201.048 158.359 198.196 160.719 194.872ZM117.365 203.162C119.437 199.446 121.87 195.097 124.246 190.858C120.795 188.72 118.009 185.552 116.289 181.766C113.677 186.28 111.081 190.771 108.725 194.856C111.052 198.139 113.987 200.962 117.365 203.162Z" fill="#7D35E8"/>
</mask>
<g mask="url(#mask6)">
<path d="M161.099 204.852H160.646C160.468 204.463 159.016 202.423 157.119 199.061C155.231 195.716 152.906 191.061 150.063 186.07C141.043 170.232 129.085 149.36 126.073 144.104C125.754 143.547 124.975 143.526 124.653 144.081C119.714 152.583 90.5799 202.751 89.6623 204.753L89.6033 204.852H89.6164C87.3488 209.819 86.0708 215.336 86.0708 221.155C86.0708 242.851 103.661 260.439 125.361 260.439C147.061 260.439 164.651 242.851 164.651 221.155C164.645 215.336 163.373 209.819 161.099 204.852ZM125.269 242.576C111.46 242.576 100.26 231.004 100.26 216.738C100.26 212.912 101.072 209.281 102.514 206.012L102.547 205.946C103.189 204.504 125.269 165.234 125.269 165.234C125.269 165.234 147.349 204.504 147.991 205.946L148.024 206.012C149.472 209.281 150.279 212.912 150.279 216.738C150.279 231.004 139.085 242.576 125.269 242.576Z" fill="#5A1EB4"/>
</g>
<g filter="url(#filter0_f)">
<path d="M170.448 211.979L170.402 211.881C169.484 209.878 140.335 159.675 135.412 151.2C135.091 150.647 134.328 150.647 134.007 151.2C129.083 159.675 99.9288 209.878 99.0108 211.881L98.9519 211.979H98.965C96.6973 216.946 95.4193 222.464 95.4193 228.283C95.4193 249.979 113.01 267.567 134.71 267.567C156.409 267.567 174 249.979 174 228.283C173.993 222.464 172.722 216.946 170.448 211.979ZM134.618 249.704C120.809 249.704 109.608 238.132 109.608 223.866C109.608 220.039 110.421 216.409 111.863 213.139L111.896 213.074C112.538 211.632 134.618 172.361 134.618 172.361C134.618 172.361 156.698 211.632 157.34 213.074L157.373 213.139C158.821 216.409 159.627 220.039 159.627 223.866C159.627 238.132 148.433 249.704 134.618 249.704Z" fill="#5A1EB4"/>
<path d="M170.448 211.979L170.402 211.881C169.484 209.878 140.335 159.675 135.412 151.2C135.091 150.647 134.328 150.647 134.007 151.2C129.083 159.675 99.9288 209.878 99.0108 211.881L98.9519 211.979H98.965C96.6973 216.946 95.4193 222.464 95.4193 228.283C95.4193 249.979 113.01 267.567 134.71 267.567C156.409 267.567 174 249.979 174 228.283C173.993 222.464 172.722 216.946 170.448 211.979ZM134.618 249.704C120.809 249.704 109.608 238.132 109.608 223.866C109.608 220.039 110.421 216.409 111.863 213.139L111.896 213.074C112.538 211.632 134.618 172.361 134.618 172.361C134.618 172.361 156.698 211.632 157.34 213.074L157.373 213.139C158.821 216.409 159.627 220.039 159.627 223.866C159.627 238.132 148.433 249.704 134.618 249.704Z" fill="url(#paint8_linear)"/>
<mask id="mask7" mask-type="alpha" maskUnits="userSpaceOnUse" x="95" y="150" width="79" height="118">
<path d="M170.448 211.979L170.402 211.881C169.484 209.878 140.335 159.675 135.412 151.2C135.091 150.647 134.328 150.647 134.007 151.2C129.083 159.675 99.9288 209.878 99.0108 211.881L98.9519 211.979H98.965C96.6973 216.946 95.4193 222.464 95.4193 228.283C95.4193 249.979 113.01 267.567 134.71 267.567C156.409 267.567 174 249.979 174 228.283C173.993 222.464 172.722 216.946 170.448 211.979ZM134.618 249.704C120.809 249.704 109.608 238.132 109.608 223.866C109.608 220.039 110.421 216.409 111.863 213.139L111.896 213.074C112.538 211.632 134.618 172.361 134.618 172.361C134.618 172.361 156.698 211.632 157.34 213.074L157.373 213.139C158.821 216.409 159.627 220.039 159.627 223.866C159.627 238.132 148.433 249.704 134.618 249.704Z" fill="white"/>
</mask>
<g mask="url(#mask7)">
<path d="M169.789 196.976L169.743 196.878C168.825 194.874 139.677 144.672 134.754 136.196C134.433 135.643 133.67 135.643 133.348 136.196C128.425 144.672 99.2704 194.874 98.3524 196.878L98.2934 196.976H98.3065C96.0389 201.943 94.7609 207.46 94.7609 213.279C94.7609 234.976 112.351 252.563 134.051 252.563C155.751 252.563 173.341 234.976 173.341 213.279C173.335 207.46 172.063 201.943 169.789 196.976ZM133.959 234.7C120.15 234.7 108.95 223.128 108.95 208.863C108.95 205.036 109.763 201.406 111.204 198.136L111.237 198.07C111.88 196.629 133.959 157.358 133.959 157.358C133.959 157.358 156.039 196.629 156.681 198.07L156.714 198.136C158.163 201.406 158.969 205.036 158.969 208.863C158.969 223.128 147.775 234.7 133.959 234.7Z" fill="#7730E1"/>
</g>
<mask id="mask8" mask-type="alpha" maskUnits="userSpaceOnUse" x="95" y="150" width="79" height="118">
<path d="M170.448 211.979L170.402 211.881C169.484 209.878 140.335 159.675 135.412 151.2C135.091 150.647 134.328 150.647 134.007 151.2C129.083 159.675 99.9288 209.878 99.0108 211.881L98.9519 211.979H98.965C96.6973 216.946 95.4193 222.464 95.4193 228.283C95.4193 249.979 113.01 267.567 134.71 267.567C156.409 267.567 174 249.979 174 228.283C173.993 222.464 172.722 216.946 170.448 211.979ZM134.618 249.704C120.809 249.704 109.608 238.132 109.608 223.866C109.608 220.039 110.421 216.409 111.863 213.139L111.896 213.074C112.538 211.632 134.618 172.361 134.618 172.361C134.618 172.361 156.698 211.632 157.34 213.074L157.373 213.139C158.821 216.409 159.627 220.039 159.627 223.866C159.627 238.132 148.433 249.704 134.618 249.704Z" fill="#914AFB"/>
</mask>
<g mask="url(#mask8)">
<path d="M123.833 165.461L134.708 171.106L124.151 191.443L115.197 183.649L123.833 165.461Z" fill="url(#paint9_linear)"/>
<rect width="12.2529" height="18.053" transform="matrix(0.866025 0.5 0.5 -0.866025 100.219 208.782)" fill="url(#paint10_linear)"/>
</g>
<path d="M163.686 163.247L163.649 163.168C162.914 161.563 139.824 121.796 135.432 114.235C135.111 113.682 134.319 113.682 133.997 114.235C129.605 121.796 106.511 161.563 105.775 163.168L105.728 163.247H105.738C103.9 167.274 102.864 171.746 102.864 176.463C102.864 194.049 117.124 208.305 134.715 208.305C152.306 208.305 166.566 194.049 166.566 176.463C166.56 171.746 165.53 167.274 163.686 163.247ZM134.64 193.826C123.446 193.826 114.366 184.446 114.366 172.883C114.366 169.781 115.025 166.838 116.194 164.188L116.221 164.134C116.723 163.008 133.385 133.367 134.574 131.252C134.606 131.196 134.675 131.196 134.707 131.252C135.896 133.367 152.558 163.008 153.06 164.134L153.087 164.188C154.261 166.838 154.915 169.781 154.915 172.883C154.915 184.446 145.84 193.826 134.64 193.826Z" fill="#7B64F7"/>
<mask id="mask9" mask-type="alpha" maskUnits="userSpaceOnUse" x="102" y="113" width="65" height="96">
<path d="M163.686 163.247L163.649 163.168C162.914 161.563 139.824 121.796 135.432 114.235C135.111 113.682 134.319 113.682 133.997 114.235C129.605 121.796 106.511 161.563 105.775 163.168L105.728 163.247H105.738C103.9 167.274 102.864 171.746 102.864 176.463C102.864 194.049 117.124 208.305 134.715 208.305C152.306 208.305 166.566 194.049 166.566 176.463C166.56 171.746 165.53 167.274 163.686 163.247ZM134.64 193.826C123.446 193.826 114.366 184.446 114.366 172.883C114.366 169.781 115.025 166.838 116.194 164.188L116.221 164.134C116.723 163.008 133.385 133.367 134.574 131.252C134.606 131.196 134.675 131.196 134.707 131.252C135.896 133.367 152.558 163.008 153.06 164.134L153.087 164.188C154.261 166.838 154.915 169.781 154.915 172.883C154.915 184.446 145.84 193.826 134.64 193.826Z" fill="#927EFC"/>
</mask>
<g mask="url(#mask9)">
<path d="M163.686 153.402L163.649 153.323C162.913 151.717 139.824 111.951 135.432 104.39C135.111 103.837 134.318 103.837 133.997 104.39C129.605 111.951 106.511 151.717 105.775 153.323L105.727 153.402H105.738C103.9 157.428 102.864 161.901 102.864 166.617C102.864 184.204 117.124 198.46 134.715 198.46C152.306 198.46 166.566 184.204 166.566 166.617C166.56 161.901 165.53 157.428 163.686 153.402ZM134.64 183.981C123.446 183.981 114.366 174.601 114.366 163.037C114.366 159.935 115.025 156.993 116.194 154.342L116.22 154.289C116.723 153.162 133.385 123.522 134.574 121.407C134.605 121.351 134.675 121.351 134.707 121.407C135.896 123.522 152.558 153.162 153.06 154.289L153.087 154.342C154.261 156.993 154.914 159.935 154.914 163.037C154.914 174.601 145.84 183.981 134.64 183.981Z" fill="#927EFC"/>
</g>
<path d="M163.686 163.247L163.649 163.168C162.914 161.563 139.824 121.796 135.432 114.235C135.111 113.682 134.319 113.682 133.997 114.235C129.605 121.796 106.511 161.563 105.775 163.168L105.728 163.247H105.738C103.9 167.274 102.864 171.746 102.864 176.463C102.864 194.049 117.124 208.305 134.715 208.305C152.306 208.305 166.566 194.049 166.566 176.463C166.56 171.746 165.53 167.274 163.686 163.247ZM134.64 193.826C123.446 193.826 114.366 184.446 114.366 172.883C114.366 169.781 115.025 166.838 116.194 164.188L116.221 164.134C116.723 163.008 133.385 133.367 134.574 131.252C134.606 131.196 134.675 131.196 134.707 131.252C135.896 133.367 152.558 163.008 153.06 164.134L153.087 164.188C154.261 166.838 154.915 169.781 154.915 172.883C154.915 184.446 145.84 193.826 134.64 193.826Z" fill="url(#paint11_linear)"/>
<mask id="mask10" mask-type="alpha" maskUnits="userSpaceOnUse" x="102" y="113" width="65" height="96">
<path d="M163.686 163.247L163.649 163.168C162.914 161.563 139.824 121.796 135.432 114.235C135.111 113.682 134.319 113.682 133.997 114.235C129.605 121.796 106.511 161.563 105.775 163.168L105.728 163.247H105.738C103.9 167.274 102.864 171.746 102.864 176.463C102.864 194.049 117.124 208.305 134.715 208.305C152.306 208.305 166.566 194.049 166.566 176.463C166.56 171.746 165.53 167.274 163.686 163.247ZM134.64 193.826C123.446 193.826 114.366 184.446 114.366 172.883C114.366 169.781 115.025 166.838 116.194 164.188L116.221 164.134C116.723 163.008 133.385 133.367 134.574 131.252C134.606 131.196 134.675 131.196 134.707 131.252C135.896 133.367 152.558 163.008 153.06 164.134L153.087 164.188C154.261 166.838 154.915 169.781 154.915 172.883C154.915 184.446 145.84 193.826 134.64 193.826Z" fill="#914AFB"/>
</mask>
<g mask="url(#mask10)">
<path d="M155.497 164.995L176.778 186.025L160.687 194.909L153.062 181.617L155.497 164.995Z" fill="url(#paint12_linear)"/>
<path d="M126.653 189.007L135.928 212.372L152.617 204.473L145.016 190.883L126.653 189.007Z" fill="url(#paint13_linear)"/>
</g>
<mask id="mask11" mask-type="alpha" maskUnits="userSpaceOnUse" x="138" y="179" width="28" height="30">
<rect x="138.904" y="179.125" width="26.5814" height="29.2067" fill="#C4C4C4"/>
</mask>
<g mask="url(#mask11)">
<path fill-rule="evenodd" clip-rule="evenodd" d="M160.719 194.872C158.339 190.746 155.714 186.204 153.074 181.642C151.353 185.498 148.53 188.721 145.023 190.882C147.415 195.15 149.864 199.528 151.944 203.257C155.377 201.048 158.359 198.196 160.719 194.872ZM117.364 203.162C119.436 199.446 121.87 195.097 124.245 190.858C120.794 188.72 118.009 185.552 116.289 181.766C113.677 186.28 111.08 190.771 108.724 194.856C111.052 198.139 113.987 200.962 117.364 203.162Z" fill="#7D35E8"/>
</g>
<mask id="mask12" mask-type="alpha" maskUnits="userSpaceOnUse" x="108" y="181" width="53" height="23">
<path fill-rule="evenodd" clip-rule="evenodd" d="M160.719 194.872C158.339 190.746 155.714 186.204 153.074 181.642C151.353 185.498 148.531 188.721 145.024 190.882C147.415 195.15 149.864 199.528 151.944 203.257C155.378 201.048 158.359 198.196 160.719 194.872ZM117.365 203.162C119.437 199.446 121.87 195.097 124.246 190.858C120.795 188.72 118.009 185.552 116.289 181.766C113.677 186.28 111.081 190.771 108.725 194.856C111.052 198.139 113.987 200.962 117.365 203.162Z" fill="#7D35E8"/>
</mask>
<g mask="url(#mask12)">
<path d="M161.099 204.852H160.646C160.468 204.463 159.016 202.423 157.119 199.061C155.231 195.716 152.906 191.061 150.063 186.07C141.043 170.232 129.085 149.36 126.073 144.104C125.754 143.547 124.975 143.526 124.653 144.081C119.714 152.583 90.5799 202.751 89.6623 204.753L89.6033 204.852H89.6164C87.3488 209.819 86.0708 215.336 86.0708 221.155C86.0708 242.851 103.661 260.439 125.361 260.439C147.061 260.439 164.651 242.851 164.651 221.155C164.645 215.336 163.373 209.819 161.099 204.852ZM125.269 242.576C111.46 242.576 100.26 231.004 100.26 216.738C100.26 212.912 101.072 209.281 102.514 206.012L102.547 205.946C103.189 204.504 125.269 165.234 125.269 165.234C125.269 165.234 147.349 204.504 147.991 205.946L148.024 206.012C149.472 209.281 150.279 212.912 150.279 216.738C150.279 231.004 139.085 242.576 125.269 242.576Z" fill="#5A1EB4"/>
</g>
</g>
<path d="M92 316.136V304.006H94.7069V313.724H99.8779V316.136H92Z" fill="white"/>
<path d="M103.337 316.136H100.734V306.8H103.337V316.136ZM100.943 305.62C100.653 305.319 100.509 304.955 100.509 304.527C100.509 304.099 100.653 303.74 100.943 303.451C101.243 303.15 101.608 303 102.036 303C102.464 303 102.822 303.15 103.112 303.451C103.412 303.74 103.563 304.099 103.563 304.527C103.563 304.955 103.412 305.319 103.112 305.62C102.822 305.909 102.464 306.054 102.036 306.054C101.608 306.054 101.243 305.909 100.943 305.62Z" fill="white"/>
<path d="M108.872 316.274C107.681 316.274 106.64 315.829 105.749 314.938C104.858 314.036 104.413 312.885 104.413 311.485C104.413 310.074 104.847 308.917 105.714 308.015C106.582 307.101 107.548 306.644 108.612 306.644C109.676 306.644 110.608 307.043 111.406 307.841V306.8H114.026V319.502H111.406V315.389C110.665 315.979 109.821 316.274 108.872 316.274ZM107.033 311.485C107.033 312.237 107.259 312.856 107.71 313.342C108.161 313.816 108.687 314.053 109.289 314.053C109.89 314.053 110.399 313.816 110.816 313.342C111.232 312.856 111.441 312.237 111.441 311.485C111.441 310.722 111.232 310.091 110.816 309.594C110.399 309.085 109.885 308.83 109.272 308.83C108.658 308.83 108.132 309.085 107.692 309.594C107.253 310.091 107.033 310.722 107.033 311.485Z" fill="white"/>
<path d="M121.644 311.832V306.8H124.264V316.136H121.644V314.904C120.996 315.817 120.157 316.274 119.128 316.274C118.11 316.274 117.254 315.956 116.56 315.32C115.866 314.672 115.519 313.718 115.519 312.457V306.8H118.139V311.884C118.139 313.319 118.665 314.036 119.718 314.036C120.238 314.036 120.69 313.851 121.071 313.481C121.453 313.099 121.644 312.549 121.644 311.832Z" fill="white"/>
<path d="M128.457 316.136H125.854V306.8H128.457V316.136ZM126.063 305.62C125.773 305.319 125.629 304.955 125.629 304.527C125.629 304.099 125.773 303.74 126.063 303.451C126.363 303.15 126.728 303 127.156 303C127.584 303 127.942 303.15 128.232 303.451C128.532 303.74 128.683 304.099 128.683 304.527C128.683 304.955 128.532 305.319 128.232 305.62C127.942 305.909 127.584 306.054 127.156 306.054C126.728 306.054 126.363 305.909 126.063 305.62Z" fill="white"/>
<path d="M135.884 313.741C137.214 313.741 138.302 313.215 139.146 312.162L140.881 313.949C139.505 315.499 137.879 316.274 136.005 316.274C134.143 316.274 132.604 315.684 131.39 314.505C130.187 313.325 129.585 311.838 129.585 310.045C129.585 308.24 130.198 306.737 131.424 305.533C132.662 304.33 134.172 303.729 135.953 303.729C137.943 303.729 139.609 304.487 140.951 306.002L139.268 307.911C138.411 306.846 137.347 306.314 136.075 306.314C135.057 306.314 134.183 306.65 133.455 307.321C132.737 307.98 132.379 308.877 132.379 310.01C132.379 311.132 132.72 312.035 133.402 312.717C134.085 313.4 134.912 313.741 135.884 313.741Z" fill="white"/>
<path d="M144.498 311.103V316.136H141.895V303.26H144.498V307.841C145.284 307.043 146.164 306.644 147.135 306.644C148.119 306.644 148.946 306.991 149.617 307.685C150.288 308.379 150.623 309.305 150.623 310.461V316.136H148.02V311.034C148.02 309.6 147.494 308.882 146.441 308.882C145.921 308.882 145.464 309.073 145.07 309.455C144.689 309.825 144.498 310.375 144.498 311.103Z" fill="white"/>
<path d="M160.04 316.136H157.593V315.008C156.922 315.852 156.089 316.274 155.094 316.274C154.111 316.274 153.284 315.991 152.613 315.424C151.942 314.846 151.607 314.082 151.607 313.134C151.607 312.174 151.954 311.456 152.648 310.982C153.342 310.508 154.29 310.271 155.493 310.271H157.437V310.219C157.437 309.224 156.911 308.726 155.858 308.726C155.407 308.726 154.927 308.819 154.418 309.004C153.92 309.177 153.498 309.397 153.151 309.663L151.988 307.98C153.215 307.089 154.614 306.644 156.188 306.644C157.321 306.644 158.247 306.927 158.964 307.494C159.681 308.061 160.04 308.958 160.04 310.184V316.136ZM157.42 312.578V312.127H155.788C154.747 312.127 154.227 312.451 154.227 313.099C154.227 313.434 154.348 313.695 154.591 313.88C154.846 314.053 155.204 314.14 155.667 314.14C156.13 314.14 156.535 314.001 156.882 313.724C157.24 313.434 157.42 313.053 157.42 312.578Z" fill="white"/>
<path d="M164.148 316.136H161.545V306.8H164.148V316.136ZM161.753 305.62C161.464 305.319 161.319 304.955 161.319 304.527C161.319 304.099 161.464 303.74 161.753 303.451C162.054 303.15 162.418 303 162.846 303C163.274 303 163.633 303.15 163.922 303.451C164.223 303.74 164.373 304.099 164.373 304.527C164.373 304.955 164.223 305.319 163.922 305.62C163.633 305.909 163.274 306.054 162.846 306.054C162.418 306.054 162.054 305.909 161.753 305.62Z" fill="white"/>
<path d="M168.347 310.93V316.136H165.744V306.8H168.347V307.841C169.134 307.043 170.019 306.644 171.002 306.644C171.985 306.644 172.806 306.991 173.466 307.685C174.137 308.379 174.472 309.305 174.472 310.461V316.136H171.869V310.861C171.869 309.426 171.343 308.709 170.29 308.709C169.77 308.709 169.313 308.9 168.92 309.281C168.538 309.652 168.347 310.201 168.347 310.93Z" fill="white"/>
<rect x="55" y="386" width="156" height="32" rx="16" fill="#5822A7"/>
<path opacity="0.5" d="M109.692 400.062H110.942C110.783 398.912 109.768 398.102 108.453 398.102C106.916 398.102 105.732 399.21 105.732 401.097C105.732 402.938 106.839 404.08 108.479 404.08C109.947 404.08 110.996 403.151 110.996 401.619V400.886H108.561V401.812H109.811C109.794 402.534 109.303 402.991 108.484 402.991C107.561 402.991 106.979 402.301 106.979 401.085C106.979 399.875 107.584 399.19 108.473 399.19C109.107 399.19 109.536 399.517 109.692 400.062ZM111.92 404H115.852V402.986H113.15V401.597H115.638V400.582H113.15V399.196H115.84V398.182H111.92V404ZM116.597 399.196H118.378V404H119.594V399.196H121.375V398.182H116.597V399.196ZM127.17 399.855H128.349C128.332 398.818 127.479 398.102 126.184 398.102C124.908 398.102 123.974 398.807 123.979 399.864C123.977 400.722 124.582 401.213 125.565 401.449L126.198 401.608C126.832 401.761 127.184 401.943 127.187 402.335C127.184 402.761 126.781 403.051 126.156 403.051C125.516 403.051 125.056 402.756 125.016 402.173H123.826C123.857 403.432 124.758 404.082 126.17 404.082C127.59 404.082 128.425 403.403 128.428 402.338C128.425 401.369 127.695 400.855 126.684 400.628L126.161 400.503C125.656 400.386 125.232 400.199 125.241 399.781C125.241 399.406 125.573 399.131 126.175 399.131C126.763 399.131 127.124 399.398 127.17 399.855ZM129.034 399.196H130.815V404H132.031V399.196H133.812V398.182H129.034V399.196ZM134.884 404L135.315 402.673H137.415L137.847 404H139.165L137.159 398.182H135.574L133.565 404H134.884ZM135.628 401.713L136.344 399.511H136.389L137.105 401.713H135.628ZM139.865 404H141.095V401.938H141.993L143.095 404H144.453L143.217 401.739C143.879 401.455 144.246 400.878 144.246 400.082C144.246 398.926 143.482 398.182 142.161 398.182H139.865V404ZM141.095 400.949V399.188H141.925C142.635 399.188 142.979 399.503 142.979 400.082C142.979 400.659 142.635 400.949 141.93 400.949H141.095ZM144.893 399.196H146.675V404H147.891V399.196H149.672V398.182H144.893V399.196ZM150.459 404H154.391V402.986H151.689V401.597H154.178V400.582H151.689V399.196H154.379V398.182H150.459V404ZM157.42 404C159.192 404 160.266 402.903 160.266 401.085C160.266 399.273 159.192 398.182 157.437 398.182H155.357V404H157.42ZM156.587 402.946V399.236H157.371C158.462 399.236 159.039 399.793 159.039 401.085C159.039 402.384 158.462 402.946 157.369 402.946H156.587Z" fill="#DDC7FD"/>
<defs>
<filter id="filter0_f" x="21.2275" y="39.6285" width="226.964" height="302.13" filterUnits="userSpaceOnUse" color-interpolation-filters="sRGB">
<feFlood flood-opacity="0" result="BackgroundImageFix"/>
<feBlend mode="normal" in="SourceGraphic" in2="BackgroundImageFix" result="shape"/>
<feGaussianBlur stdDeviation="37.0959" result="effect1_foregroundBlur"/>
</filter>
<linearGradient id="paint0_linear" x1="127.174" y1="34" x2="127.174" y2="498.582" gradientUnits="userSpaceOnUse">
<stop stop-color="#4F1C9A" stop-opacity="0"/>
<stop offset="1" stop-color="#460D99"/>
</linearGradient>
<linearGradient id="paint1_linear" x1="128" y1="20.8154" x2="128" y2="514" gradientUnits="userSpaceOnUse">
<stop stop-color="#4F1C9A" stop-opacity="0"/>
<stop offset="1" stop-color="#460D99"/>
</linearGradient>
<linearGradient id="paint2_linear" x1="132.09" y1="225.755" x2="162.641" y2="292.34" gradientUnits="userSpaceOnUse">
<stop stop-color="#914AFB" stop-opacity="0"/>
<stop offset="1" stop-color="#4A05B1"/>
</linearGradient>
<linearGradient id="paint3_linear" x1="127.255" y1="171.882" x2="120.562" y2="186.359" gradientUnits="userSpaceOnUse">
<stop stop-color="#641AD2" stop-opacity="0"/>
<stop offset="1" stop-color="#641AD2"/>
</linearGradient>
<linearGradient id="paint4_linear" x1="5.63436" y1="5.95707" x2="6.44847" y2="15.8106" gradientUnits="userSpaceOnUse">
<stop stop-color="#641AD2" stop-opacity="0"/>
<stop offset="1" stop-color="#641AD2"/>
</linearGradient>
<linearGradient id="paint5_linear" x1="133.66" y1="118.63" x2="146.193" y2="169.353" gradientUnits="userSpaceOnUse">
<stop stop-color="#CFD4FF"/>
<stop offset="1" stop-color="#B482FE" stop-opacity="0"/>
</linearGradient>
<linearGradient id="paint6_linear" x1="167.21" y1="176.664" x2="156.276" y2="187.722" gradientUnits="userSpaceOnUse">
<stop stop-color="#B685FF" stop-opacity="0"/>
<stop offset="1" stop-color="#4023D2"/>
</linearGradient>
<linearGradient id="paint7_linear" x1="137.317" y1="200.424" x2="147.481" y2="195.451" gradientUnits="userSpaceOnUse">
<stop stop-color="#14A4BA" stop-opacity="0"/>
<stop offset="1" stop-color="#4C30DC"/>
</linearGradient>
<linearGradient id="paint8_linear" x1="132.09" y1="225.755" x2="162.641" y2="292.34" gradientUnits="userSpaceOnUse">
<stop stop-color="#914AFB" stop-opacity="0"/>
<stop offset="1" stop-color="#4A05B1"/>
</linearGradient>
<linearGradient id="paint9_linear" x1="127.255" y1="171.882" x2="120.562" y2="186.359" gradientUnits="userSpaceOnUse">
<stop stop-color="#641AD2" stop-opacity="0"/>
<stop offset="1" stop-color="#641AD2"/>
</linearGradient>
<linearGradient id="paint10_linear" x1="5.63436" y1="5.95707" x2="6.44847" y2="15.8106" gradientUnits="userSpaceOnUse">
<stop stop-color="#641AD2" stop-opacity="0"/>
<stop offset="1" stop-color="#641AD2"/>
</linearGradient>
<linearGradient id="paint11_linear" x1="133.66" y1="118.63" x2="146.193" y2="169.353" gradientUnits="userSpaceOnUse">
<stop stop-color="#CFD4FF"/>
<stop offset="1" stop-color="#B482FE" stop-opacity="0"/>
</linearGradient>
<linearGradient id="paint12_linear" x1="167.21" y1="176.664" x2="156.276" y2="187.722" gradientUnits="userSpaceOnUse">
<stop stop-color="#B685FF" stop-opacity="0"/>
<stop offset="1" stop-color="#4023D2"/>
</linearGradient>
<linearGradient id="paint13_linear" x1="137.317" y1="200.424" x2="147.481" y2="195.451" gradientUnits="userSpaceOnUse">
<stop stop-color="#14A4BA" stop-opacity="0"/>
<stop offset="1" stop-color="#4C30DC"/>
</linearGradient>
</defs>
</svg>
