<svg width="14" height="14" viewBox="0 0 14 14" fill="none" xmlns="http://www.w3.org/2000/svg">
<path d="M13 0C13.25 0 13.5 0.125 13.6875 0.3125C13.875 0.5 14 0.75 14 1V13C14 13.2812 13.875 13.5312 13.6875 13.7188C13.5 13.9062 13.25 14 13 14H1C0.71875 14 0.46875 13.9062 0.28125 13.7188C0.09375 13.5312 0 13.2812 0 13V1C0 0.75 0.09375 0.5 0.28125 0.3125C0.46875 0.125 0.71875 0 1 0H13ZM4.21875 12H4.25V5.3125H2.15625V12H4.21875ZM3.1875 4.40625C3.5 4.40625 3.78125 4.3125 4.03125 4.0625C4.28125 3.8125 4.40625 3.53125 4.40625 3.21875C4.40625 2.90625 4.28125 2.625 4.03125 2.375C3.78125 2.125 3.5 2 3.1875 2C2.84375 2 2.5625 2.125 2.34375 2.375C2.09375 2.625 2 2.90625 2 3.21875C2 3.53125 2.09375 3.8125 2.34375 4.0625C2.5625 4.3125 2.84375 4.40625 3.1875 4.40625ZM12 12V8.34375C12 7.3125 11.8438 6.5625 11.5625 6.0625C11.1562 5.46875 10.4688 5.15625 9.53125 5.15625C9.03125 5.15625 8.625 5.28125 8.25 5.5C7.9375 5.6875 7.6875 5.9375 7.5625 6.21875H7.53125V5.3125H5.53125V12H7.59375V8.6875C7.59375 8.1875 7.65625 7.78125 7.8125 7.5C8 7.15625 8.34375 6.96875 8.84375 6.96875C9.3125 6.96875 9.625 7.1875 9.78125 7.5625C9.875 7.8125 9.9375 8.21875 9.9375 8.75V12H12Z" fill="#DDC7FD"/>
</svg>
