<svg width="15" height="15" viewBox="0 0 15 15" fill="none" xmlns="http://www.w3.org/2000/svg">
<path d="M13.6875 0.886676L1.4375 7.94136C0.808598 8.29683 0.863285 9.22652 1.51954 9.49996L5.375 11.0859V13.875C5.375 14.7226 6.38672 15.0781 6.90625 14.4492L8.57422 12.4257L12.0195 13.8476C12.5391 14.0664 13.1406 13.7382 13.2227 13.164L14.9727 1.76168C15.082 1.05074 14.3164 0.503863 13.6875 0.886676ZM6.25 13.875V11.4687L7.72657 12.0703L6.25 13.875ZM12.375 13.0546L6.71485 10.7031L12.1836 4.2773C12.3203 4.11324 12.1016 3.89449 11.9375 4.03121L4.96485 9.99214L1.875 8.70699L14.125 1.62496L12.375 13.0546Z" fill="#EEECFF"/>
</svg>
