<svg width="256" height="98" viewBox="0 0 256 98" fill="none" xmlns="http://www.w3.org/2000/svg">
<path d="M48.2706 56.0185L48.2557 55.9867C47.9588 55.3386 38.5296 39.0989 36.9371 36.3572C36.8332 36.1783 36.5864 36.1782 36.4825 36.3571C34.8897 39.0988 25.4587 55.3386 25.1618 55.9867L25.1427 56.0185H25.147C24.4134 57.6253 24 59.4101 24 61.2924C24 68.3109 29.6903 74.0002 36.7098 74.0002C43.7294 74.0002 49.4196 68.3109 49.4196 61.2924C49.4175 59.4101 49.0062 57.6253 48.2706 56.0185ZM36.6801 68.2218C32.2131 68.2218 28.59 64.4784 28.59 59.8637C28.59 58.6258 28.8528 57.4515 29.3193 56.3937L29.3299 56.3725C29.5376 55.9062 36.6801 43.2026 36.6801 43.2026C36.6801 43.2026 43.8226 55.9062 44.0304 56.3725L44.041 56.3937C44.5096 57.4515 44.7703 58.6258 44.7703 59.8637C44.7703 64.4784 41.1492 68.2218 36.6801 68.2218Z" fill="#5A1EB4"/>
<path d="M48.2706 56.0185L48.2557 55.9867C47.9588 55.3386 38.5296 39.0989 36.9371 36.3572C36.8332 36.1783 36.5864 36.1782 36.4825 36.3571C34.8897 39.0988 25.4587 55.3386 25.1618 55.9867L25.1427 56.0185H25.147C24.4134 57.6253 24 59.4101 24 61.2924C24 68.3109 29.6903 74.0002 36.7098 74.0002C43.7294 74.0002 49.4196 68.3109 49.4196 61.2924C49.4175 59.4101 49.0062 57.6253 48.2706 56.0185ZM36.6801 68.2218C32.2131 68.2218 28.59 64.4784 28.59 59.8637C28.59 58.6258 28.8528 57.4515 29.3193 56.3937L29.3299 56.3725C29.5376 55.9062 36.6801 43.2026 36.6801 43.2026C36.6801 43.2026 43.8226 55.9062 44.0304 56.3725L44.041 56.3937C44.5096 57.4515 44.7703 58.6258 44.7703 59.8637C44.7703 64.4784 41.1492 68.2218 36.6801 68.2218Z" fill="url(#paint0_linear)"/>
<mask id="mask0" mask-type="alpha" maskUnits="userSpaceOnUse" x="24" y="36" width="26" height="39">
<path d="M48.2706 56.0185L48.2557 55.9867C47.9588 55.3386 38.5296 39.0989 36.9371 36.3572C36.8332 36.1783 36.5864 36.1782 36.4825 36.3571C34.8897 39.0988 25.4587 55.3386 25.1618 55.9867L25.1427 56.0185H25.147C24.4134 57.6253 24 59.4101 24 61.2924C24 68.3109 29.6903 74.0002 36.7098 74.0002C43.7294 74.0002 49.4196 68.3109 49.4196 61.2924C49.4175 59.4101 49.0062 57.6253 48.2706 56.0185ZM36.6801 68.2218C32.2131 68.2218 28.59 64.4784 28.59 59.8637C28.59 58.6258 28.8528 57.4515 29.3193 56.3937L29.3299 56.3725C29.5376 55.9062 36.6801 43.2026 36.6801 43.2026C36.6801 43.2026 43.8226 55.9062 44.0304 56.3725L44.041 56.3937C44.5096 57.4515 44.7703 58.6258 44.7703 59.8637C44.7703 64.4784 41.1492 68.2218 36.6801 68.2218Z" fill="white"/>
</mask>
<g mask="url(#mask0)">
<path d="M48.0576 51.1652L48.0428 51.1335C47.7458 50.4853 38.3167 34.2456 36.7242 31.5039C36.6203 31.325 36.3734 31.325 36.2695 31.5039C34.6767 34.2456 25.2458 50.4853 24.9488 51.1335L24.9298 51.1652H24.934C24.2005 52.772 23.787 54.5568 23.787 56.4392C23.787 63.4576 29.4773 69.147 36.4969 69.147C43.5164 69.147 49.2067 63.4576 49.2067 56.4392C49.2046 54.5568 48.7933 52.772 48.0576 51.1652ZM36.4672 63.3686C32.0002 63.3686 28.377 59.6251 28.377 55.0104C28.377 53.7725 28.6399 52.5982 29.1063 51.5404L29.1169 51.5192C29.3247 51.0529 36.4672 38.3493 36.4672 38.3493C36.4672 38.3493 43.6097 51.0529 43.8175 51.5192L43.8281 51.5404C44.2966 52.5982 44.5574 53.7725 44.5574 55.0104C44.5574 59.6251 40.9363 63.3686 36.4672 63.3686Z" fill="#7730E1"/>
</g>
<mask id="mask1" mask-type="alpha" maskUnits="userSpaceOnUse" x="24" y="36" width="26" height="39">
<path d="M48.2706 56.0185L48.2557 55.9867C47.9588 55.3386 38.5296 39.0989 36.9371 36.3572C36.8332 36.1783 36.5864 36.1782 36.4825 36.3571C34.8897 39.0988 25.4587 55.3386 25.1618 55.9867L25.1427 56.0185H25.147C24.4134 57.6253 24 59.4101 24 61.2924C24 68.3109 29.6903 74.0002 36.7098 74.0002C43.7294 74.0002 49.4196 68.3109 49.4196 61.2924C49.4175 59.4101 49.0062 57.6253 48.2706 56.0185ZM36.6801 68.2218C32.2131 68.2218 28.59 64.4784 28.59 59.8637C28.59 58.6258 28.8528 57.4515 29.3193 56.3937L29.3299 56.3725C29.5376 55.9062 36.6801 43.2026 36.6801 43.2026C36.6801 43.2026 43.8226 55.9062 44.0304 56.3725L44.041 56.3937C44.5096 57.4515 44.7703 58.6258 44.7703 59.8637C44.7703 64.4784 41.1492 68.2218 36.6801 68.2218Z" fill="#914AFB"/>
</mask>
<g mask="url(#mask1)">
<path d="M33.1915 40.9705L36.7094 42.7965L33.2946 49.3753L30.3981 46.8542L33.1915 40.9705Z" fill="url(#paint1_linear)"/>
<rect width="3.96365" height="5.83989" transform="matrix(0.866025 0.5 0.5 -0.866025 25.5524 54.9841)" fill="url(#paint2_linear)"/>
</g>
<path d="M46.0837 40.2543L46.0717 40.2286C45.8338 39.7093 38.3647 26.8454 36.944 24.3995C36.8401 24.2206 36.5837 24.2206 36.4798 24.3995C35.0588 26.8453 27.5883 39.7093 27.3504 40.2286L27.3349 40.2543H27.3384C26.7437 41.5567 26.4086 43.0035 26.4086 44.5292C26.4086 50.2183 31.0214 54.83 36.7119 54.83C42.4024 54.83 47.0152 50.2183 47.0152 44.5292C47.0135 43.0035 46.6801 41.5567 46.0837 40.2543ZM36.6878 50.1461C33.0666 50.1461 30.1295 47.1117 30.1295 43.3712C30.1295 42.3677 30.3426 41.4158 30.7207 40.5585L30.7293 40.5413C30.8917 40.1768 36.2817 30.5884 36.6662 29.9044C36.6765 29.8861 36.6991 29.8861 36.7094 29.9044C37.094 30.5884 42.484 40.1768 42.6464 40.5413L42.655 40.5585C43.0348 41.4158 43.2462 42.3677 43.2462 43.3712C43.2462 47.1117 40.3108 50.1461 36.6878 50.1461Z" fill="#7B64F7"/>
<mask id="mask2" mask-type="alpha" maskUnits="userSpaceOnUse" x="26" y="24" width="22" height="31">
<path d="M46.0837 40.2543L46.0717 40.2286C45.8338 39.7093 38.3647 26.8454 36.944 24.3995C36.8401 24.2206 36.5837 24.2206 36.4798 24.3995C35.0588 26.8453 27.5883 39.7093 27.3504 40.2286L27.3349 40.2543H27.3384C26.7437 41.5567 26.4086 43.0035 26.4086 44.5292C26.4086 50.2183 31.0214 54.83 36.7119 54.83C42.4024 54.83 47.0152 50.2183 47.0152 44.5292C47.0135 43.0035 46.6801 41.5567 46.0837 40.2543ZM36.6878 50.1461C33.0666 50.1461 30.1295 47.1117 30.1295 43.3712C30.1295 42.3677 30.3426 41.4158 30.7207 40.5585L30.7293 40.5413C30.8917 40.1768 36.2817 30.5884 36.6662 29.9044C36.6765 29.8861 36.6991 29.8861 36.7094 29.9044C37.094 30.5884 42.484 40.1768 42.6464 40.5413L42.655 40.5585C43.0348 41.4158 43.2462 42.3677 43.2462 43.3712C43.2462 47.1117 40.3108 50.1461 36.6878 50.1461Z" fill="#927EFC"/>
</mask>
<g mask="url(#mask2)">
<path d="M46.0841 37.0695L46.0721 37.0437C45.8342 36.5245 38.3651 23.6606 36.9444 21.2147C36.8405 21.0358 36.5841 21.0358 36.4801 21.2147C35.0592 23.6605 27.5887 36.5245 27.3508 37.0437L27.3353 37.0695H27.3387C26.7441 38.3719 26.4089 39.8187 26.4089 41.3444C26.4089 47.0334 31.0218 51.6451 36.7123 51.6451C42.4027 51.6451 47.0156 47.0334 47.0156 41.3444C47.0139 39.8187 46.6805 38.3719 46.0841 37.0695ZM36.6882 46.9613C33.067 46.9613 30.1298 43.9269 30.1298 40.1864C30.1298 39.1829 30.3429 38.231 30.721 37.3736L30.7296 37.3565C30.892 36.9919 36.2821 27.4036 36.6666 26.7196C36.6769 26.7013 36.6995 26.7013 36.7098 26.7196C37.0944 27.4036 42.4844 36.9919 42.6468 37.3565L42.6554 37.3736C43.0352 38.231 43.2466 39.1829 43.2466 40.1864C43.2466 43.9269 40.3111 46.9613 36.6882 46.9613Z" fill="#927EFC"/>
</g>
<path d="M46.0837 40.2543L46.0717 40.2286C45.8338 39.7093 38.3647 26.8454 36.944 24.3995C36.8401 24.2206 36.5837 24.2206 36.4798 24.3995C35.0588 26.8453 27.5883 39.7093 27.3504 40.2286L27.3349 40.2543H27.3384C26.7437 41.5567 26.4086 43.0035 26.4086 44.5292C26.4086 50.2183 31.0214 54.83 36.7119 54.83C42.4024 54.83 47.0152 50.2183 47.0152 44.5292C47.0135 43.0035 46.6801 41.5567 46.0837 40.2543ZM36.6878 50.1461C33.0666 50.1461 30.1295 47.1117 30.1295 43.3712C30.1295 42.3677 30.3426 41.4158 30.7207 40.5585L30.7293 40.5413C30.8917 40.1768 36.2817 30.5884 36.6662 29.9044C36.6765 29.8861 36.6991 29.8861 36.7094 29.9044C37.094 30.5884 42.484 40.1768 42.6464 40.5413L42.655 40.5585C43.0348 41.4158 43.2462 42.3677 43.2462 43.3712C43.2462 47.1117 40.3108 50.1461 36.6878 50.1461Z" fill="url(#paint3_linear)"/>
<mask id="mask3" mask-type="alpha" maskUnits="userSpaceOnUse" x="26" y="24" width="22" height="31">
<path d="M46.0837 40.2543L46.0717 40.2286C45.8338 39.7093 38.3647 26.8454 36.944 24.3995C36.8401 24.2206 36.5837 24.2206 36.4798 24.3995C35.0588 26.8453 27.5883 39.7093 27.3504 40.2286L27.3349 40.2543H27.3384C26.7437 41.5567 26.4086 43.0035 26.4086 44.5292C26.4086 50.2183 31.0214 54.83 36.7119 54.83C42.4024 54.83 47.0152 50.2183 47.0152 44.5292C47.0135 43.0035 46.6801 41.5567 46.0837 40.2543ZM36.6878 50.1461C33.0666 50.1461 30.1295 47.1117 30.1295 43.3712C30.1295 42.3677 30.3426 41.4158 30.7207 40.5585L30.7293 40.5413C30.8917 40.1768 36.2817 30.5884 36.6662 29.9044C36.6765 29.8861 36.6991 29.8861 36.7094 29.9044C37.094 30.5884 42.484 40.1768 42.6464 40.5413L42.655 40.5585C43.0348 41.4158 43.2462 42.3677 43.2462 43.3712C43.2462 47.1117 40.3108 50.1461 36.6878 50.1461Z" fill="#914AFB"/>
</mask>
<g mask="url(#mask3)">
<path d="M43.4351 40.8196L50.3191 47.6226L45.1139 50.4965L42.6471 46.1966L43.4351 40.8196Z" fill="url(#paint4_linear)"/>
<path d="M34.1045 48.5873L37.1049 56.1456L42.5034 53.5903L40.0447 49.1941L34.1045 48.5873Z" fill="url(#paint5_linear)"/>
</g>
<mask id="mask4" mask-type="alpha" maskUnits="userSpaceOnUse" x="38" y="45" width="9" height="10">
<rect x="38.0668" y="45.3904" width="8.5987" height="9.44796" fill="#C4C4C4"/>
</mask>
<g mask="url(#mask4)">
<path fill-rule="evenodd" clip-rule="evenodd" d="M45.1233 50.4842C44.3535 49.1492 43.5042 47.6798 42.6503 46.2041C42.0936 47.4515 41.1807 48.4944 40.0462 49.1936C40.8198 50.5742 41.6121 51.9903 42.2848 53.1967C43.3956 52.4819 44.3601 51.5594 45.1233 50.4842ZM31.0989 53.1665C31.7692 51.9645 32.5564 50.5576 33.3248 49.1862C32.2084 48.4948 31.3074 47.4701 30.7509 46.2454C29.9058 47.7056 29.066 49.1584 28.3039 50.4797C29.057 51.5417 30.0062 52.4549 31.0989 53.1665Z" fill="#7D35E8"/>
</g>
<mask id="mask5" mask-type="alpha" maskUnits="userSpaceOnUse" x="28" y="46" width="18" height="8">
<path fill-rule="evenodd" clip-rule="evenodd" d="M45.1229 50.4842C44.3531 49.1492 43.5038 47.6798 42.6498 46.2041C42.0932 47.4515 41.1803 48.4944 40.0458 49.1936C40.8194 50.5742 41.6117 51.9903 42.2844 53.1967C43.3952 52.4819 44.3596 51.5594 45.1229 50.4842ZM31.0985 53.1665C31.7688 51.9645 32.556 50.5576 33.3244 49.1862C32.208 48.4948 31.307 47.4701 30.7505 46.2454C29.9054 47.7056 29.0656 49.1584 28.3035 50.4797C29.0565 51.5417 30.0058 52.4549 31.0985 53.1665Z" fill="#7D35E8"/>
</mask>
<g mask="url(#mask5)">
<path d="M45.246 53.7126H45.0995C45.042 53.5869 44.5722 52.927 43.9584 51.8393C43.3478 50.7573 42.5956 49.2514 41.676 47.6369C38.758 42.5137 34.8898 35.7618 33.9155 34.0616C33.8122 33.8815 33.5604 33.8746 33.4562 34.0541C31.8584 36.8044 22.434 53.0329 22.1372 53.6808L22.1181 53.7126H22.1224C21.3888 55.3194 20.9754 57.1042 20.9754 58.9865C20.9754 66.005 26.6657 71.6943 33.6852 71.6943C40.7048 71.6943 46.395 66.005 46.395 58.9865C46.3929 57.1042 45.9816 55.3194 45.246 53.7126ZM33.6555 65.9159C29.1886 65.9159 25.5654 62.1725 25.5654 57.5578C25.5654 56.3199 25.8282 55.1456 26.2947 54.0878L26.3053 54.0666C26.513 53.6003 33.6555 40.8967 33.6555 40.8967C33.6555 40.8967 40.7981 53.6003 41.0058 54.0666L41.0164 54.0878C41.485 55.1456 41.7457 56.3199 41.7457 57.5578C41.7457 62.1725 38.1246 65.9159 33.6555 65.9159Z" fill="#5A1EB4"/>
</g>
<g filter="url(#filter0_f)">
<path d="M48.2706 56.0185L48.2557 55.9867C47.9588 55.3386 38.5296 39.0989 36.9371 36.3572C36.8332 36.1783 36.5864 36.1782 36.4825 36.3571C34.8897 39.0988 25.4587 55.3386 25.1618 55.9867L25.1427 56.0185H25.147C24.4134 57.6253 24 59.4101 24 61.2924C24 68.3109 29.6903 74.0002 36.7098 74.0002C43.7294 74.0002 49.4196 68.3109 49.4196 61.2924C49.4175 59.4101 49.0062 57.6253 48.2706 56.0185ZM36.6801 68.2218C32.2131 68.2218 28.59 64.4784 28.59 59.8637C28.59 58.6258 28.8528 57.4515 29.3193 56.3937L29.3299 56.3725C29.5376 55.9062 36.6801 43.2026 36.6801 43.2026C36.6801 43.2026 43.8226 55.9062 44.0304 56.3725L44.041 56.3937C44.5096 57.4515 44.7703 58.6258 44.7703 59.8637C44.7703 64.4784 41.1492 68.2218 36.6801 68.2218Z" fill="#5A1EB4"/>
<path d="M48.2706 56.0185L48.2557 55.9867C47.9588 55.3386 38.5296 39.0989 36.9371 36.3572C36.8332 36.1783 36.5864 36.1782 36.4825 36.3571C34.8897 39.0988 25.4587 55.3386 25.1618 55.9867L25.1427 56.0185H25.147C24.4134 57.6253 24 59.4101 24 61.2924C24 68.3109 29.6903 74.0002 36.7098 74.0002C43.7294 74.0002 49.4196 68.3109 49.4196 61.2924C49.4175 59.4101 49.0062 57.6253 48.2706 56.0185ZM36.6801 68.2218C32.2131 68.2218 28.59 64.4784 28.59 59.8637C28.59 58.6258 28.8528 57.4515 29.3193 56.3937L29.3299 56.3725C29.5376 55.9062 36.6801 43.2026 36.6801 43.2026C36.6801 43.2026 43.8226 55.9062 44.0304 56.3725L44.041 56.3937C44.5096 57.4515 44.7703 58.6258 44.7703 59.8637C44.7703 64.4784 41.1492 68.2218 36.6801 68.2218Z" fill="url(#paint6_linear)"/>
<mask id="mask6" mask-type="alpha" maskUnits="userSpaceOnUse" x="24" y="36" width="26" height="39">
<path d="M48.2706 56.0185L48.2557 55.9867C47.9588 55.3386 38.5296 39.0989 36.9371 36.3572C36.8332 36.1783 36.5864 36.1782 36.4825 36.3571C34.8897 39.0988 25.4587 55.3386 25.1618 55.9867L25.1427 56.0185H25.147C24.4134 57.6253 24 59.4101 24 61.2924C24 68.3109 29.6903 74.0002 36.7098 74.0002C43.7294 74.0002 49.4196 68.3109 49.4196 61.2924C49.4175 59.4101 49.0062 57.6253 48.2706 56.0185ZM36.6801 68.2218C32.2131 68.2218 28.59 64.4784 28.59 59.8637C28.59 58.6258 28.8528 57.4515 29.3193 56.3937L29.3299 56.3725C29.5376 55.9062 36.6801 43.2026 36.6801 43.2026C36.6801 43.2026 43.8226 55.9062 44.0304 56.3725L44.041 56.3937C44.5096 57.4515 44.7703 58.6258 44.7703 59.8637C44.7703 64.4784 41.1492 68.2218 36.6801 68.2218Z" fill="white"/>
</mask>
<g mask="url(#mask6)">
<path d="M48.0576 51.1652L48.0428 51.1335C47.7458 50.4853 38.3167 34.2456 36.7242 31.5039C36.6203 31.325 36.3734 31.325 36.2695 31.5039C34.6767 34.2456 25.2458 50.4853 24.9488 51.1335L24.9298 51.1652H24.934C24.2005 52.772 23.787 54.5568 23.787 56.4392C23.787 63.4576 29.4773 69.147 36.4969 69.147C43.5164 69.147 49.2067 63.4576 49.2067 56.4392C49.2046 54.5568 48.7933 52.772 48.0576 51.1652ZM36.4672 63.3686C32.0002 63.3686 28.377 59.6251 28.377 55.0104C28.377 53.7725 28.6399 52.5982 29.1063 51.5404L29.1169 51.5192C29.3247 51.0529 36.4672 38.3493 36.4672 38.3493C36.4672 38.3493 43.6097 51.0529 43.8175 51.5192L43.8281 51.5404C44.2966 52.5982 44.5574 53.7725 44.5574 55.0104C44.5574 59.6251 40.9363 63.3686 36.4672 63.3686Z" fill="#7730E1"/>
</g>
<mask id="mask7" mask-type="alpha" maskUnits="userSpaceOnUse" x="24" y="36" width="26" height="39">
<path d="M48.2706 56.0185L48.2557 55.9867C47.9588 55.3386 38.5296 39.0989 36.9371 36.3572C36.8332 36.1783 36.5864 36.1782 36.4825 36.3571C34.8897 39.0988 25.4587 55.3386 25.1618 55.9867L25.1427 56.0185H25.147C24.4134 57.6253 24 59.4101 24 61.2924C24 68.3109 29.6903 74.0002 36.7098 74.0002C43.7294 74.0002 49.4196 68.3109 49.4196 61.2924C49.4175 59.4101 49.0062 57.6253 48.2706 56.0185ZM36.6801 68.2218C32.2131 68.2218 28.59 64.4784 28.59 59.8637C28.59 58.6258 28.8528 57.4515 29.3193 56.3937L29.3299 56.3725C29.5376 55.9062 36.6801 43.2026 36.6801 43.2026C36.6801 43.2026 43.8226 55.9062 44.0304 56.3725L44.041 56.3937C44.5096 57.4515 44.7703 58.6258 44.7703 59.8637C44.7703 64.4784 41.1492 68.2218 36.6801 68.2218Z" fill="#914AFB"/>
</mask>
<g mask="url(#mask7)">
<path d="M33.1915 40.9705L36.7094 42.7965L33.2946 49.3753L30.3981 46.8542L33.1915 40.9705Z" fill="url(#paint7_linear)"/>
<rect width="3.96365" height="5.83989" transform="matrix(0.866025 0.5 0.5 -0.866025 25.5524 54.9841)" fill="url(#paint8_linear)"/>
</g>
<path d="M46.0837 40.2543L46.0717 40.2286C45.8338 39.7093 38.3647 26.8454 36.944 24.3995C36.8401 24.2206 36.5837 24.2206 36.4798 24.3995C35.0588 26.8453 27.5883 39.7093 27.3504 40.2286L27.3349 40.2543H27.3384C26.7437 41.5567 26.4086 43.0035 26.4086 44.5292C26.4086 50.2183 31.0214 54.83 36.7119 54.83C42.4024 54.83 47.0152 50.2183 47.0152 44.5292C47.0135 43.0035 46.6801 41.5567 46.0837 40.2543ZM36.6878 50.1461C33.0666 50.1461 30.1295 47.1117 30.1295 43.3712C30.1295 42.3677 30.3426 41.4158 30.7207 40.5585L30.7293 40.5413C30.8917 40.1768 36.2817 30.5884 36.6662 29.9044C36.6765 29.8861 36.6991 29.8861 36.7094 29.9044C37.094 30.5884 42.484 40.1768 42.6464 40.5413L42.655 40.5585C43.0348 41.4158 43.2462 42.3677 43.2462 43.3712C43.2462 47.1117 40.3108 50.1461 36.6878 50.1461Z" fill="#7B64F7"/>
<mask id="mask8" mask-type="alpha" maskUnits="userSpaceOnUse" x="26" y="24" width="22" height="31">
<path d="M46.0837 40.2543L46.0717 40.2286C45.8338 39.7093 38.3647 26.8454 36.944 24.3995C36.8401 24.2206 36.5837 24.2206 36.4798 24.3995C35.0588 26.8453 27.5883 39.7093 27.3504 40.2286L27.3349 40.2543H27.3384C26.7437 41.5567 26.4086 43.0035 26.4086 44.5292C26.4086 50.2183 31.0214 54.83 36.7119 54.83C42.4024 54.83 47.0152 50.2183 47.0152 44.5292C47.0135 43.0035 46.6801 41.5567 46.0837 40.2543ZM36.6878 50.1461C33.0666 50.1461 30.1295 47.1117 30.1295 43.3712C30.1295 42.3677 30.3426 41.4158 30.7207 40.5585L30.7293 40.5413C30.8917 40.1768 36.2817 30.5884 36.6662 29.9044C36.6765 29.8861 36.6991 29.8861 36.7094 29.9044C37.094 30.5884 42.484 40.1768 42.6464 40.5413L42.655 40.5585C43.0348 41.4158 43.2462 42.3677 43.2462 43.3712C43.2462 47.1117 40.3108 50.1461 36.6878 50.1461Z" fill="#927EFC"/>
</mask>
<g mask="url(#mask8)">
<path d="M46.0841 37.0695L46.0721 37.0437C45.8342 36.5245 38.3651 23.6606 36.9444 21.2147C36.8405 21.0358 36.5841 21.0358 36.4801 21.2147C35.0592 23.6605 27.5887 36.5245 27.3508 37.0437L27.3353 37.0695H27.3387C26.7441 38.3719 26.4089 39.8187 26.4089 41.3444C26.4089 47.0334 31.0218 51.6451 36.7123 51.6451C42.4027 51.6451 47.0156 47.0334 47.0156 41.3444C47.0139 39.8187 46.6805 38.3719 46.0841 37.0695ZM36.6882 46.9613C33.067 46.9613 30.1298 43.9269 30.1298 40.1864C30.1298 39.1829 30.3429 38.231 30.721 37.3736L30.7296 37.3565C30.892 36.9919 36.2821 27.4036 36.6666 26.7196C36.6769 26.7013 36.6995 26.7013 36.7098 26.7196C37.0944 27.4036 42.4844 36.9919 42.6468 37.3565L42.6554 37.3736C43.0352 38.231 43.2466 39.1829 43.2466 40.1864C43.2466 43.9269 40.3111 46.9613 36.6882 46.9613Z" fill="#927EFC"/>
</g>
<path d="M46.0837 40.2543L46.0717 40.2286C45.8338 39.7093 38.3647 26.8454 36.944 24.3995C36.8401 24.2206 36.5837 24.2206 36.4798 24.3995C35.0588 26.8453 27.5883 39.7093 27.3504 40.2286L27.3349 40.2543H27.3384C26.7437 41.5567 26.4086 43.0035 26.4086 44.5292C26.4086 50.2183 31.0214 54.83 36.7119 54.83C42.4024 54.83 47.0152 50.2183 47.0152 44.5292C47.0135 43.0035 46.6801 41.5567 46.0837 40.2543ZM36.6878 50.1461C33.0666 50.1461 30.1295 47.1117 30.1295 43.3712C30.1295 42.3677 30.3426 41.4158 30.7207 40.5585L30.7293 40.5413C30.8917 40.1768 36.2817 30.5884 36.6662 29.9044C36.6765 29.8861 36.6991 29.8861 36.7094 29.9044C37.094 30.5884 42.484 40.1768 42.6464 40.5413L42.655 40.5585C43.0348 41.4158 43.2462 42.3677 43.2462 43.3712C43.2462 47.1117 40.3108 50.1461 36.6878 50.1461Z" fill="url(#paint9_linear)"/>
<mask id="mask9" mask-type="alpha" maskUnits="userSpaceOnUse" x="26" y="24" width="22" height="31">
<path d="M46.0837 40.2543L46.0717 40.2286C45.8338 39.7093 38.3647 26.8454 36.944 24.3995C36.8401 24.2206 36.5837 24.2206 36.4798 24.3995C35.0588 26.8453 27.5883 39.7093 27.3504 40.2286L27.3349 40.2543H27.3384C26.7437 41.5567 26.4086 43.0035 26.4086 44.5292C26.4086 50.2183 31.0214 54.83 36.7119 54.83C42.4024 54.83 47.0152 50.2183 47.0152 44.5292C47.0135 43.0035 46.6801 41.5567 46.0837 40.2543ZM36.6878 50.1461C33.0666 50.1461 30.1295 47.1117 30.1295 43.3712C30.1295 42.3677 30.3426 41.4158 30.7207 40.5585L30.7293 40.5413C30.8917 40.1768 36.2817 30.5884 36.6662 29.9044C36.6765 29.8861 36.6991 29.8861 36.7094 29.9044C37.094 30.5884 42.484 40.1768 42.6464 40.5413L42.655 40.5585C43.0348 41.4158 43.2462 42.3677 43.2462 43.3712C43.2462 47.1117 40.3108 50.1461 36.6878 50.1461Z" fill="#914AFB"/>
</mask>
<g mask="url(#mask9)">
<path d="M43.4351 40.8196L50.3191 47.6226L45.1139 50.4965L42.6471 46.1966L43.4351 40.8196Z" fill="url(#paint10_linear)"/>
<path d="M34.1045 48.5873L37.1049 56.1456L42.5034 53.5903L40.0447 49.1941L34.1045 48.5873Z" fill="url(#paint11_linear)"/>
</g>
<mask id="mask10" mask-type="alpha" maskUnits="userSpaceOnUse" x="38" y="45" width="9" height="10">
<rect x="38.0668" y="45.3904" width="8.5987" height="9.44796" fill="#C4C4C4"/>
</mask>
<g mask="url(#mask10)">
<path fill-rule="evenodd" clip-rule="evenodd" d="M45.1233 50.4842C44.3535 49.1492 43.5042 47.6798 42.6503 46.2041C42.0936 47.4515 41.1807 48.4944 40.0462 49.1936C40.8198 50.5742 41.6121 51.9903 42.2848 53.1967C43.3956 52.4819 44.3601 51.5594 45.1233 50.4842ZM31.0989 53.1665C31.7692 51.9645 32.5564 50.5576 33.3248 49.1862C32.2084 48.4948 31.3074 47.4701 30.7509 46.2454C29.9058 47.7056 29.066 49.1584 28.3039 50.4797C29.057 51.5417 30.0062 52.4549 31.0989 53.1665Z" fill="#7D35E8"/>
</g>
<mask id="mask11" mask-type="alpha" maskUnits="userSpaceOnUse" x="28" y="46" width="18" height="8">
<path fill-rule="evenodd" clip-rule="evenodd" d="M45.1229 50.4842C44.3531 49.1492 43.5038 47.6798 42.6498 46.2041C42.0932 47.4515 41.1803 48.4944 40.0458 49.1936C40.8194 50.5742 41.6117 51.9903 42.2844 53.1967C43.3952 52.4819 44.3596 51.5594 45.1229 50.4842ZM31.0985 53.1665C31.7688 51.9645 32.556 50.5576 33.3244 49.1862C32.208 48.4948 31.307 47.4701 30.7505 46.2454C29.9054 47.7056 29.0656 49.1584 28.3035 50.4797C29.0565 51.5417 30.0058 52.4549 31.0985 53.1665Z" fill="#7D35E8"/>
</mask>
<g mask="url(#mask11)">
<path d="M45.246 53.7126H45.0995C45.042 53.5869 44.5722 52.927 43.9584 51.8393C43.3478 50.7573 42.5956 49.2514 41.676 47.6369C38.758 42.5137 34.8898 35.7618 33.9155 34.0616C33.8122 33.8815 33.5604 33.8746 33.4562 34.0541C31.8584 36.8044 22.434 53.0329 22.1372 53.6808L22.1181 53.7126H22.1224C21.3888 55.3194 20.9754 57.1042 20.9754 58.9865C20.9754 66.005 26.6657 71.6943 33.6852 71.6943C40.7048 71.6943 46.395 66.005 46.395 58.9865C46.3929 57.1042 45.9816 55.3194 45.246 53.7126ZM33.6555 65.9159C29.1886 65.9159 25.5654 62.1725 25.5654 57.5578C25.5654 56.3199 25.8282 55.1456 26.2947 54.0878L26.3053 54.0666C26.513 53.6003 33.6555 40.8967 33.6555 40.8967C33.6555 40.8967 40.7981 53.6003 41.0058 54.0666L41.0164 54.0878C41.485 55.1456 41.7457 56.3199 41.7457 57.5578C41.7457 62.1725 38.1246 65.9159 33.6555 65.9159Z" fill="#5A1EB4"/>
</g>
</g>
<path d="M71.7607 62.8139V37.8815H77.3251V57.856H87.9543V62.8139H71.7607Z" fill="white"/>
<path d="M95.0652 62.8139H89.7149V43.6242H95.0652V62.8139ZM90.1429 41.1987C89.5485 40.5805 89.2512 39.8314 89.2512 38.9516C89.2512 38.0718 89.5485 37.3346 90.1429 36.7401C90.7612 36.1219 91.5102 35.8127 92.3901 35.8127C93.2699 35.8127 94.007 36.1219 94.6015 36.7401C95.2198 37.3346 95.5289 38.0718 95.5289 38.9516C95.5289 39.8314 95.2198 40.5805 94.6015 41.1987C94.007 41.7932 93.2699 42.0904 92.3901 42.0904C91.5102 42.0904 90.7612 41.7932 90.1429 41.1987Z" fill="white"/>
<path d="M106.443 63.0993C103.994 63.0993 101.854 62.1838 100.023 60.3528C98.1919 58.498 97.2764 56.132 97.2764 53.2547C97.2764 50.3537 98.1681 47.9758 99.9515 46.121C101.735 44.2424 103.721 43.3032 105.908 43.3032C108.096 43.3032 110.01 44.1235 111.651 45.7643V43.6242H117.037V69.7337H111.651V61.2802C110.129 62.4929 108.393 63.0993 106.443 63.0993ZM102.662 53.2547C102.662 54.8004 103.126 56.0726 104.053 57.0713C104.981 58.0462 106.063 58.5337 107.299 58.5337C108.536 58.5337 109.582 58.0462 110.438 57.0713C111.294 56.0726 111.722 54.8004 111.722 53.2547C111.722 51.6853 111.294 50.3893 110.438 49.3668C109.582 48.3206 108.524 47.7974 107.264 47.7974C106.003 47.7974 104.921 48.3206 104.018 49.3668C103.114 50.3893 102.662 51.6853 102.662 53.2547Z" fill="white"/>
<path d="M132.696 53.9681V43.6242H138.082V62.8139H132.696V60.2815C131.364 62.16 129.64 63.0993 127.524 63.0993C125.431 63.0993 123.672 62.4454 122.245 61.1375C120.818 59.8059 120.105 57.8441 120.105 55.2522V43.6242H125.491V54.0751C125.491 57.0237 126.573 58.498 128.737 58.498C129.807 58.498 130.734 58.1176 131.519 57.3566C132.304 56.5719 132.696 55.4424 132.696 53.9681Z" fill="white"/>
<path d="M146.701 62.8139H141.351V43.6242H146.701V62.8139ZM141.779 41.1987C141.184 40.5805 140.887 39.8314 140.887 38.9516C140.887 38.0718 141.184 37.3346 141.779 36.7401C142.397 36.1219 143.146 35.8127 144.026 35.8127C144.906 35.8127 145.643 36.1219 146.238 36.7401C146.856 37.3346 147.165 38.0718 147.165 38.9516C147.165 39.8314 146.856 40.5805 146.238 41.1987C145.643 41.7932 144.906 42.0904 144.026 42.0904C143.146 42.0904 142.397 41.7932 141.779 41.1987Z" fill="white"/>
<path d="M161.967 57.8917C164.702 57.8917 166.937 56.8097 168.673 54.6458L172.24 58.3197C169.41 61.5061 166.069 63.0993 162.217 63.0993C158.388 63.0993 155.226 61.8866 152.729 59.4611C150.256 57.0356 149.019 53.98 149.019 50.2942C149.019 46.5847 150.28 43.4934 152.8 41.0204C155.345 38.5473 158.448 37.3108 162.11 37.3108C166.2 37.3108 169.624 38.8684 172.382 41.9834L168.923 45.907C167.163 43.7193 164.975 42.6255 162.359 42.6255C160.267 42.6255 158.472 43.3151 156.974 44.6942C155.499 46.0497 154.762 47.8925 154.762 50.2229C154.762 52.5295 155.464 54.3842 156.867 55.7872C158.269 57.1902 159.97 57.8917 161.967 57.8917Z" fill="white"/>
<path d="M179.674 52.47V62.8139H174.324V36.3478H179.674V45.7643C181.291 44.1235 183.098 43.3032 185.096 43.3032C187.117 43.3032 188.817 44.0165 190.196 45.4433C191.575 46.87 192.265 48.7724 192.265 51.1503V62.8139H186.915V52.3273C186.915 49.3787 185.833 47.9044 183.669 47.9044C182.599 47.9044 181.659 48.2968 180.851 49.0815C180.066 49.8424 179.674 50.9719 179.674 52.47Z" fill="white"/>
<path d="M211.621 62.8139H206.592V60.4955C205.213 62.2314 203.501 63.0993 201.456 63.0993C199.434 63.0993 197.734 62.5167 196.355 61.3515C194.976 60.1626 194.286 58.5931 194.286 56.6433C194.286 54.6696 195 53.1953 196.426 52.2203C197.853 51.2454 199.803 50.7579 202.276 50.7579H206.271V50.6509C206.271 48.6059 205.189 47.5834 203.025 47.5834C202.098 47.5834 201.111 47.7736 200.065 48.1541C199.042 48.5108 198.174 48.9626 197.461 49.5095L195.071 46.0497C197.592 44.2187 200.469 43.3032 203.703 43.3032C206.033 43.3032 207.936 43.8858 209.41 45.0509C210.884 46.2161 211.621 48.059 211.621 50.5796V62.8139ZM206.235 55.5019V54.5745H202.882C200.742 54.5745 199.672 55.2403 199.672 56.5719C199.672 57.2615 199.922 57.7965 200.421 58.177C200.944 58.5337 201.682 58.712 202.633 58.712C203.584 58.712 204.416 58.4267 205.13 57.856C205.867 57.2615 206.235 56.4768 206.235 55.5019Z" fill="white"/>
<path d="M220.066 62.8139H214.716V43.6242H220.066V62.8139ZM215.144 41.1987C214.549 40.5805 214.252 39.8314 214.252 38.9516C214.252 38.0718 214.549 37.3346 215.144 36.7401C215.762 36.1219 216.511 35.8127 217.391 35.8127C218.271 35.8127 219.008 36.1219 219.602 36.7401C220.22 37.3346 220.53 38.0718 220.53 38.9516C220.53 39.8314 220.22 40.5805 219.602 41.1987C219.008 41.7932 218.271 42.0904 217.391 42.0904C216.511 42.0904 215.762 41.7932 215.144 41.1987Z" fill="white"/>
<path d="M228.697 52.1133V62.8139H223.347V43.6242H228.697V45.7643C230.314 44.1235 232.133 43.3032 234.155 43.3032C236.176 43.3032 237.864 44.0165 239.22 45.4433C240.599 46.87 241.288 48.7724 241.288 51.1503V62.8139H235.938V51.9707C235.938 49.022 234.856 47.5477 232.692 47.5477C231.622 47.5477 230.683 47.9401 229.874 48.7248C229.09 49.4857 228.697 50.6153 228.697 52.1133Z" fill="white"/>
<path d="M246.08 34.1744V39.0808H244.722V34.1744H243V33H247.802V34.1744H246.08Z" fill="white"/>
<path d="M253.808 35.2531L252.164 38.5762H251.355L249.719 35.2531V39.0808H248.362V33H250.198L251.764 36.3405L253.338 33H255.165V39.0808H253.808V35.2531Z" fill="white"/>
<defs>
<filter id="filter0_f" x="0" y="0.265381" width="73.4196" height="97.7348" filterUnits="userSpaceOnUse" color-interpolation-filters="sRGB">
<feFlood flood-opacity="0" result="BackgroundImageFix"/>
<feBlend mode="normal" in="SourceGraphic" in2="BackgroundImageFix" result="shape"/>
<feGaussianBlur stdDeviation="12" result="effect1_foregroundBlur"/>
</filter>
<linearGradient id="paint0_linear" x1="35.8625" y1="60.4748" x2="45.7453" y2="82.0142" gradientUnits="userSpaceOnUse">
<stop stop-color="#914AFB" stop-opacity="0"/>
<stop offset="1" stop-color="#4A05B1"/>
</linearGradient>
<linearGradient id="paint1_linear" x1="34.2985" y1="43.0476" x2="32.1334" y2="47.7306" gradientUnits="userSpaceOnUse">
<stop stop-color="#641AD2" stop-opacity="0"/>
<stop offset="1" stop-color="#641AD2"/>
</linearGradient>
<linearGradient id="paint2_linear" x1="1.82264" y1="1.92703" x2="2.08599" y2="5.11451" gradientUnits="userSpaceOnUse">
<stop stop-color="#641AD2" stop-opacity="0"/>
<stop offset="1" stop-color="#641AD2"/>
</linearGradient>
<linearGradient id="paint3_linear" x1="36.3705" y1="25.8213" x2="40.425" y2="42.2293" gradientUnits="userSpaceOnUse">
<stop stop-color="#CFD4FF"/>
<stop offset="1" stop-color="#B482FE" stop-opacity="0"/>
</linearGradient>
<linearGradient id="paint4_linear" x1="47.2239" y1="44.5943" x2="43.6869" y2="48.1714" gradientUnits="userSpaceOnUse">
<stop stop-color="#B685FF" stop-opacity="0"/>
<stop offset="1" stop-color="#4023D2"/>
</linearGradient>
<linearGradient id="paint5_linear" x1="37.5541" y1="52.2804" x2="40.842" y2="50.6717" gradientUnits="userSpaceOnUse">
<stop stop-color="#14A4BA" stop-opacity="0"/>
<stop offset="1" stop-color="#4C30DC"/>
</linearGradient>
<linearGradient id="paint6_linear" x1="35.8625" y1="60.4748" x2="45.7453" y2="82.0142" gradientUnits="userSpaceOnUse">
<stop stop-color="#914AFB" stop-opacity="0"/>
<stop offset="1" stop-color="#4A05B1"/>
</linearGradient>
<linearGradient id="paint7_linear" x1="34.2985" y1="43.0476" x2="32.1334" y2="47.7306" gradientUnits="userSpaceOnUse">
<stop stop-color="#641AD2" stop-opacity="0"/>
<stop offset="1" stop-color="#641AD2"/>
</linearGradient>
<linearGradient id="paint8_linear" x1="1.82264" y1="1.92703" x2="2.08599" y2="5.11451" gradientUnits="userSpaceOnUse">
<stop stop-color="#641AD2" stop-opacity="0"/>
<stop offset="1" stop-color="#641AD2"/>
</linearGradient>
<linearGradient id="paint9_linear" x1="36.3705" y1="25.8213" x2="40.425" y2="42.2293" gradientUnits="userSpaceOnUse">
<stop stop-color="#CFD4FF"/>
<stop offset="1" stop-color="#B482FE" stop-opacity="0"/>
</linearGradient>
<linearGradient id="paint10_linear" x1="47.2239" y1="44.5943" x2="43.6869" y2="48.1714" gradientUnits="userSpaceOnUse">
<stop stop-color="#B685FF" stop-opacity="0"/>
<stop offset="1" stop-color="#4023D2"/>
</linearGradient>
<linearGradient id="paint11_linear" x1="37.5541" y1="52.2804" x2="40.842" y2="50.6717" gradientUnits="userSpaceOnUse">
<stop stop-color="#14A4BA" stop-opacity="0"/>
<stop offset="1" stop-color="#4C30DC"/>
</linearGradient>
</defs>
</svg>
